M48
; DRILL file {KiCad 7.0.7} date Sat Apr 13 16:38:44 2024
; FORMAT={-:-/ absolute / inch / decimal}
; #@! TF.CreationDate,2024-04-13T16:38:44+09:00
; #@! TF.GenerationSoftware,Kicad,Pcbnew,7.0.7
; #@! TF.FileFunction,Plated,1,2,PTH
FMAT,2
INCH
; #@! TA.AperFunction,Plated,PTH,ViaDrill
T1C0.0157
; #@! TA.AperFunction,Plated,PTH,ComponentDrill
T2C0.0236
%
G90
G05
T1
X6.0551Y-4.6811
X6.0551Y-4.8661
X6.0551Y-5.0098
X6.0807Y-4.6496
X6.0925Y-5.0492
X6.1378Y-4.9449
X6.1457Y-4.7598
X6.1811Y-4.6457
X6.2283Y-4.811
X6.2362Y-5.0492
X6.2795Y-4.9213
X6.2953Y-4.6457
X6.3858Y-4.811
X6.3976Y-4.6457
X6.3976Y-5.0492
X6.5217Y-4.622
X6.5354Y-4.9213
X6.5354Y-4.9902
X6.5453Y-3.9646
X6.5453Y-4.0827
X6.5453Y-4.2146
X6.5453Y-4.3543
X6.5453Y-4.5217
X6.5787Y-3.9291
X6.5827Y-4.811
X6.5846Y-4.872
X6.5906Y-4.7008
X6.5945Y-5.0492
X6.6634Y-4.5768
X6.6732Y-4.4488
X6.6831Y-4.1929
X6.7165Y-4.9488
X6.7224Y-4.6654
X6.7323Y-3.9272
X6.7421Y-4.8425
X6.7717Y-4.0551
X6.7736Y-4.315
X6.8012Y-5.0492
X6.811Y-4.4193
X6.8148Y-4.7892
X6.8209Y-4.5669
X6.8209Y-4.8756
X6.8602Y-4.9508
X6.874Y-4.189
X6.8996Y-3.9272
X6.9193Y-4.3012
X6.9193Y-4.4685
X6.9291Y-4.9488
X6.9528Y-4.6929
X6.9587Y-4.7736
X6.9843Y-4.0591
X6.9854Y-4.8437
X7.0079Y-4.563
X7.0079Y-4.626
X7.0079Y-4.6949
X7.0146Y-4.8729
X7.0177Y-4.3701
X7.0276Y-4.9213
X7.0276Y-5.0492
X7.0472Y-4.1929
X7.0768Y-4.498
X7.0906Y-3.9272
X7.1161Y-4.2717
X7.1161Y-4.6654
X7.1555Y-4.4094
X7.1555Y-4.7835
X7.1555Y-4.8425
X7.1575Y-4.9488
X7.1732Y-4.6063
X7.1976Y-4.2646
X7.2047Y-4.7244
X7.2126Y-4.0551
X7.2244Y-4.2028
X7.2539Y-4.5276
X7.2539Y-4.8425
X7.2559Y-4.7205
X7.2638Y-5.0492
X7.2835Y-3.9272
X7.3031Y-4.2224
X7.311Y-4.1496
X7.315Y-4.7126
X7.3423Y-4.8617
X7.3425Y-4.813
X7.3425Y-4.9291
X7.3496Y-4.4795
X7.3788Y-4.5087
X7.4016Y-4.5669
X7.4405Y-4.8224
X7.4567Y-4.0512
X7.4606Y-3.9272
X7.4843Y-5.0512
X7.4902Y-4.813
X7.5Y-4.7244
X7.5098Y-4.9409
X7.5787Y-4.1437
X7.5787Y-4.5669
X7.5787Y-4.8327
X7.5827Y-4.248
X7.6181Y-3.9272
X7.6181Y-5.0492
X7.6575Y-3.9665
X7.6575Y-4.0748
X7.6575Y-4.2028
X7.6575Y-4.3346
X7.6575Y-4.4685
X7.6575Y-4.6161
X7.6575Y-4.7539
X7.6575Y-4.8917
X7.6575Y-5.0098
T2
G00X7.3925Y-4.6654
M15
G01X7.4358Y-4.6654
M16
G05
G00X7.3925Y-5.0055
M15
G01X7.4358Y-5.0055
M16
G05
G00X7.563Y-4.6654
M15
G01X7.5945Y-4.6654
M16
G05
G00X7.563Y-5.0055
M15
G01X7.5945Y-5.0055
M16
G05
T0
M30
