%TF.GenerationSoftware,KiCad,Pcbnew,7.0.7*%
%TF.CreationDate,2024-04-13T00:06:02+09:00*%
%TF.ProjectId,Wi-SUN_Board,57692d53-554e-45f4-926f-6172642e6b69,0.1.2*%
%TF.SameCoordinates,Original*%
%TF.FileFunction,Copper,L2,Bot*%
%TF.FilePolarity,Positive*%
%FSLAX46Y46*%
G04 Gerber Fmt 4.6, Leading zero omitted, Abs format (unit mm)*
G04 Created by KiCad (PCBNEW 7.0.7) date 2024-04-13 00:06:02*
%MOMM*%
%LPD*%
G01*
G04 APERTURE LIST*
%TA.AperFunction,ComponentPad*%
%ADD10O,2.100000X1.050000*%
%TD*%
%TA.AperFunction,ComponentPad*%
%ADD11O,1.800000X0.900000*%
%TD*%
%TA.AperFunction,ViaPad*%
%ADD12C,0.800000*%
%TD*%
%TA.AperFunction,Conductor*%
%ADD13C,0.300000*%
%TD*%
%TA.AperFunction,Conductor*%
%ADD14C,0.250000*%
%TD*%
%TA.AperFunction,Conductor*%
%ADD15C,0.500000*%
%TD*%
G04 APERTURE END LIST*
D10*
%TO.P,J2,SH1,SHIELD*%
%TO.N,GND*%
X188320000Y-127140000D03*
%TO.P,J2,SH2,SHIELD__1*%
X188320000Y-118500000D03*
D11*
%TO.P,J2,SH3,SHIELD__2*%
X192500000Y-127140000D03*
%TO.P,J2,SH4,SHIELD__3*%
X192500000Y-118500000D03*
%TD*%
D12*
%TO.N,GND*%
X184300000Y-119900000D03*
X183000000Y-120000000D03*
X175750000Y-113500000D03*
X181750000Y-123000000D03*
X179000000Y-106500000D03*
X193500000Y-99750000D03*
X167100000Y-99800000D03*
X183500000Y-106750000D03*
X166250000Y-107050000D03*
X194500000Y-127250000D03*
X172750000Y-128250000D03*
X155900000Y-125600000D03*
X179750000Y-114250000D03*
X194500000Y-124250000D03*
X174600000Y-106400000D03*
X153800000Y-123600000D03*
X166250000Y-114850000D03*
X190100000Y-128300000D03*
X192500000Y-105250000D03*
X182200000Y-117000000D03*
X154450000Y-118100000D03*
X153800000Y-118900000D03*
X184250000Y-123000000D03*
X162500000Y-128250000D03*
X166250000Y-103700000D03*
X172000000Y-103000000D03*
X194500000Y-103500000D03*
X166250000Y-110600000D03*
X158400000Y-128250000D03*
X170750000Y-118500000D03*
X184250000Y-115000000D03*
X166250000Y-100700000D03*
X192500000Y-116000000D03*
X166000000Y-125000000D03*
X194500000Y-106750000D03*
X181800000Y-125700000D03*
X159900000Y-118000000D03*
X171000000Y-99750000D03*
X180100000Y-99750000D03*
X157000000Y-118000000D03*
X169250000Y-116250000D03*
X185700000Y-105400000D03*
X189400000Y-102900000D03*
X165650000Y-117400000D03*
X162200000Y-122200000D03*
X194500000Y-117250000D03*
X156100000Y-120900000D03*
X162500000Y-118000000D03*
X176000000Y-125700000D03*
X175250000Y-99750000D03*
X189500000Y-99750000D03*
X177400000Y-103100000D03*
X167400000Y-119400000D03*
X192500000Y-122750000D03*
X158200000Y-122200000D03*
X178000000Y-117500000D03*
X159500000Y-125000000D03*
X153800000Y-127250000D03*
X181750000Y-121500000D03*
X190750000Y-125500000D03*
X194500000Y-110100000D03*
X190500000Y-120000000D03*
X194500000Y-113500000D03*
X174250000Y-125750000D03*
X169750000Y-106500000D03*
X167200000Y-122200000D03*
X167500000Y-128250000D03*
X184500000Y-128250000D03*
X171250000Y-123000000D03*
X194500000Y-120750000D03*
X178250000Y-111000000D03*
X185000000Y-99750000D03*
X180750000Y-108500000D03*
X181750000Y-112000000D03*
X171600000Y-109600000D03*
X169500000Y-113000000D03*
X178500000Y-125000000D03*
X175750000Y-109250000D03*
X178500000Y-128250000D03*
X183200000Y-103000000D03*
X188000000Y-116000000D03*
X173250000Y-116000000D03*
X170600000Y-125700000D03*
X154750000Y-128250000D03*
X173000000Y-112250000D03*
X193500000Y-128250000D03*
X178000000Y-119250000D03*
X194500000Y-100750000D03*
%TO.N,+3.3V*%
X185500000Y-107250000D03*
X176600000Y-119200000D03*
X173250000Y-123840500D03*
%TO.N,UART_-*%
X187421232Y-114521232D03*
X178171232Y-123771232D03*
%TO.N,UART_+*%
X186678768Y-113778768D03*
X177428768Y-123028768D03*
%TO.N,+5V*%
X176750000Y-121250000D03*
X180750000Y-118500000D03*
%TO.N,USB_D+*%
X188987701Y-122487701D03*
X186494053Y-123487974D03*
%TO.N,USB_D-*%
X190250000Y-122250000D03*
X186500000Y-122250000D03*
%TO.N,Net-(U2-TNOW)*%
X173094773Y-121645273D03*
X166000000Y-126750000D03*
%TO.N,+VBUS*%
X186500000Y-125200000D03*
X185800000Y-119700000D03*
%TO.N,Net-(J1-Pad7)*%
X167250000Y-123750000D03*
X182820023Y-108320023D03*
%TD*%
D13*
%TO.N,+3.3V*%
X176600000Y-119200000D02*
X176600000Y-115600000D01*
X173250000Y-122550000D02*
X173250000Y-123840500D01*
X176600000Y-119200000D02*
X173250000Y-122550000D01*
X176600000Y-115600000D02*
X184950000Y-107250000D01*
X184950000Y-107250000D02*
X185500000Y-107250000D01*
D14*
%TO.N,UART_-*%
X178171232Y-123382322D02*
X187032322Y-114521232D01*
X178171232Y-123771232D02*
X178171232Y-123382322D01*
X187032322Y-114521232D02*
X187421232Y-114521232D01*
%TO.N,UART_+*%
X186678768Y-114167678D02*
X186678768Y-113778768D01*
X177428768Y-123028768D02*
X177817678Y-123028768D01*
X177817678Y-123028768D02*
X186678768Y-114167678D01*
D15*
%TO.N,+5V*%
X178000000Y-121250000D02*
X176750000Y-121250000D01*
X180750000Y-118500000D02*
X178000000Y-121250000D01*
D14*
%TO.N,USB_D+*%
X188987701Y-122487701D02*
X189750000Y-123250000D01*
X189750000Y-123250000D02*
X189750000Y-124250000D01*
X189250000Y-124750000D02*
X187750000Y-124750000D01*
X187750000Y-124750000D02*
X186494053Y-123494053D01*
X189750000Y-124250000D02*
X189250000Y-124750000D01*
X186494053Y-123494053D02*
X186494053Y-123487974D01*
%TO.N,USB_D-*%
X186987299Y-121762701D02*
X189762701Y-121762701D01*
X189762701Y-121762701D02*
X190250000Y-122250000D01*
X186500000Y-122250000D02*
X186987299Y-121762701D01*
X186500000Y-122250000D02*
X186525000Y-122275000D01*
%TO.N,Net-(U2-TNOW)*%
X173094773Y-121645273D02*
X171104727Y-121645273D01*
X171104727Y-121645273D02*
X166000000Y-126750000D01*
D15*
%TO.N,+VBUS*%
X186500000Y-125200000D02*
X185644053Y-124344053D01*
X185644053Y-124344053D02*
X185644053Y-119855947D01*
X185644053Y-119855947D02*
X185800000Y-119700000D01*
D14*
%TO.N,Net-(J1-Pad7)*%
X167390046Y-123750000D02*
X167250000Y-123750000D01*
X182820023Y-108320023D02*
X167390046Y-123750000D01*
%TD*%
%TA.AperFunction,Conductor*%
%TO.N,GND*%
G36*
X193965677Y-99219685D02*
G01*
X193986319Y-99236319D01*
X194963681Y-100213681D01*
X194997166Y-100275004D01*
X195000000Y-100301362D01*
X195000000Y-127698638D01*
X194980315Y-127765677D01*
X194963681Y-127786319D01*
X194036319Y-128713681D01*
X193974996Y-128747166D01*
X193948638Y-128750000D01*
X154301362Y-128750000D01*
X154234323Y-128730315D01*
X154213681Y-128713681D01*
X153086319Y-127586319D01*
X153052834Y-127524996D01*
X153050000Y-127498638D01*
X153050000Y-126750000D01*
X165094540Y-126750000D01*
X165114326Y-126938256D01*
X165114327Y-126938259D01*
X165172818Y-127118277D01*
X165172821Y-127118284D01*
X165267467Y-127282216D01*
X165373056Y-127399484D01*
X165394129Y-127422888D01*
X165547265Y-127534148D01*
X165547270Y-127534151D01*
X165720192Y-127611142D01*
X165720197Y-127611144D01*
X165905354Y-127650500D01*
X165905355Y-127650500D01*
X166094644Y-127650500D01*
X166094646Y-127650500D01*
X166279803Y-127611144D01*
X166452730Y-127534151D01*
X166605871Y-127422888D01*
X166732533Y-127282216D01*
X166827179Y-127118284D01*
X166885674Y-126938256D01*
X166903321Y-126770345D01*
X166929905Y-126705732D01*
X166938952Y-126695636D01*
X171327498Y-122307092D01*
X171388822Y-122273607D01*
X171415180Y-122270773D01*
X172391025Y-122270773D01*
X172458064Y-122290458D01*
X172483173Y-122311799D01*
X172488902Y-122318162D01*
X172548384Y-122361377D01*
X172591051Y-122416707D01*
X172599500Y-122461696D01*
X172599500Y-122489044D01*
X172597973Y-122508444D01*
X172594653Y-122529403D01*
X172599225Y-122577767D01*
X172599500Y-122583606D01*
X172599500Y-123169578D01*
X172579815Y-123236617D01*
X172567650Y-123252550D01*
X172517466Y-123308285D01*
X172422821Y-123472215D01*
X172422818Y-123472222D01*
X172364327Y-123652240D01*
X172364326Y-123652244D01*
X172344540Y-123840500D01*
X172364326Y-124028756D01*
X172364327Y-124028759D01*
X172422818Y-124208777D01*
X172422821Y-124208784D01*
X172517467Y-124372716D01*
X172581760Y-124444120D01*
X172644129Y-124513388D01*
X172797265Y-124624648D01*
X172797270Y-124624651D01*
X172970192Y-124701642D01*
X172970197Y-124701644D01*
X173155354Y-124741000D01*
X173189793Y-124741000D01*
X173219758Y-124749798D01*
X173250000Y-124749822D01*
X173250000Y-124749823D01*
X178000000Y-124753615D01*
X178255129Y-124674284D01*
X178260648Y-124672843D01*
X178265875Y-124671732D01*
X178265878Y-124671732D01*
X178451035Y-124632376D01*
X178623962Y-124555383D01*
X178777103Y-124444120D01*
X178886990Y-124322078D01*
X184888763Y-124322078D01*
X184893317Y-124374117D01*
X184893553Y-124379523D01*
X184893553Y-124387762D01*
X184897359Y-124420327D01*
X184904053Y-124496844D01*
X184905514Y-124503920D01*
X184905456Y-124503931D01*
X184907087Y-124511290D01*
X184907145Y-124511277D01*
X184908810Y-124518303D01*
X184935078Y-124590477D01*
X184959238Y-124663384D01*
X184962289Y-124669927D01*
X184962235Y-124669951D01*
X184965523Y-124676741D01*
X184965574Y-124676716D01*
X184968814Y-124683166D01*
X184968815Y-124683167D01*
X184968816Y-124683170D01*
X184985021Y-124707809D01*
X185011018Y-124747336D01*
X185051340Y-124812708D01*
X185055819Y-124818372D01*
X185055772Y-124818409D01*
X185060535Y-124824255D01*
X185060581Y-124824217D01*
X185065226Y-124829753D01*
X185121070Y-124882438D01*
X185587228Y-125348596D01*
X185617478Y-125397958D01*
X185672819Y-125568280D01*
X185672821Y-125568284D01*
X185767467Y-125732216D01*
X185870519Y-125846666D01*
X185894129Y-125872888D01*
X186047265Y-125984148D01*
X186047270Y-125984151D01*
X186220192Y-126061142D01*
X186220197Y-126061144D01*
X186405354Y-126100500D01*
X186405355Y-126100500D01*
X186594644Y-126100500D01*
X186594646Y-126100500D01*
X186779803Y-126061144D01*
X186952730Y-125984151D01*
X187105871Y-125872888D01*
X187232533Y-125732216D01*
X187327179Y-125568284D01*
X187375486Y-125419609D01*
X187414922Y-125361937D01*
X187479280Y-125334738D01*
X187524247Y-125337824D01*
X187537320Y-125341181D01*
X187555717Y-125347480D01*
X187574104Y-125355437D01*
X187615144Y-125361937D01*
X187620119Y-125362725D01*
X187625839Y-125363909D01*
X187670981Y-125375500D01*
X187691016Y-125375500D01*
X187710414Y-125377026D01*
X187730194Y-125380159D01*
X187730195Y-125380160D01*
X187730195Y-125380159D01*
X187730196Y-125380160D01*
X187776583Y-125375775D01*
X187782422Y-125375500D01*
X188150059Y-125375500D01*
X188217098Y-125395185D01*
X188262853Y-125447989D01*
X188272797Y-125517147D01*
X188264621Y-125546947D01*
X188260167Y-125557700D01*
X188259312Y-125559766D01*
X188239534Y-125709999D01*
X188239534Y-125710000D01*
X188259312Y-125860234D01*
X188259313Y-125860236D01*
X188271167Y-125888855D01*
X188293822Y-125943547D01*
X188301291Y-126013016D01*
X188270016Y-126075496D01*
X188209927Y-126111148D01*
X188179261Y-126115000D01*
X187744642Y-126115000D01*
X187594067Y-126129829D01*
X187400845Y-126188443D01*
X187222790Y-126283615D01*
X187222784Y-126283620D01*
X187066707Y-126411707D01*
X186938620Y-126567784D01*
X186938615Y-126567790D01*
X186843442Y-126745846D01*
X186799715Y-126890000D01*
X187365021Y-126890000D01*
X187432060Y-126909685D01*
X187477815Y-126962489D01*
X187487759Y-127031647D01*
X187484287Y-127047934D01*
X187466105Y-127111837D01*
X187466104Y-127111837D01*
X187476453Y-127223517D01*
X187478885Y-127232063D01*
X187478299Y-127301930D01*
X187440034Y-127360390D01*
X187376237Y-127388881D01*
X187359619Y-127390000D01*
X186799715Y-127390000D01*
X186843442Y-127534153D01*
X186938615Y-127712209D01*
X186938620Y-127712215D01*
X187066707Y-127868292D01*
X187222784Y-127996379D01*
X187222790Y-127996384D01*
X187400845Y-128091556D01*
X187594067Y-128150170D01*
X187744642Y-128165000D01*
X188070000Y-128165000D01*
X188070000Y-127564000D01*
X188089685Y-127496961D01*
X188142489Y-127451206D01*
X188194000Y-127440000D01*
X188446000Y-127440000D01*
X188513039Y-127459685D01*
X188558794Y-127512489D01*
X188570000Y-127564000D01*
X188570000Y-128165000D01*
X188895358Y-128165000D01*
X189045932Y-128150170D01*
X189239154Y-128091556D01*
X189417209Y-127996384D01*
X189417215Y-127996379D01*
X189573292Y-127868292D01*
X189701379Y-127712215D01*
X189701384Y-127712209D01*
X189796557Y-127534153D01*
X189840285Y-127390000D01*
X191129529Y-127390000D01*
X191192685Y-127560527D01*
X191192687Y-127560531D01*
X191294892Y-127724503D01*
X191428002Y-127864534D01*
X191428003Y-127864535D01*
X191586586Y-127974913D01*
X191764137Y-128051106D01*
X191953394Y-128090000D01*
X192250000Y-128090000D01*
X192250000Y-127564000D01*
X192269685Y-127496961D01*
X192322489Y-127451206D01*
X192374000Y-127440000D01*
X192626000Y-127440000D01*
X192693039Y-127459685D01*
X192738794Y-127512489D01*
X192750000Y-127564000D01*
X192750000Y-128090000D01*
X192998176Y-128090000D01*
X193142221Y-128075352D01*
X193326561Y-128017515D01*
X193326571Y-128017510D01*
X193495498Y-127923748D01*
X193495505Y-127923743D01*
X193642105Y-127797892D01*
X193760368Y-127645109D01*
X193760370Y-127645105D01*
X193845457Y-127471643D01*
X193866596Y-127390000D01*
X193304979Y-127390000D01*
X193237940Y-127370315D01*
X193192185Y-127317511D01*
X193182241Y-127248353D01*
X193185713Y-127232066D01*
X193203894Y-127168162D01*
X193203895Y-127168160D01*
X193199273Y-127118284D01*
X193193546Y-127056479D01*
X193193544Y-127056475D01*
X193191115Y-127047937D01*
X193191701Y-126978070D01*
X193229966Y-126919610D01*
X193293763Y-126891119D01*
X193310381Y-126890000D01*
X193870471Y-126890000D01*
X193807314Y-126719472D01*
X193807312Y-126719468D01*
X193705107Y-126555496D01*
X193571997Y-126415465D01*
X193571996Y-126415464D01*
X193413413Y-126305086D01*
X193235862Y-126228893D01*
X193046606Y-126190000D01*
X192750000Y-126190000D01*
X192750000Y-126716000D01*
X192730315Y-126783039D01*
X192677511Y-126828794D01*
X192626000Y-126840000D01*
X192374000Y-126840000D01*
X192306961Y-126820315D01*
X192261206Y-126767511D01*
X192250000Y-126716000D01*
X192250000Y-126190000D01*
X192001824Y-126190000D01*
X191857778Y-126204647D01*
X191673438Y-126262484D01*
X191673428Y-126262489D01*
X191504501Y-126356251D01*
X191504494Y-126356256D01*
X191357894Y-126482107D01*
X191239631Y-126634890D01*
X191239629Y-126634894D01*
X191154542Y-126808356D01*
X191133404Y-126890000D01*
X191695021Y-126890000D01*
X191762060Y-126909685D01*
X191807815Y-126962489D01*
X191817759Y-127031647D01*
X191814287Y-127047934D01*
X191796105Y-127111837D01*
X191796104Y-127111837D01*
X191806453Y-127223517D01*
X191808885Y-127232063D01*
X191808299Y-127301930D01*
X191770034Y-127360390D01*
X191706237Y-127388881D01*
X191689619Y-127390000D01*
X191129529Y-127390000D01*
X189840285Y-127390000D01*
X189274979Y-127390000D01*
X189207940Y-127370315D01*
X189162185Y-127317511D01*
X189152241Y-127248353D01*
X189155713Y-127232066D01*
X189173894Y-127168162D01*
X189173895Y-127168160D01*
X189169273Y-127118284D01*
X189163546Y-127056479D01*
X189163544Y-127056475D01*
X189161115Y-127047937D01*
X189161701Y-126978070D01*
X189199966Y-126919610D01*
X189263763Y-126891119D01*
X189280381Y-126890000D01*
X189840285Y-126890000D01*
X189796557Y-126745846D01*
X189701384Y-126567790D01*
X189701379Y-126567784D01*
X189573292Y-126411707D01*
X189417215Y-126283620D01*
X189417212Y-126283618D01*
X189324877Y-126234263D01*
X189275033Y-126185300D01*
X189259573Y-126117162D01*
X189283405Y-126051483D01*
X189284884Y-126049512D01*
X189322698Y-126000233D01*
X189380687Y-125860236D01*
X189400466Y-125710000D01*
X189380687Y-125559764D01*
X189361717Y-125513968D01*
X189354249Y-125444501D01*
X189385524Y-125382021D01*
X189430630Y-125351225D01*
X189450122Y-125343507D01*
X189455647Y-125341617D01*
X189474302Y-125336197D01*
X189500390Y-125328618D01*
X189517629Y-125318422D01*
X189535103Y-125309862D01*
X189553727Y-125302488D01*
X189553727Y-125302487D01*
X189553732Y-125302486D01*
X189591449Y-125275082D01*
X189596305Y-125271892D01*
X189636420Y-125248170D01*
X189650589Y-125233999D01*
X189665379Y-125221368D01*
X189681587Y-125209594D01*
X189711299Y-125173676D01*
X189715212Y-125169376D01*
X190133786Y-124750802D01*
X190146048Y-124740980D01*
X190145865Y-124740759D01*
X190151867Y-124735792D01*
X190151877Y-124735786D01*
X190199241Y-124685348D01*
X190220120Y-124664470D01*
X190224370Y-124658989D01*
X190228151Y-124654561D01*
X190260062Y-124620582D01*
X190269713Y-124603024D01*
X190280396Y-124586761D01*
X190292673Y-124570936D01*
X190311183Y-124528158D01*
X190313743Y-124522932D01*
X190336197Y-124482092D01*
X190341178Y-124462687D01*
X190347482Y-124444279D01*
X190347551Y-124444120D01*
X190355438Y-124425895D01*
X190362729Y-124379853D01*
X190363908Y-124374162D01*
X190375500Y-124329019D01*
X190375500Y-124308974D01*
X190377025Y-124289591D01*
X190380160Y-124269804D01*
X190375775Y-124223415D01*
X190375500Y-124217577D01*
X190375500Y-123332742D01*
X190377224Y-123317122D01*
X190376939Y-123317095D01*
X190377671Y-123309340D01*
X190377673Y-123309333D01*
X190375752Y-123248206D01*
X190393321Y-123180583D01*
X190444662Y-123133192D01*
X190473902Y-123123025D01*
X190529803Y-123111144D01*
X190529807Y-123111142D01*
X190529808Y-123111142D01*
X190606241Y-123077111D01*
X190702730Y-123034151D01*
X190855871Y-122922888D01*
X190982533Y-122782216D01*
X191077179Y-122618284D01*
X191135674Y-122438256D01*
X191155460Y-122250000D01*
X191135674Y-122061744D01*
X191077179Y-121881716D01*
X190982533Y-121717784D01*
X190855871Y-121577112D01*
X190855870Y-121577111D01*
X190702734Y-121465851D01*
X190702729Y-121465848D01*
X190529807Y-121388857D01*
X190529802Y-121388855D01*
X190384000Y-121357865D01*
X190344646Y-121349500D01*
X190344645Y-121349500D01*
X190285523Y-121349500D01*
X190218484Y-121329815D01*
X190200632Y-121315884D01*
X190198065Y-121313474D01*
X190187698Y-121303107D01*
X190177177Y-121292585D01*
X190171687Y-121288326D01*
X190167262Y-121284548D01*
X190133283Y-121252639D01*
X190133281Y-121252637D01*
X190133278Y-121252636D01*
X190115730Y-121242989D01*
X190099464Y-121232305D01*
X190083634Y-121220026D01*
X190040869Y-121201519D01*
X190035623Y-121198949D01*
X189994794Y-121176504D01*
X189994793Y-121176503D01*
X189975394Y-121171523D01*
X189956982Y-121165219D01*
X189938599Y-121157263D01*
X189938593Y-121157261D01*
X189892575Y-121149973D01*
X189886853Y-121148788D01*
X189841722Y-121137201D01*
X189841720Y-121137201D01*
X189821685Y-121137201D01*
X189802287Y-121135674D01*
X189794863Y-121134498D01*
X189782506Y-121132541D01*
X189782505Y-121132541D01*
X189736117Y-121136926D01*
X189730279Y-121137201D01*
X187070042Y-121137201D01*
X187054421Y-121135476D01*
X187054395Y-121135762D01*
X187046633Y-121135028D01*
X187046632Y-121135028D01*
X186977485Y-121137201D01*
X186947948Y-121137201D01*
X186941065Y-121138070D01*
X186935248Y-121138527D01*
X186888672Y-121139991D01*
X186869428Y-121145582D01*
X186850378Y-121149526D01*
X186830510Y-121152035D01*
X186787183Y-121169189D01*
X186781657Y-121171080D01*
X186736913Y-121184080D01*
X186736909Y-121184082D01*
X186719665Y-121194280D01*
X186702204Y-121202834D01*
X186683573Y-121210211D01*
X186683561Y-121210218D01*
X186645869Y-121237603D01*
X186640986Y-121240810D01*
X186600877Y-121264531D01*
X186594716Y-121269311D01*
X186592657Y-121266657D01*
X186544538Y-121292741D01*
X186474862Y-121287542D01*
X186419058Y-121245499D01*
X186394842Y-121179959D01*
X186394553Y-121171494D01*
X186394553Y-120808092D01*
X186394553Y-120433052D01*
X186414236Y-120366017D01*
X186426393Y-120350095D01*
X186532533Y-120232216D01*
X186627179Y-120068284D01*
X186685674Y-119888256D01*
X186705460Y-119700000D01*
X186685674Y-119511744D01*
X186627179Y-119331716D01*
X186532533Y-119167784D01*
X186405871Y-119027112D01*
X186384715Y-119011741D01*
X186252734Y-118915851D01*
X186252729Y-118915848D01*
X186079807Y-118838857D01*
X186079802Y-118838855D01*
X185934001Y-118807865D01*
X185894646Y-118799500D01*
X185705354Y-118799500D01*
X185672897Y-118806398D01*
X185520197Y-118838855D01*
X185520192Y-118838857D01*
X185347270Y-118915848D01*
X185347265Y-118915851D01*
X185194129Y-119027111D01*
X185067466Y-119167785D01*
X184972821Y-119331715D01*
X184972818Y-119331722D01*
X184933882Y-119451556D01*
X184914326Y-119511744D01*
X184896904Y-119677511D01*
X184894540Y-119700002D01*
X184894540Y-119700003D01*
X184896996Y-119723380D01*
X184894336Y-119764918D01*
X184893553Y-119768222D01*
X184892714Y-119775402D01*
X184892654Y-119775395D01*
X184891888Y-119782892D01*
X184891948Y-119782898D01*
X184891318Y-119790087D01*
X184893553Y-119866863D01*
X184893553Y-124280347D01*
X184892244Y-124298316D01*
X184888763Y-124322078D01*
X178886990Y-124322078D01*
X178903765Y-124303448D01*
X178998411Y-124139516D01*
X179056906Y-123959488D01*
X179076692Y-123771232D01*
X179056906Y-123582976D01*
X179030912Y-123502977D01*
X179028918Y-123433137D01*
X179061161Y-123376981D01*
X183688142Y-118750000D01*
X186799715Y-118750000D01*
X186843442Y-118894153D01*
X186938615Y-119072209D01*
X186938620Y-119072215D01*
X187066707Y-119228292D01*
X187222784Y-119356379D01*
X187222790Y-119356384D01*
X187400845Y-119451556D01*
X187594067Y-119510170D01*
X187744642Y-119525000D01*
X188179261Y-119525000D01*
X188246300Y-119544685D01*
X188292055Y-119597489D01*
X188301999Y-119666647D01*
X188293822Y-119696451D01*
X188286686Y-119713681D01*
X188259313Y-119779763D01*
X188259312Y-119779765D01*
X188239534Y-119929999D01*
X188239534Y-119930000D01*
X188259312Y-120080234D01*
X188259313Y-120080236D01*
X188317302Y-120220233D01*
X188409549Y-120340451D01*
X188529767Y-120432698D01*
X188669764Y-120490687D01*
X188782280Y-120505500D01*
X188782287Y-120505500D01*
X188857713Y-120505500D01*
X188857720Y-120505500D01*
X188970236Y-120490687D01*
X189110233Y-120432698D01*
X189230451Y-120340451D01*
X189322698Y-120220233D01*
X189380687Y-120080236D01*
X189400466Y-119930000D01*
X189380687Y-119779764D01*
X189322698Y-119639767D01*
X189322697Y-119639765D01*
X189284956Y-119590581D01*
X189259761Y-119525412D01*
X189273799Y-119456967D01*
X189322613Y-119406977D01*
X189324878Y-119405736D01*
X189417209Y-119356383D01*
X189417215Y-119356379D01*
X189573292Y-119228292D01*
X189701379Y-119072215D01*
X189701384Y-119072209D01*
X189796557Y-118894153D01*
X189840285Y-118750000D01*
X191129529Y-118750000D01*
X191192685Y-118920527D01*
X191192687Y-118920531D01*
X191294892Y-119084503D01*
X191428002Y-119224534D01*
X191428003Y-119224535D01*
X191586586Y-119334913D01*
X191764137Y-119411106D01*
X191953394Y-119450000D01*
X192250000Y-119450000D01*
X192250000Y-118924000D01*
X192269685Y-118856961D01*
X192322489Y-118811206D01*
X192374000Y-118800000D01*
X192626000Y-118800000D01*
X192693039Y-118819685D01*
X192738794Y-118872489D01*
X192750000Y-118924000D01*
X192750000Y-119450000D01*
X192998176Y-119450000D01*
X193142221Y-119435352D01*
X193326561Y-119377515D01*
X193326571Y-119377510D01*
X193495498Y-119283748D01*
X193495505Y-119283743D01*
X193642105Y-119157892D01*
X193760368Y-119005109D01*
X193760370Y-119005105D01*
X193845457Y-118831643D01*
X193866596Y-118750000D01*
X193304979Y-118750000D01*
X193237940Y-118730315D01*
X193192185Y-118677511D01*
X193182241Y-118608353D01*
X193185713Y-118592066D01*
X193197949Y-118549058D01*
X193203895Y-118528160D01*
X193193546Y-118416479D01*
X193193544Y-118416475D01*
X193191115Y-118407937D01*
X193191701Y-118338070D01*
X193229966Y-118279610D01*
X193293763Y-118251119D01*
X193310381Y-118250000D01*
X193870471Y-118250000D01*
X193807314Y-118079472D01*
X193807312Y-118079468D01*
X193705107Y-117915496D01*
X193571997Y-117775465D01*
X193571996Y-117775464D01*
X193413413Y-117665086D01*
X193235862Y-117588893D01*
X193046606Y-117550000D01*
X192750000Y-117550000D01*
X192750000Y-118076000D01*
X192730315Y-118143039D01*
X192677511Y-118188794D01*
X192626000Y-118200000D01*
X192374000Y-118200000D01*
X192306961Y-118180315D01*
X192261206Y-118127511D01*
X192250000Y-118076000D01*
X192250000Y-117550000D01*
X192001824Y-117550000D01*
X191857778Y-117564647D01*
X191673438Y-117622484D01*
X191673428Y-117622489D01*
X191504501Y-117716251D01*
X191504494Y-117716256D01*
X191357894Y-117842107D01*
X191239631Y-117994890D01*
X191239629Y-117994894D01*
X191154542Y-118168356D01*
X191133404Y-118250000D01*
X191695021Y-118250000D01*
X191762060Y-118269685D01*
X191807815Y-118322489D01*
X191817759Y-118391647D01*
X191814287Y-118407934D01*
X191796105Y-118471837D01*
X191796104Y-118471837D01*
X191806453Y-118583517D01*
X191808885Y-118592063D01*
X191808299Y-118661930D01*
X191770034Y-118720390D01*
X191706237Y-118748881D01*
X191689619Y-118750000D01*
X191129529Y-118750000D01*
X189840285Y-118750000D01*
X189274979Y-118750000D01*
X189207940Y-118730315D01*
X189162185Y-118677511D01*
X189152241Y-118608353D01*
X189155713Y-118592066D01*
X189167949Y-118549058D01*
X189173895Y-118528160D01*
X189163546Y-118416479D01*
X189163544Y-118416475D01*
X189161115Y-118407937D01*
X189161701Y-118338070D01*
X189199966Y-118279610D01*
X189263763Y-118251119D01*
X189280381Y-118250000D01*
X189840285Y-118250000D01*
X189796557Y-118105846D01*
X189701384Y-117927790D01*
X189701379Y-117927784D01*
X189573292Y-117771707D01*
X189417215Y-117643620D01*
X189417209Y-117643615D01*
X189239154Y-117548443D01*
X189045932Y-117489829D01*
X188895358Y-117475000D01*
X188570000Y-117475000D01*
X188570000Y-118076000D01*
X188550315Y-118143039D01*
X188497511Y-118188794D01*
X188446000Y-118200000D01*
X188194000Y-118200000D01*
X188126961Y-118180315D01*
X188081206Y-118127511D01*
X188070000Y-118076000D01*
X188070000Y-117475000D01*
X187744642Y-117475000D01*
X187594067Y-117489829D01*
X187400845Y-117548443D01*
X187222790Y-117643615D01*
X187222784Y-117643620D01*
X187066707Y-117771707D01*
X186938620Y-117927784D01*
X186938615Y-117927790D01*
X186843442Y-118105846D01*
X186799715Y-118250000D01*
X187365021Y-118250000D01*
X187432060Y-118269685D01*
X187477815Y-118322489D01*
X187487759Y-118391647D01*
X187484287Y-118407934D01*
X187466105Y-118471837D01*
X187466104Y-118471837D01*
X187476453Y-118583517D01*
X187478885Y-118592063D01*
X187478299Y-118661930D01*
X187440034Y-118720390D01*
X187376237Y-118748881D01*
X187359619Y-118750000D01*
X186799715Y-118750000D01*
X183688142Y-118750000D01*
X187023178Y-115414964D01*
X187084499Y-115381481D01*
X187136638Y-115381357D01*
X187141426Y-115382374D01*
X187141429Y-115382376D01*
X187326586Y-115421732D01*
X187326587Y-115421732D01*
X187515876Y-115421732D01*
X187515878Y-115421732D01*
X187701035Y-115382376D01*
X187873962Y-115305383D01*
X188027103Y-115194120D01*
X188153765Y-115053448D01*
X188248411Y-114889516D01*
X188306906Y-114709488D01*
X188326692Y-114521232D01*
X188306906Y-114332976D01*
X188248411Y-114152948D01*
X188153765Y-113989016D01*
X188027103Y-113848344D01*
X187991079Y-113822171D01*
X187873966Y-113737083D01*
X187873961Y-113737080D01*
X187701039Y-113660089D01*
X187701034Y-113660087D01*
X187648618Y-113648946D01*
X187587136Y-113615753D01*
X187556469Y-113565975D01*
X187505947Y-113410484D01*
X187411301Y-113246552D01*
X187284639Y-113105880D01*
X187284638Y-113105879D01*
X187131502Y-112994619D01*
X187131497Y-112994616D01*
X186958575Y-112917625D01*
X186958570Y-112917623D01*
X186812768Y-112886633D01*
X186773414Y-112878268D01*
X186584122Y-112878268D01*
X186551665Y-112885166D01*
X186398965Y-112917623D01*
X186398960Y-112917625D01*
X186226038Y-112994616D01*
X186226033Y-112994619D01*
X186072897Y-113105879D01*
X185946234Y-113246553D01*
X185851589Y-113410483D01*
X185851586Y-113410490D01*
X185801067Y-113565973D01*
X185793094Y-113590512D01*
X185777689Y-113737081D01*
X185773308Y-113778768D01*
X185793094Y-113967024D01*
X185793095Y-113967027D01*
X185819086Y-114047019D01*
X185821081Y-114116860D01*
X185788836Y-114173018D01*
X181782297Y-118179557D01*
X181720974Y-118213042D01*
X181651282Y-118208058D01*
X181595349Y-118166186D01*
X181580417Y-118137394D01*
X181579825Y-118137659D01*
X181577180Y-118131719D01*
X181577179Y-118131716D01*
X181482533Y-117967784D01*
X181355871Y-117827112D01*
X181284785Y-117775465D01*
X181202734Y-117715851D01*
X181202729Y-117715848D01*
X181029807Y-117638857D01*
X181029802Y-117638855D01*
X180884001Y-117607865D01*
X180844646Y-117599500D01*
X180655354Y-117599500D01*
X180622897Y-117606398D01*
X180470197Y-117638855D01*
X180470192Y-117638857D01*
X180297270Y-117715848D01*
X180297265Y-117715851D01*
X180144129Y-117827111D01*
X180017466Y-117967785D01*
X179922821Y-118131715D01*
X179922819Y-118131719D01*
X179867479Y-118302039D01*
X179837229Y-118351401D01*
X178474951Y-119713681D01*
X178413628Y-119747166D01*
X178387270Y-119750000D01*
X177537039Y-119750000D01*
X177470000Y-119730315D01*
X177424245Y-119677511D01*
X177414301Y-119608353D01*
X177425906Y-119574823D01*
X177424538Y-119574214D01*
X177427174Y-119568292D01*
X177427179Y-119568284D01*
X177485674Y-119388256D01*
X177505460Y-119200000D01*
X177485674Y-119011744D01*
X177427179Y-118831716D01*
X177332533Y-118667784D01*
X177282350Y-118612050D01*
X177252120Y-118549058D01*
X177250500Y-118529078D01*
X177250500Y-115920806D01*
X177270185Y-115853767D01*
X177286814Y-115833130D01*
X185013665Y-108106279D01*
X185074986Y-108072796D01*
X185144678Y-108077780D01*
X185151780Y-108080683D01*
X185220192Y-108111142D01*
X185220197Y-108111144D01*
X185405354Y-108150500D01*
X185405355Y-108150500D01*
X185594644Y-108150500D01*
X185594646Y-108150500D01*
X185779803Y-108111144D01*
X185952730Y-108034151D01*
X186105871Y-107922888D01*
X186232533Y-107782216D01*
X186327179Y-107618284D01*
X186385674Y-107438256D01*
X186405460Y-107250000D01*
X186385674Y-107061744D01*
X186327179Y-106881716D01*
X186232533Y-106717784D01*
X186105871Y-106577112D01*
X186105870Y-106577111D01*
X185952734Y-106465851D01*
X185952729Y-106465848D01*
X185779807Y-106388857D01*
X185779802Y-106388855D01*
X185634000Y-106357865D01*
X185594646Y-106349500D01*
X185405354Y-106349500D01*
X185372897Y-106356398D01*
X185220197Y-106388855D01*
X185220192Y-106388857D01*
X185047270Y-106465848D01*
X185047265Y-106465851D01*
X184888872Y-106580931D01*
X184888078Y-106579838D01*
X184847630Y-106602344D01*
X184827052Y-106608322D01*
X184808008Y-106612266D01*
X184786947Y-106614927D01*
X184786939Y-106614929D01*
X184741775Y-106632811D01*
X184736247Y-106634703D01*
X184689602Y-106648255D01*
X184671332Y-106659060D01*
X184653863Y-106667618D01*
X184634128Y-106675432D01*
X184634126Y-106675433D01*
X184594839Y-106703977D01*
X184589956Y-106707184D01*
X184548132Y-106731919D01*
X184533126Y-106746926D01*
X184518336Y-106759558D01*
X184501167Y-106772032D01*
X184501165Y-106772034D01*
X184470194Y-106809470D01*
X184466262Y-106813791D01*
X183616378Y-107663674D01*
X183555055Y-107697159D01*
X183485363Y-107692175D01*
X183436548Y-107658966D01*
X183425900Y-107647140D01*
X183425892Y-107647133D01*
X183272757Y-107535874D01*
X183272752Y-107535871D01*
X183099830Y-107458880D01*
X183099825Y-107458878D01*
X182954023Y-107427888D01*
X182914669Y-107419523D01*
X182725377Y-107419523D01*
X182692920Y-107426421D01*
X182540220Y-107458878D01*
X182540215Y-107458880D01*
X182367293Y-107535871D01*
X182367288Y-107535874D01*
X182214152Y-107647134D01*
X182087489Y-107787808D01*
X181992844Y-107951738D01*
X181992841Y-107951745D01*
X181934350Y-108131763D01*
X181934349Y-108131767D01*
X181926428Y-108207128D01*
X181916701Y-108299674D01*
X181890116Y-108364289D01*
X181881061Y-108374393D01*
X167441945Y-122813508D01*
X167380622Y-122846993D01*
X167351145Y-122848612D01*
X167351145Y-122849500D01*
X167344646Y-122849500D01*
X167155354Y-122849500D01*
X167124877Y-122855978D01*
X166970197Y-122888855D01*
X166970192Y-122888857D01*
X166797270Y-122965848D01*
X166797265Y-122965851D01*
X166644129Y-123077111D01*
X166517466Y-123217785D01*
X166422821Y-123381715D01*
X166422818Y-123381722D01*
X166364327Y-123561740D01*
X166364326Y-123561744D01*
X166344540Y-123750000D01*
X166364326Y-123938256D01*
X166364327Y-123938259D01*
X166422818Y-124118277D01*
X166422821Y-124118284D01*
X166517467Y-124282216D01*
X166641823Y-124420327D01*
X166644129Y-124422888D01*
X166797265Y-124534148D01*
X166797270Y-124534151D01*
X166970192Y-124611142D01*
X166970197Y-124611144D01*
X166981078Y-124613456D01*
X167042560Y-124646647D01*
X167076338Y-124707809D01*
X167071687Y-124777524D01*
X167042980Y-124822428D01*
X166052228Y-125813181D01*
X165990905Y-125846666D01*
X165964547Y-125849500D01*
X165905354Y-125849500D01*
X165872897Y-125856398D01*
X165720197Y-125888855D01*
X165720192Y-125888857D01*
X165547270Y-125965848D01*
X165547265Y-125965851D01*
X165394129Y-126077111D01*
X165267466Y-126217785D01*
X165172821Y-126381715D01*
X165172818Y-126381722D01*
X165116356Y-126555496D01*
X165114326Y-126561744D01*
X165094540Y-126750000D01*
X153050000Y-126750000D01*
X153050000Y-118501362D01*
X153069685Y-118434323D01*
X153086319Y-118413681D01*
X153963681Y-117536319D01*
X154025004Y-117502834D01*
X154051362Y-117500000D01*
X164500000Y-117500000D01*
X165500000Y-116500000D01*
X165500000Y-100208137D01*
X165519685Y-100141098D01*
X165539890Y-100117024D01*
X166204783Y-99503276D01*
X166497709Y-99232884D01*
X166560322Y-99201877D01*
X166581816Y-99200000D01*
X193898638Y-99200000D01*
X193965677Y-99219685D01*
G37*
%TD.AperFunction*%
%TD*%
M02*
