%TF.GenerationSoftware,KiCad,Pcbnew,7.0.7*%
%TF.CreationDate,2024-04-13T00:06:02+09:00*%
%TF.ProjectId,Wi-SUN_Board,57692d53-554e-45f4-926f-6172642e6b69,0.1.2*%
%TF.SameCoordinates,Original*%
%TF.FileFunction,Legend,Top*%
%TF.FilePolarity,Positive*%
%FSLAX46Y46*%
G04 Gerber Fmt 4.6, Leading zero omitted, Abs format (unit mm)*
G04 Created by KiCad (PCBNEW 7.0.7) date 2024-04-13 00:06:02*
%MOMM*%
%LPD*%
G01*
G04 APERTURE LIST*
G04 Aperture macros list*
%AMRoundRect*
0 Rectangle with rounded corners*
0 $1 Rounding radius*
0 $2 $3 $4 $5 $6 $7 $8 $9 X,Y pos of 4 corners*
0 Add a 4 corners polygon primitive as box body*
4,1,4,$2,$3,$4,$5,$6,$7,$8,$9,$2,$3,0*
0 Add four circle primitives for the rounded corners*
1,1,$1+$1,$2,$3*
1,1,$1+$1,$4,$5*
1,1,$1+$1,$6,$7*
1,1,$1+$1,$8,$9*
0 Add four rect primitives between the rounded corners*
20,1,$1+$1,$2,$3,$4,$5,0*
20,1,$1+$1,$4,$5,$6,$7,0*
20,1,$1+$1,$6,$7,$8,$9,0*
20,1,$1+$1,$8,$9,$2,$3,0*%
G04 Aperture macros list end*
%ADD10C,0.150000*%
%ADD11C,0.175000*%
%ADD12C,0.125000*%
%ADD13C,0.100000*%
%ADD14C,0.120000*%
%ADD15C,0.127000*%
%ADD16C,0.200000*%
%ADD17C,0.010000*%
%ADD18RoundRect,0.155000X-0.212500X-0.155000X0.212500X-0.155000X0.212500X0.155000X-0.212500X0.155000X0*%
%ADD19RoundRect,0.102000X0.900000X-0.400000X0.900000X0.400000X-0.900000X0.400000X-0.900000X-0.400000X0*%
%ADD20RoundRect,0.237500X-0.237500X0.300000X-0.237500X-0.300000X0.237500X-0.300000X0.237500X0.300000X0*%
%ADD21C,2.200000*%
%ADD22RoundRect,0.150000X0.587500X0.150000X-0.587500X0.150000X-0.587500X-0.150000X0.587500X-0.150000X0*%
%ADD23RoundRect,0.160000X0.197500X0.160000X-0.197500X0.160000X-0.197500X-0.160000X0.197500X-0.160000X0*%
%ADD24R,1.000000X0.750000*%
%ADD25RoundRect,0.237500X0.300000X0.237500X-0.300000X0.237500X-0.300000X-0.237500X0.300000X-0.237500X0*%
%ADD26R,1.400000X0.300000*%
%ADD27RoundRect,0.155000X0.212500X0.155000X-0.212500X0.155000X-0.212500X-0.155000X0.212500X-0.155000X0*%
%ADD28RoundRect,0.237500X-0.287500X-0.237500X0.287500X-0.237500X0.287500X0.237500X-0.287500X0.237500X0*%
%ADD29C,0.650000*%
%ADD30RoundRect,0.102000X0.570000X-0.300000X0.570000X0.300000X-0.570000X0.300000X-0.570000X-0.300000X0*%
%ADD31RoundRect,0.102000X0.570000X-0.150000X0.570000X0.150000X-0.570000X0.150000X-0.570000X-0.150000X0*%
%ADD32O,2.304000X1.254000*%
%ADD33O,2.004000X1.104000*%
G04 APERTURE END LIST*
D10*
X155000000Y-101000000D02*
X193000000Y-101000000D01*
X155000000Y-117000000D02*
X193000000Y-117000000D01*
D11*
X179687500Y-125700000D02*
G75*
G03*
X179687500Y-125700000I-87500J0D01*
G01*
D10*
X155000000Y-117000000D02*
X155000000Y-101000000D01*
D11*
X175837500Y-121500000D02*
G75*
G03*
X175837500Y-121500000I-87500J0D01*
G01*
D10*
X193000000Y-101000000D02*
X193000000Y-117000000D01*
X186748934Y-101394295D02*
X186748934Y-101965723D01*
X186748934Y-101965723D02*
X186710839Y-102080009D01*
X186710839Y-102080009D02*
X186634648Y-102156200D01*
X186634648Y-102156200D02*
X186520363Y-102194295D01*
X186520363Y-102194295D02*
X186444172Y-102194295D01*
X187510839Y-102194295D02*
X187129887Y-102194295D01*
X187129887Y-102194295D02*
X187129887Y-101394295D01*
X188234649Y-102118104D02*
X188196553Y-102156200D01*
X188196553Y-102156200D02*
X188082268Y-102194295D01*
X188082268Y-102194295D02*
X188006077Y-102194295D01*
X188006077Y-102194295D02*
X187891791Y-102156200D01*
X187891791Y-102156200D02*
X187815601Y-102080009D01*
X187815601Y-102080009D02*
X187777506Y-102003819D01*
X187777506Y-102003819D02*
X187739410Y-101851438D01*
X187739410Y-101851438D02*
X187739410Y-101737152D01*
X187739410Y-101737152D02*
X187777506Y-101584771D01*
X187777506Y-101584771D02*
X187815601Y-101508580D01*
X187815601Y-101508580D02*
X187891791Y-101432390D01*
X187891791Y-101432390D02*
X188006077Y-101394295D01*
X188006077Y-101394295D02*
X188082268Y-101394295D01*
X188082268Y-101394295D02*
X188196553Y-101432390D01*
X188196553Y-101432390D02*
X188234649Y-101470485D01*
X188806077Y-101394295D02*
X188806077Y-101965723D01*
X188806077Y-101965723D02*
X188767982Y-102080009D01*
X188767982Y-102080009D02*
X188691791Y-102156200D01*
X188691791Y-102156200D02*
X188577506Y-102194295D01*
X188577506Y-102194295D02*
X188501315Y-102194295D01*
X189567982Y-102194295D02*
X189187030Y-102194295D01*
X189187030Y-102194295D02*
X189187030Y-101394295D01*
X190291792Y-102118104D02*
X190253696Y-102156200D01*
X190253696Y-102156200D02*
X190139411Y-102194295D01*
X190139411Y-102194295D02*
X190063220Y-102194295D01*
X190063220Y-102194295D02*
X189948934Y-102156200D01*
X189948934Y-102156200D02*
X189872744Y-102080009D01*
X189872744Y-102080009D02*
X189834649Y-102003819D01*
X189834649Y-102003819D02*
X189796553Y-101851438D01*
X189796553Y-101851438D02*
X189796553Y-101737152D01*
X189796553Y-101737152D02*
X189834649Y-101584771D01*
X189834649Y-101584771D02*
X189872744Y-101508580D01*
X189872744Y-101508580D02*
X189948934Y-101432390D01*
X189948934Y-101432390D02*
X190063220Y-101394295D01*
X190063220Y-101394295D02*
X190139411Y-101394295D01*
X190139411Y-101394295D02*
X190253696Y-101432390D01*
X190253696Y-101432390D02*
X190291792Y-101470485D01*
X190863220Y-101394295D02*
X190863220Y-101965723D01*
X190863220Y-101965723D02*
X190825125Y-102080009D01*
X190825125Y-102080009D02*
X190748934Y-102156200D01*
X190748934Y-102156200D02*
X190634649Y-102194295D01*
X190634649Y-102194295D02*
X190558458Y-102194295D01*
X191625125Y-102194295D02*
X191244173Y-102194295D01*
X191244173Y-102194295D02*
X191244173Y-101394295D01*
X192348935Y-102118104D02*
X192310839Y-102156200D01*
X192310839Y-102156200D02*
X192196554Y-102194295D01*
X192196554Y-102194295D02*
X192120363Y-102194295D01*
X192120363Y-102194295D02*
X192006077Y-102156200D01*
X192006077Y-102156200D02*
X191929887Y-102080009D01*
X191929887Y-102080009D02*
X191891792Y-102003819D01*
X191891792Y-102003819D02*
X191853696Y-101851438D01*
X191853696Y-101851438D02*
X191853696Y-101737152D01*
X191853696Y-101737152D02*
X191891792Y-101584771D01*
X191891792Y-101584771D02*
X191929887Y-101508580D01*
X191929887Y-101508580D02*
X192006077Y-101432390D01*
X192006077Y-101432390D02*
X192120363Y-101394295D01*
X192120363Y-101394295D02*
X192196554Y-101394295D01*
X192196554Y-101394295D02*
X192310839Y-101432390D01*
X192310839Y-101432390D02*
X192348935Y-101470485D01*
X153562969Y-99644295D02*
X153753445Y-100444295D01*
X153753445Y-100444295D02*
X153905826Y-99872866D01*
X153905826Y-99872866D02*
X154058207Y-100444295D01*
X154058207Y-100444295D02*
X154248684Y-99644295D01*
X154553446Y-100444295D02*
X154553446Y-99910961D01*
X154553446Y-99644295D02*
X154515350Y-99682390D01*
X154515350Y-99682390D02*
X154553446Y-99720485D01*
X154553446Y-99720485D02*
X154591541Y-99682390D01*
X154591541Y-99682390D02*
X154553446Y-99644295D01*
X154553446Y-99644295D02*
X154553446Y-99720485D01*
X154934398Y-100139533D02*
X155543922Y-100139533D01*
X155886778Y-100406200D02*
X156001064Y-100444295D01*
X156001064Y-100444295D02*
X156191540Y-100444295D01*
X156191540Y-100444295D02*
X156267731Y-100406200D01*
X156267731Y-100406200D02*
X156305826Y-100368104D01*
X156305826Y-100368104D02*
X156343921Y-100291914D01*
X156343921Y-100291914D02*
X156343921Y-100215723D01*
X156343921Y-100215723D02*
X156305826Y-100139533D01*
X156305826Y-100139533D02*
X156267731Y-100101438D01*
X156267731Y-100101438D02*
X156191540Y-100063342D01*
X156191540Y-100063342D02*
X156039159Y-100025247D01*
X156039159Y-100025247D02*
X155962969Y-99987152D01*
X155962969Y-99987152D02*
X155924874Y-99949057D01*
X155924874Y-99949057D02*
X155886778Y-99872866D01*
X155886778Y-99872866D02*
X155886778Y-99796676D01*
X155886778Y-99796676D02*
X155924874Y-99720485D01*
X155924874Y-99720485D02*
X155962969Y-99682390D01*
X155962969Y-99682390D02*
X156039159Y-99644295D01*
X156039159Y-99644295D02*
X156229636Y-99644295D01*
X156229636Y-99644295D02*
X156343921Y-99682390D01*
X156686779Y-99644295D02*
X156686779Y-100291914D01*
X156686779Y-100291914D02*
X156724874Y-100368104D01*
X156724874Y-100368104D02*
X156762969Y-100406200D01*
X156762969Y-100406200D02*
X156839160Y-100444295D01*
X156839160Y-100444295D02*
X156991541Y-100444295D01*
X156991541Y-100444295D02*
X157067731Y-100406200D01*
X157067731Y-100406200D02*
X157105826Y-100368104D01*
X157105826Y-100368104D02*
X157143922Y-100291914D01*
X157143922Y-100291914D02*
X157143922Y-99644295D01*
X157524874Y-100444295D02*
X157524874Y-99644295D01*
X157524874Y-99644295D02*
X157982017Y-100444295D01*
X157982017Y-100444295D02*
X157982017Y-99644295D01*
X158972493Y-99644295D02*
X158972493Y-100291914D01*
X158972493Y-100291914D02*
X159010588Y-100368104D01*
X159010588Y-100368104D02*
X159048683Y-100406200D01*
X159048683Y-100406200D02*
X159124874Y-100444295D01*
X159124874Y-100444295D02*
X159277255Y-100444295D01*
X159277255Y-100444295D02*
X159353445Y-100406200D01*
X159353445Y-100406200D02*
X159391540Y-100368104D01*
X159391540Y-100368104D02*
X159429636Y-100291914D01*
X159429636Y-100291914D02*
X159429636Y-99644295D01*
X159772492Y-100406200D02*
X159886778Y-100444295D01*
X159886778Y-100444295D02*
X160077254Y-100444295D01*
X160077254Y-100444295D02*
X160153445Y-100406200D01*
X160153445Y-100406200D02*
X160191540Y-100368104D01*
X160191540Y-100368104D02*
X160229635Y-100291914D01*
X160229635Y-100291914D02*
X160229635Y-100215723D01*
X160229635Y-100215723D02*
X160191540Y-100139533D01*
X160191540Y-100139533D02*
X160153445Y-100101438D01*
X160153445Y-100101438D02*
X160077254Y-100063342D01*
X160077254Y-100063342D02*
X159924873Y-100025247D01*
X159924873Y-100025247D02*
X159848683Y-99987152D01*
X159848683Y-99987152D02*
X159810588Y-99949057D01*
X159810588Y-99949057D02*
X159772492Y-99872866D01*
X159772492Y-99872866D02*
X159772492Y-99796676D01*
X159772492Y-99796676D02*
X159810588Y-99720485D01*
X159810588Y-99720485D02*
X159848683Y-99682390D01*
X159848683Y-99682390D02*
X159924873Y-99644295D01*
X159924873Y-99644295D02*
X160115350Y-99644295D01*
X160115350Y-99644295D02*
X160229635Y-99682390D01*
X160839159Y-100025247D02*
X160953445Y-100063342D01*
X160953445Y-100063342D02*
X160991540Y-100101438D01*
X160991540Y-100101438D02*
X161029636Y-100177628D01*
X161029636Y-100177628D02*
X161029636Y-100291914D01*
X161029636Y-100291914D02*
X160991540Y-100368104D01*
X160991540Y-100368104D02*
X160953445Y-100406200D01*
X160953445Y-100406200D02*
X160877255Y-100444295D01*
X160877255Y-100444295D02*
X160572493Y-100444295D01*
X160572493Y-100444295D02*
X160572493Y-99644295D01*
X160572493Y-99644295D02*
X160839159Y-99644295D01*
X160839159Y-99644295D02*
X160915350Y-99682390D01*
X160915350Y-99682390D02*
X160953445Y-99720485D01*
X160953445Y-99720485D02*
X160991540Y-99796676D01*
X160991540Y-99796676D02*
X160991540Y-99872866D01*
X160991540Y-99872866D02*
X160953445Y-99949057D01*
X160953445Y-99949057D02*
X160915350Y-99987152D01*
X160915350Y-99987152D02*
X160839159Y-100025247D01*
X160839159Y-100025247D02*
X160572493Y-100025247D01*
X161943921Y-100406200D02*
X162058207Y-100444295D01*
X162058207Y-100444295D02*
X162248683Y-100444295D01*
X162248683Y-100444295D02*
X162324874Y-100406200D01*
X162324874Y-100406200D02*
X162362969Y-100368104D01*
X162362969Y-100368104D02*
X162401064Y-100291914D01*
X162401064Y-100291914D02*
X162401064Y-100215723D01*
X162401064Y-100215723D02*
X162362969Y-100139533D01*
X162362969Y-100139533D02*
X162324874Y-100101438D01*
X162324874Y-100101438D02*
X162248683Y-100063342D01*
X162248683Y-100063342D02*
X162096302Y-100025247D01*
X162096302Y-100025247D02*
X162020112Y-99987152D01*
X162020112Y-99987152D02*
X161982017Y-99949057D01*
X161982017Y-99949057D02*
X161943921Y-99872866D01*
X161943921Y-99872866D02*
X161943921Y-99796676D01*
X161943921Y-99796676D02*
X161982017Y-99720485D01*
X161982017Y-99720485D02*
X162020112Y-99682390D01*
X162020112Y-99682390D02*
X162096302Y-99644295D01*
X162096302Y-99644295D02*
X162286779Y-99644295D01*
X162286779Y-99644295D02*
X162401064Y-99682390D01*
X163048684Y-100406200D02*
X162972493Y-100444295D01*
X162972493Y-100444295D02*
X162820112Y-100444295D01*
X162820112Y-100444295D02*
X162743922Y-100406200D01*
X162743922Y-100406200D02*
X162705826Y-100330009D01*
X162705826Y-100330009D02*
X162705826Y-100025247D01*
X162705826Y-100025247D02*
X162743922Y-99949057D01*
X162743922Y-99949057D02*
X162820112Y-99910961D01*
X162820112Y-99910961D02*
X162972493Y-99910961D01*
X162972493Y-99910961D02*
X163048684Y-99949057D01*
X163048684Y-99949057D02*
X163086779Y-100025247D01*
X163086779Y-100025247D02*
X163086779Y-100101438D01*
X163086779Y-100101438D02*
X162705826Y-100177628D01*
X163429636Y-100444295D02*
X163429636Y-99910961D01*
X163429636Y-100063342D02*
X163467731Y-99987152D01*
X163467731Y-99987152D02*
X163505826Y-99949057D01*
X163505826Y-99949057D02*
X163582017Y-99910961D01*
X163582017Y-99910961D02*
X163658207Y-99910961D01*
X163924874Y-100444295D02*
X163924874Y-99910961D01*
X163924874Y-99644295D02*
X163886778Y-99682390D01*
X163886778Y-99682390D02*
X163924874Y-99720485D01*
X163924874Y-99720485D02*
X163962969Y-99682390D01*
X163962969Y-99682390D02*
X163924874Y-99644295D01*
X163924874Y-99644295D02*
X163924874Y-99720485D01*
X164648683Y-100444295D02*
X164648683Y-100025247D01*
X164648683Y-100025247D02*
X164610588Y-99949057D01*
X164610588Y-99949057D02*
X164534397Y-99910961D01*
X164534397Y-99910961D02*
X164382016Y-99910961D01*
X164382016Y-99910961D02*
X164305826Y-99949057D01*
X164648683Y-100406200D02*
X164572492Y-100444295D01*
X164572492Y-100444295D02*
X164382016Y-100444295D01*
X164382016Y-100444295D02*
X164305826Y-100406200D01*
X164305826Y-100406200D02*
X164267730Y-100330009D01*
X164267730Y-100330009D02*
X164267730Y-100253819D01*
X164267730Y-100253819D02*
X164305826Y-100177628D01*
X164305826Y-100177628D02*
X164382016Y-100139533D01*
X164382016Y-100139533D02*
X164572492Y-100139533D01*
X164572492Y-100139533D02*
X164648683Y-100101438D01*
X165143921Y-100444295D02*
X165067731Y-100406200D01*
X165067731Y-100406200D02*
X165029636Y-100330009D01*
X165029636Y-100330009D02*
X165029636Y-99644295D01*
D12*
X168022712Y-100395595D02*
X168022712Y-99862261D01*
X168022712Y-100014642D02*
X168060807Y-99938452D01*
X168060807Y-99938452D02*
X168098902Y-99900357D01*
X168098902Y-99900357D02*
X168175093Y-99862261D01*
X168175093Y-99862261D02*
X168251283Y-99862261D01*
X168822712Y-100357500D02*
X168746521Y-100395595D01*
X168746521Y-100395595D02*
X168594140Y-100395595D01*
X168594140Y-100395595D02*
X168517950Y-100357500D01*
X168517950Y-100357500D02*
X168479854Y-100281309D01*
X168479854Y-100281309D02*
X168479854Y-99976547D01*
X168479854Y-99976547D02*
X168517950Y-99900357D01*
X168517950Y-99900357D02*
X168594140Y-99862261D01*
X168594140Y-99862261D02*
X168746521Y-99862261D01*
X168746521Y-99862261D02*
X168822712Y-99900357D01*
X168822712Y-99900357D02*
X168860807Y-99976547D01*
X168860807Y-99976547D02*
X168860807Y-100052738D01*
X168860807Y-100052738D02*
X168479854Y-100128928D01*
X169127473Y-99862261D02*
X169317949Y-100395595D01*
X169317949Y-100395595D02*
X169508426Y-99862261D01*
X169813188Y-100319404D02*
X169851283Y-100357500D01*
X169851283Y-100357500D02*
X169813188Y-100395595D01*
X169813188Y-100395595D02*
X169775092Y-100357500D01*
X169775092Y-100357500D02*
X169813188Y-100319404D01*
X169813188Y-100319404D02*
X169813188Y-100395595D01*
X170346521Y-99595595D02*
X170422711Y-99595595D01*
X170422711Y-99595595D02*
X170498902Y-99633690D01*
X170498902Y-99633690D02*
X170536997Y-99671785D01*
X170536997Y-99671785D02*
X170575092Y-99747976D01*
X170575092Y-99747976D02*
X170613187Y-99900357D01*
X170613187Y-99900357D02*
X170613187Y-100090833D01*
X170613187Y-100090833D02*
X170575092Y-100243214D01*
X170575092Y-100243214D02*
X170536997Y-100319404D01*
X170536997Y-100319404D02*
X170498902Y-100357500D01*
X170498902Y-100357500D02*
X170422711Y-100395595D01*
X170422711Y-100395595D02*
X170346521Y-100395595D01*
X170346521Y-100395595D02*
X170270330Y-100357500D01*
X170270330Y-100357500D02*
X170232235Y-100319404D01*
X170232235Y-100319404D02*
X170194140Y-100243214D01*
X170194140Y-100243214D02*
X170156044Y-100090833D01*
X170156044Y-100090833D02*
X170156044Y-99900357D01*
X170156044Y-99900357D02*
X170194140Y-99747976D01*
X170194140Y-99747976D02*
X170232235Y-99671785D01*
X170232235Y-99671785D02*
X170270330Y-99633690D01*
X170270330Y-99633690D02*
X170346521Y-99595595D01*
X170956045Y-100319404D02*
X170994140Y-100357500D01*
X170994140Y-100357500D02*
X170956045Y-100395595D01*
X170956045Y-100395595D02*
X170917949Y-100357500D01*
X170917949Y-100357500D02*
X170956045Y-100319404D01*
X170956045Y-100319404D02*
X170956045Y-100395595D01*
X171756044Y-100395595D02*
X171298901Y-100395595D01*
X171527473Y-100395595D02*
X171527473Y-99595595D01*
X171527473Y-99595595D02*
X171451282Y-99709880D01*
X171451282Y-99709880D02*
X171375092Y-99786071D01*
X171375092Y-99786071D02*
X171298901Y-99824166D01*
X172098902Y-100319404D02*
X172136997Y-100357500D01*
X172136997Y-100357500D02*
X172098902Y-100395595D01*
X172098902Y-100395595D02*
X172060806Y-100357500D01*
X172060806Y-100357500D02*
X172098902Y-100319404D01*
X172098902Y-100319404D02*
X172098902Y-100395595D01*
X172441758Y-99671785D02*
X172479854Y-99633690D01*
X172479854Y-99633690D02*
X172556044Y-99595595D01*
X172556044Y-99595595D02*
X172746520Y-99595595D01*
X172746520Y-99595595D02*
X172822711Y-99633690D01*
X172822711Y-99633690D02*
X172860806Y-99671785D01*
X172860806Y-99671785D02*
X172898901Y-99747976D01*
X172898901Y-99747976D02*
X172898901Y-99824166D01*
X172898901Y-99824166D02*
X172860806Y-99938452D01*
X172860806Y-99938452D02*
X172403663Y-100395595D01*
X172403663Y-100395595D02*
X172898901Y-100395595D01*
X173813187Y-99671785D02*
X173851283Y-99633690D01*
X173851283Y-99633690D02*
X173927473Y-99595595D01*
X173927473Y-99595595D02*
X174117949Y-99595595D01*
X174117949Y-99595595D02*
X174194140Y-99633690D01*
X174194140Y-99633690D02*
X174232235Y-99671785D01*
X174232235Y-99671785D02*
X174270330Y-99747976D01*
X174270330Y-99747976D02*
X174270330Y-99824166D01*
X174270330Y-99824166D02*
X174232235Y-99938452D01*
X174232235Y-99938452D02*
X173775092Y-100395595D01*
X173775092Y-100395595D02*
X174270330Y-100395595D01*
X174956045Y-99862261D02*
X174956045Y-100395595D01*
X174765569Y-99557500D02*
X174575092Y-100128928D01*
X174575092Y-100128928D02*
X175070331Y-100128928D01*
X175946521Y-99557500D02*
X175260807Y-100586071D01*
X176365569Y-99595595D02*
X176441759Y-99595595D01*
X176441759Y-99595595D02*
X176517950Y-99633690D01*
X176517950Y-99633690D02*
X176556045Y-99671785D01*
X176556045Y-99671785D02*
X176594140Y-99747976D01*
X176594140Y-99747976D02*
X176632235Y-99900357D01*
X176632235Y-99900357D02*
X176632235Y-100090833D01*
X176632235Y-100090833D02*
X176594140Y-100243214D01*
X176594140Y-100243214D02*
X176556045Y-100319404D01*
X176556045Y-100319404D02*
X176517950Y-100357500D01*
X176517950Y-100357500D02*
X176441759Y-100395595D01*
X176441759Y-100395595D02*
X176365569Y-100395595D01*
X176365569Y-100395595D02*
X176289378Y-100357500D01*
X176289378Y-100357500D02*
X176251283Y-100319404D01*
X176251283Y-100319404D02*
X176213188Y-100243214D01*
X176213188Y-100243214D02*
X176175092Y-100090833D01*
X176175092Y-100090833D02*
X176175092Y-99900357D01*
X176175092Y-99900357D02*
X176213188Y-99747976D01*
X176213188Y-99747976D02*
X176251283Y-99671785D01*
X176251283Y-99671785D02*
X176289378Y-99633690D01*
X176289378Y-99633690D02*
X176365569Y-99595595D01*
X177317950Y-99862261D02*
X177317950Y-100395595D01*
X177127474Y-99557500D02*
X176936997Y-100128928D01*
X176936997Y-100128928D02*
X177432236Y-100128928D01*
X178308426Y-99557500D02*
X177622712Y-100586071D01*
X178994140Y-100395595D02*
X178536997Y-100395595D01*
X178765569Y-100395595D02*
X178765569Y-99595595D01*
X178765569Y-99595595D02*
X178689378Y-99709880D01*
X178689378Y-99709880D02*
X178613188Y-99786071D01*
X178613188Y-99786071D02*
X178536997Y-99824166D01*
X179260807Y-99595595D02*
X179756045Y-99595595D01*
X179756045Y-99595595D02*
X179489379Y-99900357D01*
X179489379Y-99900357D02*
X179603664Y-99900357D01*
X179603664Y-99900357D02*
X179679855Y-99938452D01*
X179679855Y-99938452D02*
X179717950Y-99976547D01*
X179717950Y-99976547D02*
X179756045Y-100052738D01*
X179756045Y-100052738D02*
X179756045Y-100243214D01*
X179756045Y-100243214D02*
X179717950Y-100319404D01*
X179717950Y-100319404D02*
X179679855Y-100357500D01*
X179679855Y-100357500D02*
X179603664Y-100395595D01*
X179603664Y-100395595D02*
X179375093Y-100395595D01*
X179375093Y-100395595D02*
X179298902Y-100357500D01*
X179298902Y-100357500D02*
X179260807Y-100319404D01*
D10*
X154508207Y-121869819D02*
X154174874Y-121393628D01*
X153936779Y-121869819D02*
X153936779Y-120869819D01*
X153936779Y-120869819D02*
X154317731Y-120869819D01*
X154317731Y-120869819D02*
X154412969Y-120917438D01*
X154412969Y-120917438D02*
X154460588Y-120965057D01*
X154460588Y-120965057D02*
X154508207Y-121060295D01*
X154508207Y-121060295D02*
X154508207Y-121203152D01*
X154508207Y-121203152D02*
X154460588Y-121298390D01*
X154460588Y-121298390D02*
X154412969Y-121346009D01*
X154412969Y-121346009D02*
X154317731Y-121393628D01*
X154317731Y-121393628D02*
X153936779Y-121393628D01*
X155317731Y-121822200D02*
X155222493Y-121869819D01*
X155222493Y-121869819D02*
X155032017Y-121869819D01*
X155032017Y-121869819D02*
X154936779Y-121822200D01*
X154936779Y-121822200D02*
X154889160Y-121726961D01*
X154889160Y-121726961D02*
X154889160Y-121346009D01*
X154889160Y-121346009D02*
X154936779Y-121250771D01*
X154936779Y-121250771D02*
X155032017Y-121203152D01*
X155032017Y-121203152D02*
X155222493Y-121203152D01*
X155222493Y-121203152D02*
X155317731Y-121250771D01*
X155317731Y-121250771D02*
X155365350Y-121346009D01*
X155365350Y-121346009D02*
X155365350Y-121441247D01*
X155365350Y-121441247D02*
X154889160Y-121536485D01*
X155746303Y-121822200D02*
X155841541Y-121869819D01*
X155841541Y-121869819D02*
X156032017Y-121869819D01*
X156032017Y-121869819D02*
X156127255Y-121822200D01*
X156127255Y-121822200D02*
X156174874Y-121726961D01*
X156174874Y-121726961D02*
X156174874Y-121679342D01*
X156174874Y-121679342D02*
X156127255Y-121584104D01*
X156127255Y-121584104D02*
X156032017Y-121536485D01*
X156032017Y-121536485D02*
X155889160Y-121536485D01*
X155889160Y-121536485D02*
X155793922Y-121488866D01*
X155793922Y-121488866D02*
X155746303Y-121393628D01*
X155746303Y-121393628D02*
X155746303Y-121346009D01*
X155746303Y-121346009D02*
X155793922Y-121250771D01*
X155793922Y-121250771D02*
X155889160Y-121203152D01*
X155889160Y-121203152D02*
X156032017Y-121203152D01*
X156032017Y-121203152D02*
X156127255Y-121250771D01*
X156984398Y-121822200D02*
X156889160Y-121869819D01*
X156889160Y-121869819D02*
X156698684Y-121869819D01*
X156698684Y-121869819D02*
X156603446Y-121822200D01*
X156603446Y-121822200D02*
X156555827Y-121726961D01*
X156555827Y-121726961D02*
X156555827Y-121346009D01*
X156555827Y-121346009D02*
X156603446Y-121250771D01*
X156603446Y-121250771D02*
X156698684Y-121203152D01*
X156698684Y-121203152D02*
X156889160Y-121203152D01*
X156889160Y-121203152D02*
X156984398Y-121250771D01*
X156984398Y-121250771D02*
X157032017Y-121346009D01*
X157032017Y-121346009D02*
X157032017Y-121441247D01*
X157032017Y-121441247D02*
X156555827Y-121536485D01*
X157317732Y-121203152D02*
X157698684Y-121203152D01*
X157460589Y-120869819D02*
X157460589Y-121726961D01*
X157460589Y-121726961D02*
X157508208Y-121822200D01*
X157508208Y-121822200D02*
X157603446Y-121869819D01*
X157603446Y-121869819D02*
X157698684Y-121869819D01*
X154589160Y-126884104D02*
X155065350Y-126884104D01*
X154493922Y-127169819D02*
X154827255Y-126169819D01*
X154827255Y-126169819D02*
X155160588Y-127169819D01*
X156065350Y-127074580D02*
X156017731Y-127122200D01*
X156017731Y-127122200D02*
X155874874Y-127169819D01*
X155874874Y-127169819D02*
X155779636Y-127169819D01*
X155779636Y-127169819D02*
X155636779Y-127122200D01*
X155636779Y-127122200D02*
X155541541Y-127026961D01*
X155541541Y-127026961D02*
X155493922Y-126931723D01*
X155493922Y-126931723D02*
X155446303Y-126741247D01*
X155446303Y-126741247D02*
X155446303Y-126598390D01*
X155446303Y-126598390D02*
X155493922Y-126407914D01*
X155493922Y-126407914D02*
X155541541Y-126312676D01*
X155541541Y-126312676D02*
X155636779Y-126217438D01*
X155636779Y-126217438D02*
X155779636Y-126169819D01*
X155779636Y-126169819D02*
X155874874Y-126169819D01*
X155874874Y-126169819D02*
X156017731Y-126217438D01*
X156017731Y-126217438D02*
X156065350Y-126265057D01*
X156351065Y-126169819D02*
X156922493Y-126169819D01*
X156636779Y-127169819D02*
X156636779Y-126169819D01*
X166636779Y-116269819D02*
X166636779Y-115269819D01*
X166636779Y-115269819D02*
X166970112Y-115984104D01*
X166970112Y-115984104D02*
X167303445Y-115269819D01*
X167303445Y-115269819D02*
X167303445Y-116269819D01*
X168112969Y-115746009D02*
X168255826Y-115793628D01*
X168255826Y-115793628D02*
X168303445Y-115841247D01*
X168303445Y-115841247D02*
X168351064Y-115936485D01*
X168351064Y-115936485D02*
X168351064Y-116079342D01*
X168351064Y-116079342D02*
X168303445Y-116174580D01*
X168303445Y-116174580D02*
X168255826Y-116222200D01*
X168255826Y-116222200D02*
X168160588Y-116269819D01*
X168160588Y-116269819D02*
X167779636Y-116269819D01*
X167779636Y-116269819D02*
X167779636Y-115269819D01*
X167779636Y-115269819D02*
X168112969Y-115269819D01*
X168112969Y-115269819D02*
X168208207Y-115317438D01*
X168208207Y-115317438D02*
X168255826Y-115365057D01*
X168255826Y-115365057D02*
X168303445Y-115460295D01*
X168303445Y-115460295D02*
X168303445Y-115555533D01*
X168303445Y-115555533D02*
X168255826Y-115650771D01*
X168255826Y-115650771D02*
X168208207Y-115698390D01*
X168208207Y-115698390D02*
X168112969Y-115746009D01*
X168112969Y-115746009D02*
X167779636Y-115746009D01*
X168779636Y-115888866D02*
X169541541Y-115888866D01*
X170589159Y-116269819D02*
X170255826Y-115793628D01*
X170017731Y-116269819D02*
X170017731Y-115269819D01*
X170017731Y-115269819D02*
X170398683Y-115269819D01*
X170398683Y-115269819D02*
X170493921Y-115317438D01*
X170493921Y-115317438D02*
X170541540Y-115365057D01*
X170541540Y-115365057D02*
X170589159Y-115460295D01*
X170589159Y-115460295D02*
X170589159Y-115603152D01*
X170589159Y-115603152D02*
X170541540Y-115698390D01*
X170541540Y-115698390D02*
X170493921Y-115746009D01*
X170493921Y-115746009D02*
X170398683Y-115793628D01*
X170398683Y-115793628D02*
X170017731Y-115793628D01*
X171493921Y-116269819D02*
X171017731Y-116269819D01*
X171017731Y-116269819D02*
X171017731Y-115269819D01*
X171732017Y-115269819D02*
X172398683Y-115269819D01*
X172398683Y-115269819D02*
X171970112Y-116269819D01*
X172970112Y-115269819D02*
X173065350Y-115269819D01*
X173065350Y-115269819D02*
X173160588Y-115317438D01*
X173160588Y-115317438D02*
X173208207Y-115365057D01*
X173208207Y-115365057D02*
X173255826Y-115460295D01*
X173255826Y-115460295D02*
X173303445Y-115650771D01*
X173303445Y-115650771D02*
X173303445Y-115888866D01*
X173303445Y-115888866D02*
X173255826Y-116079342D01*
X173255826Y-116079342D02*
X173208207Y-116174580D01*
X173208207Y-116174580D02*
X173160588Y-116222200D01*
X173160588Y-116222200D02*
X173065350Y-116269819D01*
X173065350Y-116269819D02*
X172970112Y-116269819D01*
X172970112Y-116269819D02*
X172874874Y-116222200D01*
X172874874Y-116222200D02*
X172827255Y-116174580D01*
X172827255Y-116174580D02*
X172779636Y-116079342D01*
X172779636Y-116079342D02*
X172732017Y-115888866D01*
X172732017Y-115888866D02*
X172732017Y-115650771D01*
X172732017Y-115650771D02*
X172779636Y-115460295D01*
X172779636Y-115460295D02*
X172827255Y-115365057D01*
X172827255Y-115365057D02*
X172874874Y-115317438D01*
X172874874Y-115317438D02*
X172970112Y-115269819D01*
X173684398Y-115365057D02*
X173732017Y-115317438D01*
X173732017Y-115317438D02*
X173827255Y-115269819D01*
X173827255Y-115269819D02*
X174065350Y-115269819D01*
X174065350Y-115269819D02*
X174160588Y-115317438D01*
X174160588Y-115317438D02*
X174208207Y-115365057D01*
X174208207Y-115365057D02*
X174255826Y-115460295D01*
X174255826Y-115460295D02*
X174255826Y-115555533D01*
X174255826Y-115555533D02*
X174208207Y-115698390D01*
X174208207Y-115698390D02*
X173636779Y-116269819D01*
X173636779Y-116269819D02*
X174255826Y-116269819D01*
X174589160Y-115269819D02*
X175208207Y-115269819D01*
X175208207Y-115269819D02*
X174874874Y-115650771D01*
X174874874Y-115650771D02*
X175017731Y-115650771D01*
X175017731Y-115650771D02*
X175112969Y-115698390D01*
X175112969Y-115698390D02*
X175160588Y-115746009D01*
X175160588Y-115746009D02*
X175208207Y-115841247D01*
X175208207Y-115841247D02*
X175208207Y-116079342D01*
X175208207Y-116079342D02*
X175160588Y-116174580D01*
X175160588Y-116174580D02*
X175112969Y-116222200D01*
X175112969Y-116222200D02*
X175017731Y-116269819D01*
X175017731Y-116269819D02*
X174732017Y-116269819D01*
X174732017Y-116269819D02*
X174636779Y-116222200D01*
X174636779Y-116222200D02*
X174589160Y-116174580D01*
X175636779Y-115888866D02*
X176398684Y-115888866D01*
X177398683Y-116269819D02*
X176827255Y-116269819D01*
X177112969Y-116269819D02*
X177112969Y-115269819D01*
X177112969Y-115269819D02*
X177017731Y-115412676D01*
X177017731Y-115412676D02*
X176922493Y-115507914D01*
X176922493Y-115507914D02*
X176827255Y-115555533D01*
X178351064Y-116269819D02*
X177779636Y-116269819D01*
X178065350Y-116269819D02*
X178065350Y-115269819D01*
X178065350Y-115269819D02*
X177970112Y-115412676D01*
X177970112Y-115412676D02*
X177874874Y-115507914D01*
X177874874Y-115507914D02*
X177779636Y-115555533D01*
X179493921Y-115222200D02*
X178636779Y-116507914D01*
X179827255Y-116269819D02*
X179827255Y-115269819D01*
X179827255Y-115269819D02*
X180065350Y-115269819D01*
X180065350Y-115269819D02*
X180208207Y-115317438D01*
X180208207Y-115317438D02*
X180303445Y-115412676D01*
X180303445Y-115412676D02*
X180351064Y-115507914D01*
X180351064Y-115507914D02*
X180398683Y-115698390D01*
X180398683Y-115698390D02*
X180398683Y-115841247D01*
X180398683Y-115841247D02*
X180351064Y-116031723D01*
X180351064Y-116031723D02*
X180303445Y-116126961D01*
X180303445Y-116126961D02*
X180208207Y-116222200D01*
X180208207Y-116222200D02*
X180065350Y-116269819D01*
X180065350Y-116269819D02*
X179827255Y-116269819D01*
X180779636Y-116222200D02*
X180922493Y-116269819D01*
X180922493Y-116269819D02*
X181160588Y-116269819D01*
X181160588Y-116269819D02*
X181255826Y-116222200D01*
X181255826Y-116222200D02*
X181303445Y-116174580D01*
X181303445Y-116174580D02*
X181351064Y-116079342D01*
X181351064Y-116079342D02*
X181351064Y-115984104D01*
X181351064Y-115984104D02*
X181303445Y-115888866D01*
X181303445Y-115888866D02*
X181255826Y-115841247D01*
X181255826Y-115841247D02*
X181160588Y-115793628D01*
X181160588Y-115793628D02*
X180970112Y-115746009D01*
X180970112Y-115746009D02*
X180874874Y-115698390D01*
X180874874Y-115698390D02*
X180827255Y-115650771D01*
X180827255Y-115650771D02*
X180779636Y-115555533D01*
X180779636Y-115555533D02*
X180779636Y-115460295D01*
X180779636Y-115460295D02*
X180827255Y-115365057D01*
X180827255Y-115365057D02*
X180874874Y-115317438D01*
X180874874Y-115317438D02*
X180970112Y-115269819D01*
X180970112Y-115269819D02*
X181208207Y-115269819D01*
X181208207Y-115269819D02*
X181351064Y-115317438D01*
X181732017Y-116222200D02*
X181874874Y-116269819D01*
X181874874Y-116269819D02*
X182112969Y-116269819D01*
X182112969Y-116269819D02*
X182208207Y-116222200D01*
X182208207Y-116222200D02*
X182255826Y-116174580D01*
X182255826Y-116174580D02*
X182303445Y-116079342D01*
X182303445Y-116079342D02*
X182303445Y-115984104D01*
X182303445Y-115984104D02*
X182255826Y-115888866D01*
X182255826Y-115888866D02*
X182208207Y-115841247D01*
X182208207Y-115841247D02*
X182112969Y-115793628D01*
X182112969Y-115793628D02*
X181922493Y-115746009D01*
X181922493Y-115746009D02*
X181827255Y-115698390D01*
X181827255Y-115698390D02*
X181779636Y-115650771D01*
X181779636Y-115650771D02*
X181732017Y-115555533D01*
X181732017Y-115555533D02*
X181732017Y-115460295D01*
X181732017Y-115460295D02*
X181779636Y-115365057D01*
X181779636Y-115365057D02*
X181827255Y-115317438D01*
X181827255Y-115317438D02*
X181922493Y-115269819D01*
X181922493Y-115269819D02*
X182160588Y-115269819D01*
X182160588Y-115269819D02*
X182303445Y-115317438D01*
X176833333Y-119609580D02*
X176785714Y-119657200D01*
X176785714Y-119657200D02*
X176642857Y-119704819D01*
X176642857Y-119704819D02*
X176547619Y-119704819D01*
X176547619Y-119704819D02*
X176404762Y-119657200D01*
X176404762Y-119657200D02*
X176309524Y-119561961D01*
X176309524Y-119561961D02*
X176261905Y-119466723D01*
X176261905Y-119466723D02*
X176214286Y-119276247D01*
X176214286Y-119276247D02*
X176214286Y-119133390D01*
X176214286Y-119133390D02*
X176261905Y-118942914D01*
X176261905Y-118942914D02*
X176309524Y-118847676D01*
X176309524Y-118847676D02*
X176404762Y-118752438D01*
X176404762Y-118752438D02*
X176547619Y-118704819D01*
X176547619Y-118704819D02*
X176642857Y-118704819D01*
X176642857Y-118704819D02*
X176785714Y-118752438D01*
X176785714Y-118752438D02*
X176833333Y-118800057D01*
X177214286Y-118800057D02*
X177261905Y-118752438D01*
X177261905Y-118752438D02*
X177357143Y-118704819D01*
X177357143Y-118704819D02*
X177595238Y-118704819D01*
X177595238Y-118704819D02*
X177690476Y-118752438D01*
X177690476Y-118752438D02*
X177738095Y-118800057D01*
X177738095Y-118800057D02*
X177785714Y-118895295D01*
X177785714Y-118895295D02*
X177785714Y-118990533D01*
X177785714Y-118990533D02*
X177738095Y-119133390D01*
X177738095Y-119133390D02*
X177166667Y-119704819D01*
X177166667Y-119704819D02*
X177785714Y-119704819D01*
X188616666Y-113904819D02*
X188616666Y-114619104D01*
X188616666Y-114619104D02*
X188569047Y-114761961D01*
X188569047Y-114761961D02*
X188473809Y-114857200D01*
X188473809Y-114857200D02*
X188330952Y-114904819D01*
X188330952Y-114904819D02*
X188235714Y-114904819D01*
X189616666Y-114904819D02*
X189045238Y-114904819D01*
X189330952Y-114904819D02*
X189330952Y-113904819D01*
X189330952Y-113904819D02*
X189235714Y-114047676D01*
X189235714Y-114047676D02*
X189140476Y-114142914D01*
X189140476Y-114142914D02*
X189045238Y-114190533D01*
D13*
X190456265Y-112767657D02*
X190503884Y-112720038D01*
X190503884Y-112720038D02*
X190599122Y-112672419D01*
X190599122Y-112672419D02*
X190837217Y-112672419D01*
X190837217Y-112672419D02*
X190932455Y-112720038D01*
X190932455Y-112720038D02*
X190980074Y-112767657D01*
X190980074Y-112767657D02*
X191027693Y-112862895D01*
X191027693Y-112862895D02*
X191027693Y-112958133D01*
X191027693Y-112958133D02*
X190980074Y-113100990D01*
X190980074Y-113100990D02*
X190408646Y-113672419D01*
X190408646Y-113672419D02*
X191027693Y-113672419D01*
X191646741Y-112672419D02*
X191741979Y-112672419D01*
X191741979Y-112672419D02*
X191837217Y-112720038D01*
X191837217Y-112720038D02*
X191884836Y-112767657D01*
X191884836Y-112767657D02*
X191932455Y-112862895D01*
X191932455Y-112862895D02*
X191980074Y-113053371D01*
X191980074Y-113053371D02*
X191980074Y-113291466D01*
X191980074Y-113291466D02*
X191932455Y-113481942D01*
X191932455Y-113481942D02*
X191884836Y-113577180D01*
X191884836Y-113577180D02*
X191837217Y-113624800D01*
X191837217Y-113624800D02*
X191741979Y-113672419D01*
X191741979Y-113672419D02*
X191646741Y-113672419D01*
X191646741Y-113672419D02*
X191551503Y-113624800D01*
X191551503Y-113624800D02*
X191503884Y-113577180D01*
X191503884Y-113577180D02*
X191456265Y-113481942D01*
X191456265Y-113481942D02*
X191408646Y-113291466D01*
X191408646Y-113291466D02*
X191408646Y-113053371D01*
X191408646Y-113053371D02*
X191456265Y-112862895D01*
X191456265Y-112862895D02*
X191503884Y-112767657D01*
X191503884Y-112767657D02*
X191551503Y-112720038D01*
X191551503Y-112720038D02*
X191646741Y-112672419D01*
X187227693Y-105272419D02*
X186656265Y-105272419D01*
X186941979Y-105272419D02*
X186941979Y-104272419D01*
X186941979Y-104272419D02*
X186846741Y-104415276D01*
X186846741Y-104415276D02*
X186751503Y-104510514D01*
X186751503Y-104510514D02*
X186656265Y-104558133D01*
X186627693Y-113672419D02*
X186056265Y-113672419D01*
X186341979Y-113672419D02*
X186341979Y-112672419D01*
X186341979Y-112672419D02*
X186246741Y-112815276D01*
X186246741Y-112815276D02*
X186151503Y-112910514D01*
X186151503Y-112910514D02*
X186056265Y-112958133D01*
X187103884Y-113672419D02*
X187294360Y-113672419D01*
X187294360Y-113672419D02*
X187389598Y-113624800D01*
X187389598Y-113624800D02*
X187437217Y-113577180D01*
X187437217Y-113577180D02*
X187532455Y-113434323D01*
X187532455Y-113434323D02*
X187580074Y-113243847D01*
X187580074Y-113243847D02*
X187580074Y-112862895D01*
X187580074Y-112862895D02*
X187532455Y-112767657D01*
X187532455Y-112767657D02*
X187484836Y-112720038D01*
X187484836Y-112720038D02*
X187389598Y-112672419D01*
X187389598Y-112672419D02*
X187199122Y-112672419D01*
X187199122Y-112672419D02*
X187103884Y-112720038D01*
X187103884Y-112720038D02*
X187056265Y-112767657D01*
X187056265Y-112767657D02*
X187008646Y-112862895D01*
X187008646Y-112862895D02*
X187008646Y-113100990D01*
X187008646Y-113100990D02*
X187056265Y-113196228D01*
X187056265Y-113196228D02*
X187103884Y-113243847D01*
X187103884Y-113243847D02*
X187199122Y-113291466D01*
X187199122Y-113291466D02*
X187389598Y-113291466D01*
X187389598Y-113291466D02*
X187484836Y-113243847D01*
X187484836Y-113243847D02*
X187532455Y-113196228D01*
X187532455Y-113196228D02*
X187580074Y-113100990D01*
X190766265Y-104417657D02*
X190813884Y-104370038D01*
X190813884Y-104370038D02*
X190909122Y-104322419D01*
X190909122Y-104322419D02*
X191147217Y-104322419D01*
X191147217Y-104322419D02*
X191242455Y-104370038D01*
X191242455Y-104370038D02*
X191290074Y-104417657D01*
X191290074Y-104417657D02*
X191337693Y-104512895D01*
X191337693Y-104512895D02*
X191337693Y-104608133D01*
X191337693Y-104608133D02*
X191290074Y-104750990D01*
X191290074Y-104750990D02*
X190718646Y-105322419D01*
X190718646Y-105322419D02*
X191337693Y-105322419D01*
D10*
X181633333Y-122109580D02*
X181585714Y-122157200D01*
X181585714Y-122157200D02*
X181442857Y-122204819D01*
X181442857Y-122204819D02*
X181347619Y-122204819D01*
X181347619Y-122204819D02*
X181204762Y-122157200D01*
X181204762Y-122157200D02*
X181109524Y-122061961D01*
X181109524Y-122061961D02*
X181061905Y-121966723D01*
X181061905Y-121966723D02*
X181014286Y-121776247D01*
X181014286Y-121776247D02*
X181014286Y-121633390D01*
X181014286Y-121633390D02*
X181061905Y-121442914D01*
X181061905Y-121442914D02*
X181109524Y-121347676D01*
X181109524Y-121347676D02*
X181204762Y-121252438D01*
X181204762Y-121252438D02*
X181347619Y-121204819D01*
X181347619Y-121204819D02*
X181442857Y-121204819D01*
X181442857Y-121204819D02*
X181585714Y-121252438D01*
X181585714Y-121252438D02*
X181633333Y-121300057D01*
X182585714Y-122204819D02*
X182014286Y-122204819D01*
X182300000Y-122204819D02*
X182300000Y-121204819D01*
X182300000Y-121204819D02*
X182204762Y-121347676D01*
X182204762Y-121347676D02*
X182109524Y-121442914D01*
X182109524Y-121442914D02*
X182014286Y-121490533D01*
X173275595Y-121154819D02*
X173275595Y-121964342D01*
X173275595Y-121964342D02*
X173323214Y-122059580D01*
X173323214Y-122059580D02*
X173370833Y-122107200D01*
X173370833Y-122107200D02*
X173466071Y-122154819D01*
X173466071Y-122154819D02*
X173656547Y-122154819D01*
X173656547Y-122154819D02*
X173751785Y-122107200D01*
X173751785Y-122107200D02*
X173799404Y-122059580D01*
X173799404Y-122059580D02*
X173847023Y-121964342D01*
X173847023Y-121964342D02*
X173847023Y-121154819D01*
X174847023Y-122154819D02*
X174275595Y-122154819D01*
X174561309Y-122154819D02*
X174561309Y-121154819D01*
X174561309Y-121154819D02*
X174466071Y-121297676D01*
X174466071Y-121297676D02*
X174370833Y-121392914D01*
X174370833Y-121392914D02*
X174275595Y-121440533D01*
X184833333Y-122754819D02*
X184500000Y-122278628D01*
X184261905Y-122754819D02*
X184261905Y-121754819D01*
X184261905Y-121754819D02*
X184642857Y-121754819D01*
X184642857Y-121754819D02*
X184738095Y-121802438D01*
X184738095Y-121802438D02*
X184785714Y-121850057D01*
X184785714Y-121850057D02*
X184833333Y-121945295D01*
X184833333Y-121945295D02*
X184833333Y-122088152D01*
X184833333Y-122088152D02*
X184785714Y-122183390D01*
X184785714Y-122183390D02*
X184738095Y-122231009D01*
X184738095Y-122231009D02*
X184642857Y-122278628D01*
X184642857Y-122278628D02*
X184261905Y-122278628D01*
X185214286Y-121850057D02*
X185261905Y-121802438D01*
X185261905Y-121802438D02*
X185357143Y-121754819D01*
X185357143Y-121754819D02*
X185595238Y-121754819D01*
X185595238Y-121754819D02*
X185690476Y-121802438D01*
X185690476Y-121802438D02*
X185738095Y-121850057D01*
X185738095Y-121850057D02*
X185785714Y-121945295D01*
X185785714Y-121945295D02*
X185785714Y-122040533D01*
X185785714Y-122040533D02*
X185738095Y-122183390D01*
X185738095Y-122183390D02*
X185166667Y-122754819D01*
X185166667Y-122754819D02*
X185785714Y-122754819D01*
X160466667Y-125707200D02*
X160609524Y-125754819D01*
X160609524Y-125754819D02*
X160847619Y-125754819D01*
X160847619Y-125754819D02*
X160942857Y-125707200D01*
X160942857Y-125707200D02*
X160990476Y-125659580D01*
X160990476Y-125659580D02*
X161038095Y-125564342D01*
X161038095Y-125564342D02*
X161038095Y-125469104D01*
X161038095Y-125469104D02*
X160990476Y-125373866D01*
X160990476Y-125373866D02*
X160942857Y-125326247D01*
X160942857Y-125326247D02*
X160847619Y-125278628D01*
X160847619Y-125278628D02*
X160657143Y-125231009D01*
X160657143Y-125231009D02*
X160561905Y-125183390D01*
X160561905Y-125183390D02*
X160514286Y-125135771D01*
X160514286Y-125135771D02*
X160466667Y-125040533D01*
X160466667Y-125040533D02*
X160466667Y-124945295D01*
X160466667Y-124945295D02*
X160514286Y-124850057D01*
X160514286Y-124850057D02*
X160561905Y-124802438D01*
X160561905Y-124802438D02*
X160657143Y-124754819D01*
X160657143Y-124754819D02*
X160895238Y-124754819D01*
X160895238Y-124754819D02*
X161038095Y-124802438D01*
X161371429Y-124754819D02*
X161609524Y-125754819D01*
X161609524Y-125754819D02*
X161800000Y-125040533D01*
X161800000Y-125040533D02*
X161990476Y-125754819D01*
X161990476Y-125754819D02*
X162228572Y-124754819D01*
X163133333Y-125754819D02*
X162561905Y-125754819D01*
X162847619Y-125754819D02*
X162847619Y-124754819D01*
X162847619Y-124754819D02*
X162752381Y-124897676D01*
X162752381Y-124897676D02*
X162657143Y-124992914D01*
X162657143Y-124992914D02*
X162561905Y-125040533D01*
X164083333Y-128704819D02*
X163750000Y-128228628D01*
X163511905Y-128704819D02*
X163511905Y-127704819D01*
X163511905Y-127704819D02*
X163892857Y-127704819D01*
X163892857Y-127704819D02*
X163988095Y-127752438D01*
X163988095Y-127752438D02*
X164035714Y-127800057D01*
X164035714Y-127800057D02*
X164083333Y-127895295D01*
X164083333Y-127895295D02*
X164083333Y-128038152D01*
X164083333Y-128038152D02*
X164035714Y-128133390D01*
X164035714Y-128133390D02*
X163988095Y-128181009D01*
X163988095Y-128181009D02*
X163892857Y-128228628D01*
X163892857Y-128228628D02*
X163511905Y-128228628D01*
X165035714Y-128704819D02*
X164464286Y-128704819D01*
X164750000Y-128704819D02*
X164750000Y-127704819D01*
X164750000Y-127704819D02*
X164654762Y-127847676D01*
X164654762Y-127847676D02*
X164559524Y-127942914D01*
X164559524Y-127942914D02*
X164464286Y-127990533D01*
X184004166Y-119861009D02*
X183670833Y-119861009D01*
X183670833Y-120384819D02*
X183670833Y-119384819D01*
X183670833Y-119384819D02*
X184147023Y-119384819D01*
X185051785Y-120384819D02*
X184480357Y-120384819D01*
X184766071Y-120384819D02*
X184766071Y-119384819D01*
X184766071Y-119384819D02*
X184670833Y-119527676D01*
X184670833Y-119527676D02*
X184575595Y-119622914D01*
X184575595Y-119622914D02*
X184480357Y-119670533D01*
X176988095Y-125704819D02*
X176988095Y-126514342D01*
X176988095Y-126514342D02*
X177035714Y-126609580D01*
X177035714Y-126609580D02*
X177083333Y-126657200D01*
X177083333Y-126657200D02*
X177178571Y-126704819D01*
X177178571Y-126704819D02*
X177369047Y-126704819D01*
X177369047Y-126704819D02*
X177464285Y-126657200D01*
X177464285Y-126657200D02*
X177511904Y-126609580D01*
X177511904Y-126609580D02*
X177559523Y-126514342D01*
X177559523Y-126514342D02*
X177559523Y-125704819D01*
X177988095Y-125800057D02*
X178035714Y-125752438D01*
X178035714Y-125752438D02*
X178130952Y-125704819D01*
X178130952Y-125704819D02*
X178369047Y-125704819D01*
X178369047Y-125704819D02*
X178464285Y-125752438D01*
X178464285Y-125752438D02*
X178511904Y-125800057D01*
X178511904Y-125800057D02*
X178559523Y-125895295D01*
X178559523Y-125895295D02*
X178559523Y-125990533D01*
X178559523Y-125990533D02*
X178511904Y-126133390D01*
X178511904Y-126133390D02*
X177940476Y-126704819D01*
X177940476Y-126704819D02*
X178559523Y-126704819D01*
X170583333Y-123359580D02*
X170535714Y-123407200D01*
X170535714Y-123407200D02*
X170392857Y-123454819D01*
X170392857Y-123454819D02*
X170297619Y-123454819D01*
X170297619Y-123454819D02*
X170154762Y-123407200D01*
X170154762Y-123407200D02*
X170059524Y-123311961D01*
X170059524Y-123311961D02*
X170011905Y-123216723D01*
X170011905Y-123216723D02*
X169964286Y-123026247D01*
X169964286Y-123026247D02*
X169964286Y-122883390D01*
X169964286Y-122883390D02*
X170011905Y-122692914D01*
X170011905Y-122692914D02*
X170059524Y-122597676D01*
X170059524Y-122597676D02*
X170154762Y-122502438D01*
X170154762Y-122502438D02*
X170297619Y-122454819D01*
X170297619Y-122454819D02*
X170392857Y-122454819D01*
X170392857Y-122454819D02*
X170535714Y-122502438D01*
X170535714Y-122502438D02*
X170583333Y-122550057D01*
X170916667Y-122454819D02*
X171535714Y-122454819D01*
X171535714Y-122454819D02*
X171202381Y-122835771D01*
X171202381Y-122835771D02*
X171345238Y-122835771D01*
X171345238Y-122835771D02*
X171440476Y-122883390D01*
X171440476Y-122883390D02*
X171488095Y-122931009D01*
X171488095Y-122931009D02*
X171535714Y-123026247D01*
X171535714Y-123026247D02*
X171535714Y-123264342D01*
X171535714Y-123264342D02*
X171488095Y-123359580D01*
X171488095Y-123359580D02*
X171440476Y-123407200D01*
X171440476Y-123407200D02*
X171345238Y-123454819D01*
X171345238Y-123454819D02*
X171059524Y-123454819D01*
X171059524Y-123454819D02*
X170964286Y-123407200D01*
X170964286Y-123407200D02*
X170916667Y-123359580D01*
X176833333Y-121709580D02*
X176785714Y-121757200D01*
X176785714Y-121757200D02*
X176642857Y-121804819D01*
X176642857Y-121804819D02*
X176547619Y-121804819D01*
X176547619Y-121804819D02*
X176404762Y-121757200D01*
X176404762Y-121757200D02*
X176309524Y-121661961D01*
X176309524Y-121661961D02*
X176261905Y-121566723D01*
X176261905Y-121566723D02*
X176214286Y-121376247D01*
X176214286Y-121376247D02*
X176214286Y-121233390D01*
X176214286Y-121233390D02*
X176261905Y-121042914D01*
X176261905Y-121042914D02*
X176309524Y-120947676D01*
X176309524Y-120947676D02*
X176404762Y-120852438D01*
X176404762Y-120852438D02*
X176547619Y-120804819D01*
X176547619Y-120804819D02*
X176642857Y-120804819D01*
X176642857Y-120804819D02*
X176785714Y-120852438D01*
X176785714Y-120852438D02*
X176833333Y-120900057D01*
X177690476Y-121138152D02*
X177690476Y-121804819D01*
X177452381Y-120757200D02*
X177214286Y-121471485D01*
X177214286Y-121471485D02*
X177833333Y-121471485D01*
X170583333Y-125109580D02*
X170535714Y-125157200D01*
X170535714Y-125157200D02*
X170392857Y-125204819D01*
X170392857Y-125204819D02*
X170297619Y-125204819D01*
X170297619Y-125204819D02*
X170154762Y-125157200D01*
X170154762Y-125157200D02*
X170059524Y-125061961D01*
X170059524Y-125061961D02*
X170011905Y-124966723D01*
X170011905Y-124966723D02*
X169964286Y-124776247D01*
X169964286Y-124776247D02*
X169964286Y-124633390D01*
X169964286Y-124633390D02*
X170011905Y-124442914D01*
X170011905Y-124442914D02*
X170059524Y-124347676D01*
X170059524Y-124347676D02*
X170154762Y-124252438D01*
X170154762Y-124252438D02*
X170297619Y-124204819D01*
X170297619Y-124204819D02*
X170392857Y-124204819D01*
X170392857Y-124204819D02*
X170535714Y-124252438D01*
X170535714Y-124252438D02*
X170583333Y-124300057D01*
X171488095Y-124204819D02*
X171011905Y-124204819D01*
X171011905Y-124204819D02*
X170964286Y-124681009D01*
X170964286Y-124681009D02*
X171011905Y-124633390D01*
X171011905Y-124633390D02*
X171107143Y-124585771D01*
X171107143Y-124585771D02*
X171345238Y-124585771D01*
X171345238Y-124585771D02*
X171440476Y-124633390D01*
X171440476Y-124633390D02*
X171488095Y-124681009D01*
X171488095Y-124681009D02*
X171535714Y-124776247D01*
X171535714Y-124776247D02*
X171535714Y-125014342D01*
X171535714Y-125014342D02*
X171488095Y-125109580D01*
X171488095Y-125109580D02*
X171440476Y-125157200D01*
X171440476Y-125157200D02*
X171345238Y-125204819D01*
X171345238Y-125204819D02*
X171107143Y-125204819D01*
X171107143Y-125204819D02*
X171011905Y-125157200D01*
X171011905Y-125157200D02*
X170964286Y-125109580D01*
X184833333Y-127354819D02*
X184500000Y-126878628D01*
X184261905Y-127354819D02*
X184261905Y-126354819D01*
X184261905Y-126354819D02*
X184642857Y-126354819D01*
X184642857Y-126354819D02*
X184738095Y-126402438D01*
X184738095Y-126402438D02*
X184785714Y-126450057D01*
X184785714Y-126450057D02*
X184833333Y-126545295D01*
X184833333Y-126545295D02*
X184833333Y-126688152D01*
X184833333Y-126688152D02*
X184785714Y-126783390D01*
X184785714Y-126783390D02*
X184738095Y-126831009D01*
X184738095Y-126831009D02*
X184642857Y-126878628D01*
X184642857Y-126878628D02*
X184261905Y-126878628D01*
X185166667Y-126354819D02*
X185785714Y-126354819D01*
X185785714Y-126354819D02*
X185452381Y-126735771D01*
X185452381Y-126735771D02*
X185595238Y-126735771D01*
X185595238Y-126735771D02*
X185690476Y-126783390D01*
X185690476Y-126783390D02*
X185738095Y-126831009D01*
X185738095Y-126831009D02*
X185785714Y-126926247D01*
X185785714Y-126926247D02*
X185785714Y-127164342D01*
X185785714Y-127164342D02*
X185738095Y-127259580D01*
X185738095Y-127259580D02*
X185690476Y-127307200D01*
X185690476Y-127307200D02*
X185595238Y-127354819D01*
X185595238Y-127354819D02*
X185309524Y-127354819D01*
X185309524Y-127354819D02*
X185214286Y-127307200D01*
X185214286Y-127307200D02*
X185166667Y-127259580D01*
X158261905Y-128704819D02*
X158261905Y-127704819D01*
X158261905Y-127704819D02*
X158500000Y-127704819D01*
X158500000Y-127704819D02*
X158642857Y-127752438D01*
X158642857Y-127752438D02*
X158738095Y-127847676D01*
X158738095Y-127847676D02*
X158785714Y-127942914D01*
X158785714Y-127942914D02*
X158833333Y-128133390D01*
X158833333Y-128133390D02*
X158833333Y-128276247D01*
X158833333Y-128276247D02*
X158785714Y-128466723D01*
X158785714Y-128466723D02*
X158738095Y-128561961D01*
X158738095Y-128561961D02*
X158642857Y-128657200D01*
X158642857Y-128657200D02*
X158500000Y-128704819D01*
X158500000Y-128704819D02*
X158261905Y-128704819D01*
X159785714Y-128704819D02*
X159214286Y-128704819D01*
X159500000Y-128704819D02*
X159500000Y-127704819D01*
X159500000Y-127704819D02*
X159404762Y-127847676D01*
X159404762Y-127847676D02*
X159309524Y-127942914D01*
X159309524Y-127942914D02*
X159214286Y-127990533D01*
X157292856Y-110002771D02*
X157216665Y-109964676D01*
X157216665Y-109964676D02*
X157064284Y-109964676D01*
X157064284Y-109964676D02*
X156988094Y-110002771D01*
X156988094Y-110002771D02*
X156911903Y-110078961D01*
X156911903Y-110078961D02*
X156873808Y-110155152D01*
X156873808Y-110155152D02*
X156873808Y-110307533D01*
X156873808Y-110307533D02*
X156911903Y-110383723D01*
X156911903Y-110383723D02*
X156988094Y-110459914D01*
X156988094Y-110459914D02*
X157064284Y-110498009D01*
X157064284Y-110498009D02*
X157216665Y-110498009D01*
X157216665Y-110498009D02*
X157292856Y-110459914D01*
X157140475Y-109698009D02*
X156949999Y-109736104D01*
X156949999Y-109736104D02*
X156759522Y-109850390D01*
X156759522Y-109850390D02*
X156645237Y-110040866D01*
X156645237Y-110040866D02*
X156607141Y-110231342D01*
X156607141Y-110231342D02*
X156645237Y-110421819D01*
X156645237Y-110421819D02*
X156759522Y-110612295D01*
X156759522Y-110612295D02*
X156949999Y-110726580D01*
X156949999Y-110726580D02*
X157140475Y-110764676D01*
X157140475Y-110764676D02*
X157330951Y-110726580D01*
X157330951Y-110726580D02*
X157521427Y-110612295D01*
X157521427Y-110612295D02*
X157635713Y-110421819D01*
X157635713Y-110421819D02*
X157673808Y-110231342D01*
X157673808Y-110231342D02*
X157635713Y-110040866D01*
X157635713Y-110040866D02*
X157521427Y-109850390D01*
X157521427Y-109850390D02*
X157330951Y-109736104D01*
X157330951Y-109736104D02*
X157140475Y-109698009D01*
X158016666Y-110078961D02*
X158016666Y-110612295D01*
X158016666Y-110155152D02*
X158054761Y-110117057D01*
X158054761Y-110117057D02*
X158130951Y-110078961D01*
X158130951Y-110078961D02*
X158245237Y-110078961D01*
X158245237Y-110078961D02*
X158321428Y-110117057D01*
X158321428Y-110117057D02*
X158359523Y-110193247D01*
X158359523Y-110193247D02*
X158359523Y-110612295D01*
X158740476Y-110612295D02*
X158740476Y-109812295D01*
X158816666Y-110307533D02*
X159045238Y-110612295D01*
X159045238Y-110078961D02*
X158740476Y-110383723D01*
X159730952Y-110078961D02*
X159730952Y-110612295D01*
X159388095Y-110078961D02*
X159388095Y-110498009D01*
X159388095Y-110498009D02*
X159426190Y-110574200D01*
X159426190Y-110574200D02*
X159502380Y-110612295D01*
X159502380Y-110612295D02*
X159616666Y-110612295D01*
X159616666Y-110612295D02*
X159692857Y-110574200D01*
X159692857Y-110574200D02*
X159730952Y-110536104D01*
X160111905Y-110078961D02*
X160111905Y-110612295D01*
X160111905Y-110155152D02*
X160150000Y-110117057D01*
X160150000Y-110117057D02*
X160226190Y-110078961D01*
X160226190Y-110078961D02*
X160340476Y-110078961D01*
X160340476Y-110078961D02*
X160416667Y-110117057D01*
X160416667Y-110117057D02*
X160454762Y-110193247D01*
X160454762Y-110193247D02*
X160454762Y-110612295D01*
X160835715Y-110536104D02*
X160873810Y-110574200D01*
X160873810Y-110574200D02*
X160835715Y-110612295D01*
X160835715Y-110612295D02*
X160797619Y-110574200D01*
X160797619Y-110574200D02*
X160835715Y-110536104D01*
X160835715Y-110536104D02*
X160835715Y-110612295D01*
X161559524Y-110612295D02*
X161559524Y-109812295D01*
X161559524Y-110574200D02*
X161483333Y-110612295D01*
X161483333Y-110612295D02*
X161330952Y-110612295D01*
X161330952Y-110612295D02*
X161254762Y-110574200D01*
X161254762Y-110574200D02*
X161216667Y-110536104D01*
X161216667Y-110536104D02*
X161178571Y-110459914D01*
X161178571Y-110459914D02*
X161178571Y-110231342D01*
X161178571Y-110231342D02*
X161216667Y-110155152D01*
X161216667Y-110155152D02*
X161254762Y-110117057D01*
X161254762Y-110117057D02*
X161330952Y-110078961D01*
X161330952Y-110078961D02*
X161483333Y-110078961D01*
X161483333Y-110078961D02*
X161559524Y-110117057D01*
X162245239Y-110574200D02*
X162169048Y-110612295D01*
X162169048Y-110612295D02*
X162016667Y-110612295D01*
X162016667Y-110612295D02*
X161940477Y-110574200D01*
X161940477Y-110574200D02*
X161902381Y-110498009D01*
X161902381Y-110498009D02*
X161902381Y-110193247D01*
X161902381Y-110193247D02*
X161940477Y-110117057D01*
X161940477Y-110117057D02*
X162016667Y-110078961D01*
X162016667Y-110078961D02*
X162169048Y-110078961D01*
X162169048Y-110078961D02*
X162245239Y-110117057D01*
X162245239Y-110117057D02*
X162283334Y-110193247D01*
X162283334Y-110193247D02*
X162283334Y-110269438D01*
X162283334Y-110269438D02*
X161902381Y-110345628D01*
X162550000Y-110078961D02*
X162740476Y-110612295D01*
X162740476Y-110612295D02*
X162930953Y-110078961D01*
X190416666Y-127704819D02*
X190416666Y-128419104D01*
X190416666Y-128419104D02*
X190369047Y-128561961D01*
X190369047Y-128561961D02*
X190273809Y-128657200D01*
X190273809Y-128657200D02*
X190130952Y-128704819D01*
X190130952Y-128704819D02*
X190035714Y-128704819D01*
X190845238Y-127800057D02*
X190892857Y-127752438D01*
X190892857Y-127752438D02*
X190988095Y-127704819D01*
X190988095Y-127704819D02*
X191226190Y-127704819D01*
X191226190Y-127704819D02*
X191321428Y-127752438D01*
X191321428Y-127752438D02*
X191369047Y-127800057D01*
X191369047Y-127800057D02*
X191416666Y-127895295D01*
X191416666Y-127895295D02*
X191416666Y-127990533D01*
X191416666Y-127990533D02*
X191369047Y-128133390D01*
X191369047Y-128133390D02*
X190797619Y-128704819D01*
X190797619Y-128704819D02*
X191416666Y-128704819D01*
D14*
%TO.C,C2*%
X177084165Y-117890000D02*
X177315835Y-117890000D01*
X177084165Y-118610000D02*
X177315835Y-118610000D01*
D15*
%TO.C,J1*%
X187200000Y-112550000D02*
X187200000Y-111720000D01*
X187780000Y-112550000D02*
X187200000Y-112550000D01*
X190800000Y-112550000D02*
X190220000Y-112550000D01*
X190800000Y-111720000D02*
X190800000Y-112550000D01*
X187200000Y-106280000D02*
X187200000Y-105450000D01*
X187200000Y-105450000D02*
X187780000Y-105450000D01*
X190800000Y-105450000D02*
X190800000Y-106280000D01*
X190800000Y-105450000D02*
X190220000Y-105450000D01*
D16*
X185700000Y-106000000D02*
G75*
G03*
X185700000Y-106000000I-100000J0D01*
G01*
D14*
%TO.C,C1*%
X182310000Y-119216233D02*
X182310000Y-119508767D01*
X181290000Y-119216233D02*
X181290000Y-119508767D01*
%TO.C,U1*%
X174037500Y-120860000D02*
X175712500Y-120860000D01*
X174037500Y-120860000D02*
X173387500Y-120860000D01*
X174037500Y-117740000D02*
X174687500Y-117740000D01*
X174037500Y-117740000D02*
X173387500Y-117740000D01*
%TO.C,R2*%
X185170121Y-121480000D02*
X184834879Y-121480000D01*
X185170121Y-120720000D02*
X184834879Y-120720000D01*
D16*
%TO.C,SW1*%
X159200000Y-119325000D02*
X164300000Y-119325000D01*
X159200000Y-120875000D02*
X159200000Y-122875000D01*
X159200000Y-124425000D02*
X164300000Y-124425000D01*
X164300000Y-120875000D02*
X164300000Y-122875000D01*
D14*
%TO.C,R1*%
X164417621Y-127130000D02*
X164082379Y-127130000D01*
X164417621Y-126370000D02*
X164082379Y-126370000D01*
%TO.C,F1*%
X184483767Y-119010000D02*
X184191233Y-119010000D01*
X184483767Y-117990000D02*
X184191233Y-117990000D01*
D10*
%TO.C,U2*%
X179425000Y-125325000D02*
X179425000Y-125100000D01*
X179425000Y-125325000D02*
X176075000Y-125325000D01*
X179425000Y-125100000D02*
X180650000Y-125100000D01*
X179425000Y-121975000D02*
X179425000Y-122275000D01*
X179425000Y-121975000D02*
X176075000Y-121975000D01*
X176075000Y-125325000D02*
X176075000Y-125025000D01*
X176075000Y-121975000D02*
X176075000Y-122275000D01*
D14*
%TO.C,C3*%
X172865835Y-123360000D02*
X172634165Y-123360000D01*
X172865835Y-122640000D02*
X172634165Y-122640000D01*
%TO.C,C4*%
X177084165Y-119890000D02*
X177315835Y-119890000D01*
X177084165Y-120610000D02*
X177315835Y-120610000D01*
%TO.C,C5*%
X172865835Y-125110000D02*
X172634165Y-125110000D01*
X172865835Y-124390000D02*
X172634165Y-124390000D01*
%TO.C,R3*%
X185167621Y-126080000D02*
X184832379Y-126080000D01*
X185167621Y-125320000D02*
X184832379Y-125320000D01*
%TO.C,D1*%
X157215000Y-126015000D02*
X157215000Y-127485000D01*
X157215000Y-127485000D02*
X159675000Y-127485000D01*
X159675000Y-126015000D02*
X157215000Y-126015000D01*
%TO.C,\u00A9nkun.dev*%
G36*
X158720000Y-106140000D02*
G01*
X158710000Y-106150000D01*
X158700000Y-106140000D01*
X158710000Y-106130000D01*
X158720000Y-106140000D01*
G37*
G36*
X159300000Y-107220000D02*
G01*
X159290000Y-107230000D01*
X159280000Y-107220000D01*
X159290000Y-107210000D01*
X159300000Y-107220000D01*
G37*
G36*
X159640000Y-102240000D02*
G01*
X159630000Y-102250000D01*
X159620000Y-102240000D01*
X159630000Y-102230000D01*
X159640000Y-102240000D01*
G37*
G36*
X160480000Y-102840000D02*
G01*
X160470000Y-102850000D01*
X160460000Y-102840000D01*
X160470000Y-102830000D01*
X160480000Y-102840000D01*
G37*
G36*
X160620000Y-101940000D02*
G01*
X160610000Y-101950000D01*
X160600000Y-101940000D01*
X160610000Y-101930000D01*
X160620000Y-101940000D01*
G37*
G36*
X160680000Y-101920000D02*
G01*
X160670000Y-101930000D01*
X160660000Y-101920000D01*
X160670000Y-101910000D01*
X160680000Y-101920000D01*
G37*
G36*
X160820000Y-107720000D02*
G01*
X160810000Y-107730000D01*
X160800000Y-107720000D01*
X160810000Y-107710000D01*
X160820000Y-107720000D01*
G37*
G36*
X160840000Y-103840000D02*
G01*
X160830000Y-103850000D01*
X160820000Y-103840000D01*
X160830000Y-103830000D01*
X160840000Y-103840000D01*
G37*
G36*
X160920000Y-107740000D02*
G01*
X160910000Y-107750000D01*
X160900000Y-107740000D01*
X160910000Y-107730000D01*
X160920000Y-107740000D01*
G37*
G36*
X161200000Y-107580000D02*
G01*
X161190000Y-107590000D01*
X161180000Y-107580000D01*
X161190000Y-107570000D01*
X161200000Y-107580000D01*
G37*
G36*
X161220000Y-107720000D02*
G01*
X161210000Y-107730000D01*
X161200000Y-107720000D01*
X161210000Y-107710000D01*
X161220000Y-107720000D01*
G37*
G36*
X161340000Y-102940000D02*
G01*
X161330000Y-102950000D01*
X161320000Y-102940000D01*
X161330000Y-102930000D01*
X161340000Y-102940000D01*
G37*
G36*
X161340000Y-107700000D02*
G01*
X161330000Y-107710000D01*
X161320000Y-107700000D01*
X161330000Y-107690000D01*
X161340000Y-107700000D01*
G37*
G36*
X161680000Y-107120000D02*
G01*
X161670000Y-107130000D01*
X161660000Y-107120000D01*
X161670000Y-107110000D01*
X161680000Y-107120000D01*
G37*
G36*
X162080000Y-106700000D02*
G01*
X162070000Y-106710000D01*
X162060000Y-106700000D01*
X162070000Y-106690000D01*
X162080000Y-106700000D01*
G37*
G36*
X162420000Y-104620000D02*
G01*
X162410000Y-104630000D01*
X162400000Y-104620000D01*
X162410000Y-104610000D01*
X162420000Y-104620000D01*
G37*
G36*
X160754583Y-107717916D02*
G01*
X160748618Y-107727006D01*
X160728333Y-107728421D01*
X160706992Y-107723536D01*
X160716250Y-107716337D01*
X160747507Y-107713953D01*
X160754583Y-107717916D01*
G37*
G36*
X160974583Y-107597916D02*
G01*
X160968618Y-107607006D01*
X160948333Y-107608421D01*
X160926992Y-107603536D01*
X160936250Y-107596337D01*
X160967507Y-107593953D01*
X160974583Y-107597916D01*
G37*
G36*
X161294583Y-107717916D02*
G01*
X161288618Y-107727006D01*
X161268333Y-107728421D01*
X161246992Y-107723536D01*
X161256250Y-107716337D01*
X161287507Y-107713953D01*
X161294583Y-107717916D01*
G37*
G36*
X161653333Y-107176666D02*
G01*
X161655726Y-107200401D01*
X161653333Y-107203333D01*
X161641443Y-107200587D01*
X161640000Y-107190000D01*
X161647317Y-107173537D01*
X161653333Y-107176666D01*
G37*
G36*
X162413333Y-104656666D02*
G01*
X162415726Y-104680401D01*
X162413333Y-104683333D01*
X162401443Y-104680587D01*
X162400000Y-104670000D01*
X162407317Y-104653537D01*
X162413333Y-104656666D01*
G37*
G36*
X159836909Y-107378090D02*
G01*
X159858380Y-107398228D01*
X159853976Y-107409805D01*
X159851180Y-107410000D01*
X159834264Y-107395794D01*
X159828090Y-107386909D01*
X159825732Y-107373223D01*
X159836909Y-107378090D01*
G37*
G36*
X160859847Y-102082082D02*
G01*
X160862481Y-102084666D01*
X160878279Y-102110888D01*
X160876137Y-102120529D01*
X160861259Y-102114527D01*
X160851285Y-102095862D01*
X160845196Y-102072496D01*
X160859847Y-102082082D01*
G37*
G36*
X161288961Y-102062368D02*
G01*
X161317112Y-102078508D01*
X161312396Y-102088943D01*
X161301180Y-102090000D01*
X161274059Y-102075474D01*
X161270141Y-102070229D01*
X161273360Y-102058863D01*
X161288961Y-102062368D01*
G37*
G36*
X161147192Y-107591261D02*
G01*
X161147137Y-107594631D01*
X161125293Y-107603377D01*
X161083357Y-107608867D01*
X161038013Y-107610254D01*
X161005944Y-107606691D01*
X161000000Y-107602100D01*
X161017700Y-107595425D01*
X161061818Y-107588483D01*
X161078317Y-107586732D01*
X161125019Y-107585447D01*
X161147192Y-107591261D01*
G37*
G36*
X160639219Y-102763638D02*
G01*
X160623841Y-102783323D01*
X160584846Y-102817387D01*
X160544219Y-102848449D01*
X160495939Y-102881715D01*
X160477950Y-102889299D01*
X160489974Y-102871320D01*
X160490000Y-102871291D01*
X160528759Y-102832496D01*
X160572326Y-102796338D01*
X160611092Y-102769748D01*
X160635447Y-102759658D01*
X160639219Y-102763638D01*
G37*
G36*
X161871482Y-101998610D02*
G01*
X161896256Y-102024040D01*
X161887888Y-102050126D01*
X161881796Y-102057835D01*
X161853570Y-102084679D01*
X161825040Y-102083961D01*
X161795000Y-102068398D01*
X161763383Y-102038610D01*
X161765852Y-102030000D01*
X161800000Y-102030000D01*
X161816199Y-102047743D01*
X161830000Y-102050000D01*
X161856615Y-102039200D01*
X161860000Y-102030000D01*
X161843800Y-102012256D01*
X161830000Y-102010000D01*
X161803384Y-102020799D01*
X161800000Y-102030000D01*
X161765852Y-102030000D01*
X161771762Y-102009394D01*
X161797237Y-101991478D01*
X161842354Y-101983879D01*
X161871482Y-101998610D01*
G37*
G36*
X162259785Y-103361785D02*
G01*
X162273966Y-103391941D01*
X162291958Y-103453511D01*
X162312075Y-103538285D01*
X162332632Y-103638056D01*
X162351944Y-103744616D01*
X162368325Y-103849757D01*
X162380090Y-103945271D01*
X162380561Y-103950000D01*
X162393094Y-104056911D01*
X162409992Y-104174842D01*
X162427633Y-104278545D01*
X162427911Y-104280000D01*
X162445675Y-104385315D01*
X162459879Y-104493853D01*
X162469995Y-104597941D01*
X162475497Y-104689909D01*
X162475857Y-104762083D01*
X162470547Y-104806791D01*
X162464845Y-104817005D01*
X162441508Y-104813034D01*
X162432324Y-104798846D01*
X162430974Y-104778324D01*
X162439620Y-104779765D01*
X162450200Y-104770279D01*
X162452036Y-104728061D01*
X162450346Y-104705803D01*
X162443823Y-104637914D01*
X162435783Y-104552169D01*
X162430059Y-104490000D01*
X162422270Y-104418516D01*
X162410896Y-104340428D01*
X162394639Y-104248713D01*
X162372199Y-104136351D01*
X162342281Y-103996322D01*
X162320515Y-103897524D01*
X162299107Y-103799308D01*
X162286466Y-103735435D01*
X162282092Y-103701339D01*
X162285486Y-103692450D01*
X162296147Y-103704202D01*
X162300000Y-103710000D01*
X162315598Y-103724559D01*
X162319950Y-103704741D01*
X162313453Y-103654436D01*
X162296507Y-103577535D01*
X162280000Y-103514851D01*
X162257104Y-103430652D01*
X162244706Y-103379210D01*
X162242062Y-103354894D01*
X162248427Y-103352072D01*
X162259785Y-103361785D01*
G37*
G36*
X161767816Y-103585832D02*
G01*
X161821252Y-103628976D01*
X161869943Y-103687925D01*
X161907858Y-103753386D01*
X161928964Y-103816065D01*
X161927232Y-103866671D01*
X161919046Y-103881149D01*
X161905854Y-103910413D01*
X161923392Y-103942567D01*
X161928094Y-103947894D01*
X161954289Y-103993023D01*
X161972618Y-104052629D01*
X161973464Y-104057476D01*
X161977245Y-104093098D01*
X161971817Y-104122862D01*
X161952132Y-104155013D01*
X161913142Y-104197799D01*
X161849841Y-104259426D01*
X161789441Y-104314534D01*
X161739016Y-104355592D01*
X161705744Y-104376999D01*
X161697390Y-104378387D01*
X161668715Y-104379300D01*
X161645158Y-104390427D01*
X161620973Y-104406973D01*
X161630673Y-104406481D01*
X161645000Y-104402137D01*
X161673944Y-104401652D01*
X161680000Y-104410627D01*
X161661872Y-104421062D01*
X161614925Y-104428165D01*
X161565000Y-104430173D01*
X161477243Y-104432663D01*
X161385573Y-104438779D01*
X161347704Y-104442639D01*
X161283131Y-104446441D01*
X161241677Y-104440893D01*
X161233147Y-104435092D01*
X161207063Y-104419491D01*
X161157550Y-104405451D01*
X161156266Y-104405218D01*
X161248674Y-104405218D01*
X161268333Y-104408421D01*
X161294273Y-104404743D01*
X161294583Y-104397916D01*
X161267815Y-104393142D01*
X161256250Y-104396337D01*
X161248674Y-104405218D01*
X161156266Y-104405218D01*
X161142433Y-104402708D01*
X161069102Y-104377602D01*
X161015303Y-104344131D01*
X161060955Y-104344131D01*
X161081872Y-104359112D01*
X161105000Y-104369376D01*
X161158729Y-104387241D01*
X161179624Y-104384261D01*
X161179939Y-104382331D01*
X161360000Y-104382331D01*
X161377689Y-104387192D01*
X161421544Y-104389624D01*
X161435000Y-104389693D01*
X161480125Y-104386127D01*
X161488349Y-104376443D01*
X161483707Y-104372714D01*
X161452811Y-104365151D01*
X161409914Y-104365466D01*
X161373073Y-104372256D01*
X161360000Y-104382331D01*
X161179939Y-104382331D01*
X161180000Y-104381956D01*
X161163341Y-104370600D01*
X161122948Y-104354034D01*
X161120000Y-104352996D01*
X161074738Y-104340921D01*
X161060955Y-104344131D01*
X161015303Y-104344131D01*
X160991970Y-104329614D01*
X160979861Y-104319884D01*
X160978185Y-104318508D01*
X161582887Y-104318508D01*
X161587603Y-104328943D01*
X161598819Y-104330000D01*
X161625940Y-104315474D01*
X161629858Y-104310229D01*
X161626639Y-104298863D01*
X161611038Y-104302368D01*
X161582887Y-104318508D01*
X160978185Y-104318508D01*
X160928595Y-104277802D01*
X160887864Y-104245695D01*
X160880025Y-104240000D01*
X161640000Y-104240000D01*
X161650000Y-104250000D01*
X161657327Y-104242673D01*
X161787345Y-104242673D01*
X161813283Y-104237317D01*
X161856889Y-104215027D01*
X161902194Y-104176577D01*
X161903283Y-104175401D01*
X161931052Y-104143608D01*
X161931676Y-104136143D01*
X161910000Y-104146716D01*
X161864679Y-104175683D01*
X161820000Y-104208632D01*
X161788366Y-104235089D01*
X161787345Y-104242673D01*
X161657327Y-104242673D01*
X161660000Y-104240000D01*
X161650000Y-104230000D01*
X161640000Y-104240000D01*
X160880025Y-104240000D01*
X160872871Y-104234802D01*
X160861433Y-104220000D01*
X161720000Y-104220000D01*
X161730000Y-104230000D01*
X161740000Y-104220000D01*
X161730000Y-104210000D01*
X161720000Y-104220000D01*
X160861433Y-104220000D01*
X160850359Y-104205670D01*
X160823840Y-104151218D01*
X160799235Y-104084874D01*
X160786312Y-104038508D01*
X160793586Y-103990026D01*
X160827781Y-103936283D01*
X160857551Y-103895672D01*
X160869321Y-103868633D01*
X160868227Y-103864894D01*
X160873597Y-103845198D01*
X160900986Y-103809593D01*
X160941214Y-103767198D01*
X160985098Y-103727134D01*
X161023458Y-103698521D01*
X161044297Y-103690000D01*
X161078192Y-103695856D01*
X161136830Y-103711156D01*
X161202394Y-103730983D01*
X161330000Y-103771967D01*
X161394195Y-103695983D01*
X161434213Y-103651947D01*
X161464857Y-103624169D01*
X161474195Y-103619291D01*
X161502673Y-103609886D01*
X161530000Y-103596327D01*
X161608771Y-103571879D01*
X161715666Y-103567786D01*
X161767816Y-103585832D01*
G37*
G36*
X161448450Y-102387492D02*
G01*
X161443472Y-102411353D01*
X161421304Y-102429301D01*
X161394026Y-102456141D01*
X161391750Y-102477350D01*
X161383775Y-102504872D01*
X161351856Y-102545450D01*
X161326005Y-102570123D01*
X161263698Y-102627587D01*
X161233443Y-102663699D01*
X161235509Y-102677977D01*
X161270167Y-102669936D01*
X161270391Y-102669851D01*
X161311579Y-102655437D01*
X161328557Y-102654895D01*
X161320085Y-102671959D01*
X161284923Y-102710366D01*
X161242814Y-102752899D01*
X161186130Y-102813879D01*
X161159078Y-102854678D01*
X161159219Y-102879021D01*
X161159784Y-102879739D01*
X161169442Y-102909304D01*
X161164826Y-102919549D01*
X161168173Y-102923718D01*
X161195057Y-102911974D01*
X161236585Y-102898733D01*
X161268286Y-102914185D01*
X161268374Y-102914265D01*
X161283016Y-102935750D01*
X161273515Y-102961551D01*
X161245066Y-102994486D01*
X161218324Y-103031387D01*
X161197107Y-103075009D01*
X161184766Y-103114723D01*
X161184647Y-103139901D01*
X161199038Y-103140593D01*
X161213373Y-103148824D01*
X161224667Y-103181331D01*
X161229764Y-103222391D01*
X161225509Y-103256283D01*
X161223188Y-103260929D01*
X161195044Y-103275026D01*
X161173531Y-103274180D01*
X161147386Y-103255687D01*
X161147998Y-103238003D01*
X161147550Y-103219256D01*
X161119191Y-103219731D01*
X161106178Y-103222746D01*
X161069695Y-103228508D01*
X161062410Y-103215448D01*
X161067388Y-103199592D01*
X161067950Y-103161320D01*
X161056201Y-103147652D01*
X161046146Y-103128641D01*
X161064442Y-103095679D01*
X161080524Y-103076658D01*
X161103687Y-103048118D01*
X161102890Y-103042531D01*
X161095876Y-103047327D01*
X161055212Y-103062693D01*
X161026636Y-103046081D01*
X161020000Y-103018819D01*
X161011728Y-102998429D01*
X161046748Y-102998429D01*
X161052224Y-103003425D01*
X161064574Y-102999314D01*
X161099071Y-102973048D01*
X161107825Y-102958453D01*
X161114038Y-102933322D01*
X161100347Y-102938932D01*
X161069221Y-102970860D01*
X161046748Y-102998429D01*
X161011728Y-102998429D01*
X161009424Y-102992749D01*
X160982794Y-102998616D01*
X160959093Y-103021091D01*
X160894330Y-103072303D01*
X160811319Y-103100991D01*
X160800000Y-103102563D01*
X160740453Y-103111921D01*
X160695000Y-103121440D01*
X160655182Y-103126214D01*
X160643482Y-103112792D01*
X160660338Y-103078308D01*
X160706191Y-103019898D01*
X160711558Y-103013599D01*
X160751370Y-102961677D01*
X160760714Y-102935071D01*
X160739860Y-102934282D01*
X160689075Y-102959813D01*
X160684296Y-102962666D01*
X160662126Y-102973333D01*
X160670374Y-102960113D01*
X160709411Y-102922415D01*
X160710000Y-102921875D01*
X160747224Y-102887695D01*
X160804293Y-102887695D01*
X160806495Y-102893745D01*
X160830590Y-102882690D01*
X160870563Y-102856575D01*
X160890000Y-102842101D01*
X160912854Y-102819587D01*
X160910000Y-102811355D01*
X160883084Y-102823389D01*
X160841332Y-102853138D01*
X160830000Y-102862495D01*
X160804293Y-102887695D01*
X160747224Y-102887695D01*
X160790000Y-102848418D01*
X160680000Y-102903039D01*
X160562441Y-102961183D01*
X160475687Y-103003218D01*
X160414831Y-103031058D01*
X160374967Y-103046611D01*
X160351188Y-103051790D01*
X160338586Y-103048505D01*
X160332256Y-103038667D01*
X160332190Y-103038496D01*
X160341993Y-103009899D01*
X160390049Y-102975395D01*
X160405041Y-102967427D01*
X160525260Y-102897781D01*
X160603777Y-102836641D01*
X160803906Y-102836641D01*
X160804041Y-102849671D01*
X160807551Y-102850000D01*
X160824245Y-102836332D01*
X160842551Y-102815000D01*
X160850334Y-102804340D01*
X161021666Y-102804340D01*
X161028240Y-102809728D01*
X161034217Y-102810000D01*
X161062085Y-102795830D01*
X161082551Y-102775000D01*
X161099593Y-102751608D01*
X161090144Y-102754893D01*
X161070000Y-102769340D01*
X161036283Y-102793908D01*
X161021666Y-102804340D01*
X160850334Y-102804340D01*
X160859848Y-102791310D01*
X160849491Y-102796276D01*
X160835000Y-102807448D01*
X160803906Y-102836641D01*
X160603777Y-102836641D01*
X160615042Y-102827869D01*
X160645327Y-102795743D01*
X160670779Y-102776666D01*
X160726666Y-102776666D01*
X160729412Y-102788556D01*
X160740000Y-102790000D01*
X160742931Y-102788697D01*
X160884903Y-102788697D01*
X160887639Y-102790000D01*
X160905891Y-102775920D01*
X160910000Y-102770000D01*
X160915096Y-102751302D01*
X160912360Y-102750000D01*
X160894108Y-102764079D01*
X160890000Y-102770000D01*
X160884903Y-102788697D01*
X160742931Y-102788697D01*
X160756462Y-102782682D01*
X160753333Y-102776666D01*
X160729598Y-102774273D01*
X160726666Y-102776666D01*
X160670779Y-102776666D01*
X160689647Y-102762524D01*
X160749303Y-102740417D01*
X160755866Y-102739185D01*
X160813167Y-102727969D01*
X160856248Y-102716638D01*
X160860000Y-102715287D01*
X160901192Y-102706931D01*
X160913743Y-102707433D01*
X160943270Y-102698770D01*
X160997522Y-102671376D01*
X161068884Y-102630058D01*
X161149742Y-102579624D01*
X161232480Y-102524881D01*
X161281997Y-102490000D01*
X161330000Y-102490000D01*
X161330914Y-102508459D01*
X161337639Y-102510000D01*
X161365912Y-102495404D01*
X161370000Y-102490000D01*
X161369085Y-102471540D01*
X161362360Y-102470000D01*
X161334087Y-102484595D01*
X161330000Y-102490000D01*
X161281997Y-102490000D01*
X161309484Y-102470638D01*
X161373138Y-102421702D01*
X161392890Y-102404926D01*
X161429500Y-102382147D01*
X161448450Y-102387492D01*
G37*
G36*
X160399872Y-101765547D02*
G01*
X160415727Y-101775941D01*
X160447416Y-101785309D01*
X160506683Y-101791046D01*
X160581184Y-101792006D01*
X160587399Y-101791843D01*
X160735402Y-101799026D01*
X160901659Y-101829361D01*
X161089677Y-101883758D01*
X161302958Y-101963130D01*
X161396724Y-102002331D01*
X161481894Y-102053975D01*
X161575323Y-102136384D01*
X161671394Y-102242808D01*
X161764489Y-102366496D01*
X161848990Y-102500699D01*
X161910793Y-102620000D01*
X161949947Y-102698482D01*
X161992908Y-102775719D01*
X162020520Y-102820000D01*
X162063695Y-102889651D01*
X162109221Y-102972700D01*
X162153655Y-103061521D01*
X162193553Y-103148489D01*
X162225471Y-103225978D01*
X162245967Y-103286363D01*
X162251597Y-103322018D01*
X162249525Y-103327141D01*
X162243254Y-103331863D01*
X162236390Y-103328166D01*
X162226001Y-103310103D01*
X162209158Y-103271728D01*
X162182928Y-103207095D01*
X162151673Y-103128600D01*
X162115763Y-103042373D01*
X162080890Y-102965725D01*
X162052054Y-102909326D01*
X162039550Y-102889403D01*
X162023181Y-102869542D01*
X162015495Y-102868206D01*
X162016662Y-102890629D01*
X162026852Y-102942043D01*
X162043703Y-103016654D01*
X162064994Y-103126092D01*
X162072371Y-103206743D01*
X162068359Y-103245850D01*
X162059736Y-103266686D01*
X162052503Y-103258694D01*
X162045369Y-103217966D01*
X162038490Y-103155424D01*
X162009058Y-102987704D01*
X161955502Y-102812073D01*
X161882053Y-102636461D01*
X161792944Y-102468797D01*
X161692408Y-102317008D01*
X161584677Y-102189022D01*
X161473982Y-102092770D01*
X161469612Y-102089733D01*
X161412802Y-102053097D01*
X161374647Y-102033241D01*
X161359842Y-102031955D01*
X161373082Y-102051032D01*
X161376000Y-102054000D01*
X161397381Y-102087505D01*
X161396048Y-102113172D01*
X161373384Y-102118324D01*
X161369137Y-102116901D01*
X161348109Y-102101499D01*
X161349320Y-102094012D01*
X161347868Y-102071868D01*
X161320669Y-102040704D01*
X161278004Y-102008883D01*
X161230152Y-101984767D01*
X161206801Y-101978080D01*
X161161939Y-101965455D01*
X161140344Y-101951109D01*
X161140000Y-101949404D01*
X161122469Y-101935687D01*
X161076310Y-101914692D01*
X161011169Y-101890757D01*
X161005000Y-101888704D01*
X160933342Y-101865037D01*
X160874263Y-101845497D01*
X160840338Y-101834243D01*
X160840000Y-101834129D01*
X160820881Y-101831179D01*
X160833397Y-101849320D01*
X160834999Y-101851056D01*
X160856795Y-101889806D01*
X160859999Y-101907822D01*
X160856331Y-101926356D01*
X160840120Y-101912151D01*
X160835000Y-101905725D01*
X160794780Y-101879180D01*
X160726233Y-101857178D01*
X160640904Y-101841113D01*
X160550343Y-101832377D01*
X160466095Y-101832361D01*
X160399710Y-101842459D01*
X160378685Y-101850703D01*
X160346845Y-101861191D01*
X160340000Y-101850703D01*
X160322521Y-101836687D01*
X160279944Y-101830312D01*
X160275000Y-101830273D01*
X160208804Y-101834858D01*
X160154302Y-101846142D01*
X160123236Y-101861270D01*
X160120000Y-101867930D01*
X160138436Y-101876336D01*
X160188392Y-101888910D01*
X160261839Y-101903833D01*
X160335000Y-101916715D01*
X160421738Y-101933404D01*
X160514826Y-101955175D01*
X160606825Y-101979772D01*
X160690296Y-102004937D01*
X160757800Y-102028414D01*
X160801897Y-102047944D01*
X160815147Y-102061271D01*
X160814472Y-102062194D01*
X160793025Y-102060397D01*
X160744357Y-102048154D01*
X160679554Y-102028291D01*
X160605004Y-102007701D01*
X160537720Y-101995728D01*
X160497284Y-101994664D01*
X160461107Y-101995613D01*
X160452093Y-101986612D01*
X160438098Y-101980335D01*
X160392308Y-101976723D01*
X160322867Y-101976203D01*
X160276037Y-101977444D01*
X160140988Y-101988965D01*
X160030307Y-102015003D01*
X159929683Y-102059883D01*
X159860000Y-102103168D01*
X159810000Y-102137160D01*
X159850000Y-102094221D01*
X159893559Y-102057609D01*
X159952734Y-102019354D01*
X159970000Y-102009961D01*
X160050000Y-101968639D01*
X159954831Y-101978273D01*
X159895104Y-101989481D01*
X159825269Y-102010089D01*
X159754620Y-102036235D01*
X159692453Y-102064058D01*
X159648063Y-102089698D01*
X159630745Y-102109293D01*
X159631577Y-102112552D01*
X159623246Y-102125552D01*
X159593480Y-102130000D01*
X159541612Y-102148381D01*
X159511839Y-102180000D01*
X159492487Y-102214851D01*
X159490989Y-102229980D01*
X159491316Y-102230000D01*
X159487678Y-102243327D01*
X159463872Y-102276724D01*
X159451644Y-102291693D01*
X159416587Y-102342204D01*
X159411533Y-102369303D01*
X159432105Y-102370020D01*
X159473922Y-102341386D01*
X159495336Y-102321330D01*
X159541384Y-102279375D01*
X159576689Y-102254438D01*
X159595228Y-102249674D01*
X159590978Y-102268236D01*
X159588396Y-102272594D01*
X159588015Y-102287104D01*
X159602216Y-102283894D01*
X159638898Y-102270441D01*
X159693171Y-102251968D01*
X159703102Y-102248702D01*
X159757260Y-102222135D01*
X159795310Y-102187924D01*
X159798721Y-102182402D01*
X159812373Y-102161149D01*
X159811246Y-102175000D01*
X159810321Y-102204089D01*
X159817813Y-102210000D01*
X159841787Y-102203616D01*
X159895985Y-102186117D01*
X159973009Y-102159976D01*
X160065462Y-102127670D01*
X160092185Y-102118185D01*
X160209106Y-102076564D01*
X160293826Y-102046815D01*
X160351876Y-102027520D01*
X160388782Y-102017261D01*
X160410074Y-102014621D01*
X160421279Y-102018182D01*
X160427927Y-102026526D01*
X160430832Y-102031347D01*
X160434868Y-102046895D01*
X160424380Y-102042707D01*
X160397968Y-102044015D01*
X160342757Y-102057764D01*
X160267103Y-102081582D01*
X160188578Y-102109617D01*
X160100817Y-102141723D01*
X160025374Y-102167732D01*
X159970928Y-102184753D01*
X159947287Y-102190000D01*
X159922471Y-102202396D01*
X159919999Y-102211180D01*
X159908331Y-102223925D01*
X159902475Y-102221529D01*
X159876338Y-102222355D01*
X159823294Y-102234449D01*
X159753988Y-102255303D01*
X159741696Y-102259422D01*
X159668939Y-102281634D01*
X159608841Y-102295383D01*
X159572989Y-102298096D01*
X159570532Y-102297436D01*
X159539771Y-102305663D01*
X159499840Y-102344949D01*
X159454272Y-102408421D01*
X159406600Y-102489211D01*
X159360359Y-102580448D01*
X159319083Y-102675260D01*
X159286305Y-102766778D01*
X159265559Y-102848131D01*
X159260000Y-102901177D01*
X159262816Y-102924591D01*
X159278080Y-102919166D01*
X159296574Y-102903099D01*
X159333232Y-102875129D01*
X159348413Y-102872941D01*
X159337178Y-102894917D01*
X159322731Y-102911675D01*
X159285473Y-102975127D01*
X159258538Y-103069378D01*
X159242278Y-103186490D01*
X159237046Y-103318525D01*
X159243194Y-103457544D01*
X159261073Y-103595609D01*
X159287251Y-103711658D01*
X159311419Y-103793667D01*
X159334253Y-103864262D01*
X159351971Y-103911981D01*
X159356535Y-103921658D01*
X159377751Y-103972556D01*
X159388365Y-104010000D01*
X159419904Y-104086072D01*
X159472674Y-104143410D01*
X159537233Y-104173012D01*
X159561620Y-104175145D01*
X159604567Y-104175537D01*
X159611380Y-104180951D01*
X159585884Y-104194648D01*
X159585000Y-104195062D01*
X159550751Y-104215694D01*
X159540000Y-104229170D01*
X159552294Y-104255322D01*
X159584775Y-104302420D01*
X159630844Y-104361707D01*
X159683897Y-104424425D01*
X159704066Y-104446845D01*
X159760317Y-104511544D01*
X159806947Y-104571327D01*
X159840428Y-104620666D01*
X159857235Y-104654033D01*
X159853843Y-104665897D01*
X159840000Y-104659999D01*
X159824641Y-104653295D01*
X159822795Y-104664255D01*
X159835821Y-104699325D01*
X159859560Y-104752815D01*
X159891753Y-104865718D01*
X159894028Y-104985650D01*
X159881287Y-105050000D01*
X159874862Y-105104371D01*
X159880000Y-105140000D01*
X159884927Y-105190339D01*
X159878712Y-105230000D01*
X159867951Y-105260806D01*
X159863071Y-105254459D01*
X159861977Y-105240000D01*
X159853760Y-105234552D01*
X159833342Y-105262270D01*
X159803558Y-105319252D01*
X159801972Y-105322590D01*
X159769393Y-105386796D01*
X159740362Y-105435967D01*
X159721662Y-105458972D01*
X159708102Y-105482845D01*
X159710801Y-105491296D01*
X159703443Y-105511676D01*
X159671127Y-105533125D01*
X159630973Y-105555417D01*
X159622922Y-105577614D01*
X159636975Y-105605790D01*
X159653950Y-105608180D01*
X159683195Y-105577857D01*
X159725992Y-105513872D01*
X159766688Y-105444821D01*
X159800994Y-105381107D01*
X159819882Y-105340307D01*
X159837933Y-105304625D01*
X159852208Y-105295571D01*
X159852533Y-105295867D01*
X159850254Y-105318718D01*
X159831785Y-105366000D01*
X159802034Y-105428161D01*
X159765909Y-105495649D01*
X159728320Y-105558910D01*
X159694175Y-105608394D01*
X159688056Y-105615956D01*
X159655609Y-105667767D01*
X159640200Y-105718441D01*
X159640000Y-105723264D01*
X159622649Y-105787593D01*
X159575103Y-105861339D01*
X159504115Y-105938603D01*
X159416444Y-106013491D01*
X159318843Y-106080103D01*
X159218071Y-106132543D01*
X159139100Y-106160491D01*
X159018968Y-106183490D01*
X158906545Y-106188542D01*
X158825191Y-106177444D01*
X158792859Y-106159787D01*
X158791532Y-106136666D01*
X158906666Y-106136666D01*
X158909412Y-106148556D01*
X158920000Y-106150000D01*
X158936462Y-106142682D01*
X158933333Y-106136666D01*
X158909598Y-106134273D01*
X158906666Y-106136666D01*
X158791532Y-106136666D01*
X158790822Y-106124293D01*
X158792359Y-106117717D01*
X158793275Y-106108819D01*
X158820000Y-106108819D01*
X158834518Y-106129186D01*
X158840000Y-106130000D01*
X158849472Y-106126682D01*
X158993006Y-106126682D01*
X159015664Y-106129217D01*
X159058924Y-106120805D01*
X159120257Y-106098399D01*
X159160664Y-106079663D01*
X159181401Y-106068697D01*
X159264903Y-106068697D01*
X159267639Y-106070000D01*
X159285891Y-106055920D01*
X159290000Y-106050000D01*
X159295096Y-106031302D01*
X159292360Y-106030000D01*
X159274108Y-106044079D01*
X159270000Y-106050000D01*
X159264903Y-106068697D01*
X159181401Y-106068697D01*
X159214948Y-106050957D01*
X159251028Y-106029581D01*
X159260000Y-106022002D01*
X159243227Y-106023126D01*
X159199682Y-106036118D01*
X159139524Y-106057481D01*
X159072912Y-106083718D01*
X159040000Y-106097729D01*
X158999114Y-106117356D01*
X158993006Y-106126682D01*
X158849472Y-106126682D01*
X158859480Y-106123176D01*
X158860000Y-106121180D01*
X158845985Y-106104104D01*
X158840000Y-106100000D01*
X158821570Y-106101585D01*
X158820000Y-106108819D01*
X158793275Y-106108819D01*
X158795797Y-106084326D01*
X158780734Y-106072292D01*
X158742287Y-106081624D01*
X158675573Y-106112335D01*
X158664335Y-106118018D01*
X158550134Y-106189560D01*
X158474645Y-106268899D01*
X158437091Y-106357439D01*
X158436697Y-106456588D01*
X158449347Y-106507944D01*
X158470389Y-106547391D01*
X158492940Y-106551078D01*
X158511895Y-106522696D01*
X158522145Y-106465934D01*
X158522622Y-106455000D01*
X158525244Y-106360000D01*
X158539952Y-106474734D01*
X158552565Y-106543517D01*
X158569464Y-106599112D01*
X158581453Y-106621751D01*
X158605459Y-106658831D01*
X158612137Y-106677017D01*
X158621864Y-106711441D01*
X158637519Y-106755000D01*
X158659888Y-106796645D01*
X158690593Y-106809540D01*
X158714009Y-106808516D01*
X158731214Y-106823436D01*
X158742721Y-106846776D01*
X158766874Y-106878241D01*
X158820307Y-106927176D01*
X158898350Y-106989904D01*
X158996329Y-107062746D01*
X159109574Y-107142026D01*
X159166106Y-107180042D01*
X159237485Y-107223266D01*
X159282731Y-107240294D01*
X159302249Y-107235750D01*
X159300358Y-107215728D01*
X159266976Y-107181066D01*
X159200355Y-107130059D01*
X159176546Y-107113337D01*
X159094216Y-107056093D01*
X159071187Y-107040000D01*
X159160000Y-107040000D01*
X159170000Y-107050000D01*
X159180000Y-107040000D01*
X159170000Y-107030000D01*
X159160000Y-107040000D01*
X159071187Y-107040000D01*
X159009612Y-106996970D01*
X158938813Y-106947212D01*
X158928324Y-106939797D01*
X158872217Y-106897768D01*
X158809461Y-106847190D01*
X158746689Y-106793931D01*
X158690530Y-106743859D01*
X158647618Y-106702842D01*
X158624584Y-106676747D01*
X158623969Y-106670494D01*
X158646262Y-106682615D01*
X158683924Y-106713268D01*
X158693969Y-106722463D01*
X158732301Y-106755544D01*
X158788154Y-106800396D01*
X158853499Y-106850983D01*
X158920305Y-106901266D01*
X158980543Y-106945208D01*
X159026183Y-106976773D01*
X159049195Y-106989924D01*
X159049806Y-106990000D01*
X159061626Y-106980048D01*
X159045509Y-106949363D01*
X159000473Y-106896697D01*
X158925537Y-106820804D01*
X158888401Y-106785028D01*
X158818707Y-106716940D01*
X158758653Y-106655246D01*
X158714988Y-106607075D01*
X158695109Y-106580862D01*
X158698177Y-106576186D01*
X158724030Y-106596487D01*
X158767922Y-106637724D01*
X158801708Y-106671618D01*
X159038282Y-106891347D01*
X159303689Y-107097776D01*
X159587091Y-107282724D01*
X159688986Y-107341122D01*
X159793570Y-107391106D01*
X159875347Y-107411696D01*
X159938249Y-107403242D01*
X159985000Y-107367571D01*
X160009874Y-107343919D01*
X160020000Y-107346355D01*
X160007127Y-107375626D01*
X159986756Y-107400386D01*
X159967062Y-107431945D01*
X159973757Y-107446815D01*
X159998756Y-107476197D01*
X160005422Y-107490000D01*
X160014718Y-107505486D01*
X160018417Y-107482630D01*
X160018421Y-107482551D01*
X160025518Y-107457577D01*
X160046491Y-107467088D01*
X160085024Y-107485139D01*
X160156831Y-107505666D01*
X160255366Y-107527320D01*
X160374086Y-107548749D01*
X160506448Y-107568604D01*
X160590000Y-107579236D01*
X160670858Y-107589590D01*
X160727665Y-107598412D01*
X160755152Y-107604755D01*
X160748486Y-107607661D01*
X160680069Y-107628919D01*
X160638486Y-107662714D01*
X160590000Y-107715428D01*
X160636892Y-107690997D01*
X160669764Y-107676519D01*
X160676498Y-107686367D01*
X160670977Y-107706920D01*
X160668015Y-107732328D01*
X160685485Y-107747472D01*
X160731979Y-107758226D01*
X160750192Y-107761074D01*
X160823594Y-107768207D01*
X160893082Y-107764548D01*
X160969619Y-107748059D01*
X161064171Y-107716701D01*
X161135148Y-107689490D01*
X161274132Y-107623300D01*
X161386940Y-107543081D01*
X161403830Y-107528063D01*
X161510000Y-107430855D01*
X161390000Y-107440584D01*
X161323866Y-107445044D01*
X161295306Y-107444402D01*
X161304805Y-107438246D01*
X161352844Y-107426161D01*
X161424678Y-107410849D01*
X161493020Y-107393988D01*
X161536443Y-107372295D01*
X161569751Y-107336235D01*
X161591098Y-107303637D01*
X161617745Y-107264383D01*
X161631472Y-107252024D01*
X161631130Y-107261666D01*
X161628812Y-107291224D01*
X161651489Y-107302211D01*
X161678401Y-107303333D01*
X161712818Y-107298982D01*
X161740329Y-107280594D01*
X161769123Y-107240166D01*
X161799343Y-107185130D01*
X161837803Y-107116688D01*
X161875610Y-107057384D01*
X161900651Y-107024692D01*
X161929519Y-106985255D01*
X161940000Y-106956228D01*
X161949416Y-106932095D01*
X161955451Y-106930000D01*
X161973818Y-106914067D01*
X162000521Y-106874390D01*
X162008601Y-106860000D01*
X162037154Y-106815558D01*
X162061639Y-106791438D01*
X162066482Y-106790000D01*
X162076505Y-106780907D01*
X162073289Y-106776623D01*
X162074361Y-106753593D01*
X162090790Y-106729126D01*
X162113376Y-106695458D01*
X162117118Y-106677503D01*
X162121743Y-106649832D01*
X162138764Y-106601118D01*
X162147601Y-106580000D01*
X162167273Y-106530007D01*
X162195626Y-106451467D01*
X162229705Y-106353264D01*
X162266555Y-106244282D01*
X162303220Y-106133406D01*
X162336745Y-106029519D01*
X162364174Y-105941505D01*
X162382551Y-105878249D01*
X162387132Y-105860000D01*
X162393774Y-105823235D01*
X162388225Y-105821593D01*
X162379280Y-105835000D01*
X162352462Y-105863811D01*
X162336557Y-105870000D01*
X162325978Y-105859243D01*
X162334107Y-105845000D01*
X162348631Y-105819158D01*
X162368184Y-105771448D01*
X162394714Y-105696639D01*
X162430164Y-105589502D01*
X162436871Y-105568770D01*
X162476936Y-105413622D01*
X162479215Y-105400000D01*
X162500000Y-105400000D01*
X162510000Y-105410000D01*
X162520000Y-105400000D01*
X162510000Y-105390000D01*
X162500000Y-105400000D01*
X162479215Y-105400000D01*
X162508014Y-105227831D01*
X162529057Y-105019961D01*
X162539020Y-104798573D01*
X162539696Y-104727500D01*
X162539062Y-104575953D01*
X162536506Y-104460386D01*
X162531515Y-104376805D01*
X162523578Y-104321215D01*
X162512180Y-104289621D01*
X162496810Y-104278028D01*
X162482280Y-104280088D01*
X162461499Y-104285009D01*
X162473805Y-104268393D01*
X162475000Y-104267184D01*
X162505435Y-104253480D01*
X162520474Y-104262474D01*
X162539218Y-104301456D01*
X162554769Y-104373173D01*
X162566786Y-104470463D01*
X162574924Y-104586164D01*
X162578841Y-104713114D01*
X162578195Y-104844149D01*
X162572642Y-104972108D01*
X162561840Y-105089828D01*
X162560557Y-105100000D01*
X162553690Y-105171586D01*
X162552792Y-105227341D01*
X162558017Y-105255735D01*
X162558469Y-105256258D01*
X162563267Y-105283193D01*
X162559077Y-105336051D01*
X162550252Y-105386258D01*
X162534711Y-105450237D01*
X162509393Y-105544374D01*
X162476658Y-105660714D01*
X162438864Y-105791301D01*
X162398373Y-105928180D01*
X162357543Y-106063393D01*
X162318734Y-106188987D01*
X162284307Y-106297004D01*
X162256619Y-106379489D01*
X162250908Y-106395516D01*
X162228947Y-106460922D01*
X162216270Y-106508692D01*
X162215285Y-106529540D01*
X162216064Y-106529791D01*
X162230148Y-106512329D01*
X162254466Y-106465865D01*
X162285434Y-106398933D01*
X162319464Y-106320066D01*
X162352971Y-106237800D01*
X162382369Y-106160669D01*
X162404073Y-106097205D01*
X162414130Y-106058420D01*
X162425760Y-106016495D01*
X162440182Y-106000781D01*
X162442625Y-106001622D01*
X162451743Y-106016988D01*
X162449997Y-106048581D01*
X162436075Y-106100810D01*
X162408662Y-106178083D01*
X162366442Y-106284809D01*
X162336477Y-106357556D01*
X162263131Y-106527675D01*
X162191853Y-106677739D01*
X162117312Y-106816836D01*
X162034177Y-106954053D01*
X161937119Y-107098478D01*
X161820807Y-107259198D01*
X161760205Y-107340000D01*
X161661227Y-107469925D01*
X161582656Y-107570605D01*
X161521603Y-107645312D01*
X161475178Y-107697316D01*
X161440494Y-107729890D01*
X161414662Y-107746304D01*
X161398137Y-107750000D01*
X161366670Y-107759180D01*
X161360000Y-107771020D01*
X161341988Y-107794786D01*
X161295555Y-107818320D01*
X161232103Y-107837634D01*
X161163034Y-107848740D01*
X161134166Y-107850000D01*
X161070512Y-107846418D01*
X160984282Y-107836881D01*
X160886899Y-107823197D01*
X160789787Y-107807175D01*
X160704369Y-107790625D01*
X160642069Y-107775355D01*
X160630007Y-107771211D01*
X161009251Y-107771211D01*
X161017436Y-107782222D01*
X161055261Y-107784739D01*
X161113567Y-107780009D01*
X161183198Y-107769277D01*
X161254996Y-107753790D01*
X161319805Y-107734793D01*
X161343573Y-107725717D01*
X161406447Y-107693936D01*
X161458173Y-107658738D01*
X161473573Y-107644150D01*
X161495275Y-107618181D01*
X161492836Y-107616017D01*
X161462873Y-107637950D01*
X161452302Y-107646000D01*
X161401250Y-107681457D01*
X161377526Y-107690025D01*
X161380567Y-107673485D01*
X161409808Y-107633620D01*
X161464686Y-107572210D01*
X161476327Y-107560000D01*
X161540000Y-107560000D01*
X161550000Y-107570000D01*
X161560000Y-107560000D01*
X161550000Y-107550000D01*
X161540000Y-107560000D01*
X161476327Y-107560000D01*
X161481094Y-107555000D01*
X161504918Y-107530000D01*
X161563800Y-107530000D01*
X161583089Y-107516856D01*
X161610000Y-107490000D01*
X161633096Y-107461027D01*
X161636199Y-107450000D01*
X161616910Y-107463143D01*
X161590000Y-107490000D01*
X161566903Y-107518972D01*
X161563800Y-107530000D01*
X161504918Y-107530000D01*
X161545125Y-107487807D01*
X161604328Y-107424444D01*
X161649052Y-107375283D01*
X161660557Y-107362115D01*
X161710000Y-107304231D01*
X161652432Y-107341098D01*
X161611166Y-107372511D01*
X161552946Y-107423030D01*
X161488697Y-107483072D01*
X161472432Y-107498982D01*
X161404939Y-107561048D01*
X161336497Y-107616385D01*
X161279844Y-107654848D01*
X161270305Y-107660000D01*
X161214882Y-107690348D01*
X161172378Y-107718015D01*
X161163876Y-107725000D01*
X161124900Y-107743583D01*
X161079751Y-107750000D01*
X161033811Y-107756711D01*
X161009251Y-107771211D01*
X160630007Y-107771211D01*
X160624290Y-107769247D01*
X160580890Y-107757600D01*
X160513108Y-107746126D01*
X160444290Y-107738182D01*
X160314886Y-107720277D01*
X160167518Y-107689902D01*
X160129767Y-107680000D01*
X160480000Y-107680000D01*
X160490000Y-107690000D01*
X160500000Y-107680000D01*
X160490000Y-107670000D01*
X160480000Y-107680000D01*
X160129767Y-107680000D01*
X160020543Y-107651351D01*
X159893182Y-107609249D01*
X159864757Y-107600000D01*
X159940000Y-107600000D01*
X159950000Y-107610000D01*
X159960000Y-107600000D01*
X159950000Y-107590000D01*
X159940000Y-107600000D01*
X159864757Y-107600000D01*
X159835253Y-107590400D01*
X159793725Y-107582760D01*
X159780945Y-107585380D01*
X159761820Y-107601928D01*
X159716469Y-107637726D01*
X159650802Y-107688209D01*
X159570728Y-107748809D01*
X159530000Y-107779336D01*
X159445356Y-107842836D01*
X159372431Y-107898019D01*
X159317095Y-107940406D01*
X159285217Y-107965519D01*
X159280000Y-107970090D01*
X159260675Y-107986270D01*
X159216664Y-108020667D01*
X159155337Y-108067573D01*
X159110000Y-108101823D01*
X158961409Y-108214013D01*
X158840472Y-108306680D01*
X158742531Y-108383876D01*
X158662926Y-108449655D01*
X158596998Y-108508070D01*
X158540088Y-108563174D01*
X158487537Y-108619019D01*
X158434686Y-108679658D01*
X158404929Y-108715165D01*
X158303599Y-108835024D01*
X158207514Y-108944601D01*
X158120240Y-109040147D01*
X158045339Y-109117912D01*
X157986377Y-109174147D01*
X157946916Y-109205103D01*
X157934558Y-109210000D01*
X157907662Y-109223411D01*
X157863906Y-109258320D01*
X157820000Y-109300000D01*
X157752934Y-109357649D01*
X157694913Y-109387009D01*
X157650802Y-109386563D01*
X157627236Y-109360010D01*
X157614218Y-109346656D01*
X157588126Y-109355387D01*
X157541365Y-109388931D01*
X157536942Y-109392421D01*
X157484747Y-109428829D01*
X157451234Y-109442449D01*
X157440886Y-109432540D01*
X157452835Y-109406330D01*
X157470927Y-109369794D01*
X157491587Y-109317532D01*
X157492458Y-109315064D01*
X157499498Y-109295000D01*
X157680383Y-109295000D01*
X157685077Y-109334925D01*
X157695835Y-109350000D01*
X157717209Y-109336697D01*
X157756369Y-109302225D01*
X157794060Y-109265000D01*
X157841491Y-109211195D01*
X157885613Y-109152928D01*
X157921325Y-109098263D01*
X157930754Y-109080000D01*
X158013258Y-109080000D01*
X158106629Y-108990835D01*
X158154478Y-108944312D01*
X158188152Y-108909985D01*
X158200000Y-108895835D01*
X158189085Y-108887394D01*
X158159449Y-108907657D01*
X158115755Y-108952879D01*
X158089038Y-108985000D01*
X158013258Y-109080000D01*
X157930754Y-109080000D01*
X157943524Y-109055264D01*
X157947108Y-109031994D01*
X157942758Y-109030000D01*
X157918288Y-109043355D01*
X157890426Y-109069528D01*
X157857658Y-109094807D01*
X157835298Y-109097094D01*
X157809904Y-109102351D01*
X157774094Y-109133124D01*
X157735741Y-109179354D01*
X157702718Y-109230984D01*
X157682898Y-109277956D01*
X157680383Y-109295000D01*
X157499498Y-109295000D01*
X157515241Y-109250129D01*
X157462620Y-109291016D01*
X157371516Y-109361219D01*
X157305915Y-109409116D01*
X157259988Y-109437262D01*
X157227902Y-109448212D01*
X157203826Y-109444519D01*
X157181928Y-109428738D01*
X157171428Y-109418571D01*
X157145885Y-109381053D01*
X157142391Y-109367705D01*
X157180000Y-109367705D01*
X157191946Y-109406149D01*
X157222519Y-109413399D01*
X157263815Y-109388198D01*
X157270000Y-109382012D01*
X157296699Y-109351472D01*
X157295806Y-109336196D01*
X157271305Y-109324277D01*
X157219288Y-109316205D01*
X157186961Y-109337911D01*
X157180000Y-109367705D01*
X157142391Y-109367705D01*
X157140000Y-109358571D01*
X157137368Y-109337743D01*
X157123909Y-109332757D01*
X157091275Y-109344668D01*
X157036823Y-109371620D01*
X156975952Y-109396864D01*
X156940277Y-109396641D01*
X156934276Y-109392276D01*
X156928626Y-109370843D01*
X156951655Y-109356624D01*
X156993056Y-109335928D01*
X157046418Y-109303543D01*
X157057370Y-109296254D01*
X157103074Y-109269736D01*
X157135132Y-109259169D01*
X157140251Y-109260155D01*
X157155986Y-109249311D01*
X157166148Y-109231750D01*
X157211680Y-109231750D01*
X157226828Y-109236874D01*
X157264287Y-109225508D01*
X157300156Y-109208073D01*
X157308135Y-109193265D01*
X157306927Y-109192138D01*
X157282227Y-109170000D01*
X157405168Y-109170000D01*
X157425404Y-109156897D01*
X157444639Y-109139916D01*
X157510000Y-109139916D01*
X157579900Y-109079958D01*
X157623296Y-109043178D01*
X157640971Y-109028697D01*
X157784903Y-109028697D01*
X157787639Y-109030000D01*
X157805891Y-109015920D01*
X157810000Y-109010000D01*
X157813488Y-108997203D01*
X157910058Y-108997203D01*
X157923723Y-108994663D01*
X157945183Y-108984944D01*
X157991814Y-108950964D01*
X158018624Y-108915000D01*
X158021225Y-108908697D01*
X158084903Y-108908697D01*
X158087639Y-108910000D01*
X158105891Y-108895920D01*
X158110000Y-108890000D01*
X158115096Y-108871302D01*
X158112360Y-108870000D01*
X158094108Y-108884079D01*
X158090000Y-108890000D01*
X158084903Y-108908697D01*
X158021225Y-108908697D01*
X158032152Y-108882223D01*
X158029635Y-108874112D01*
X158007413Y-108892223D01*
X157961825Y-108938117D01*
X157960053Y-108939944D01*
X157921670Y-108980468D01*
X157910058Y-108997203D01*
X157813488Y-108997203D01*
X157815096Y-108991302D01*
X157812360Y-108990000D01*
X157794108Y-109004079D01*
X157790000Y-109010000D01*
X157784903Y-109028697D01*
X157640971Y-109028697D01*
X157652539Y-109019219D01*
X157658233Y-109015000D01*
X157656966Y-109000299D01*
X157639292Y-109008044D01*
X157604605Y-109038437D01*
X157578632Y-109065257D01*
X157510000Y-109139916D01*
X157444639Y-109139916D01*
X157463706Y-109123084D01*
X157497658Y-109090000D01*
X157537977Y-109046983D01*
X157560851Y-109017943D01*
X157562490Y-109010000D01*
X157541709Y-109023206D01*
X157503236Y-109057259D01*
X157470000Y-109090000D01*
X157429959Y-109133171D01*
X157407067Y-109162218D01*
X157405168Y-109170000D01*
X157282227Y-109170000D01*
X157277860Y-109166086D01*
X157271813Y-109159767D01*
X157261608Y-109156175D01*
X157266185Y-109175000D01*
X157268840Y-109203812D01*
X157261038Y-109210000D01*
X157239246Y-109194237D01*
X157235171Y-109185515D01*
X157225077Y-109181869D01*
X157215864Y-109203652D01*
X157211680Y-109231750D01*
X157166148Y-109231750D01*
X157178219Y-109210891D01*
X157189550Y-109184870D01*
X157204774Y-109152448D01*
X157320000Y-109152448D01*
X157331762Y-109169294D01*
X157359182Y-109159580D01*
X157380401Y-109139516D01*
X157395820Y-109109308D01*
X157393333Y-109096666D01*
X157371068Y-109097484D01*
X157341593Y-109117615D01*
X157321642Y-109144331D01*
X157320000Y-109152448D01*
X157204774Y-109152448D01*
X157221745Y-109116304D01*
X157228344Y-109105085D01*
X157267141Y-109105085D01*
X157268961Y-109110000D01*
X157289607Y-109099225D01*
X157335110Y-109070244D01*
X157397759Y-109028073D01*
X157409401Y-109020000D01*
X157460000Y-109020000D01*
X157470000Y-109030000D01*
X157480000Y-109020000D01*
X157470000Y-109010000D01*
X157460000Y-109020000D01*
X157409401Y-109020000D01*
X157440444Y-108998474D01*
X157518077Y-108940792D01*
X157590075Y-108881569D01*
X157633989Y-108840675D01*
X158126506Y-108840675D01*
X158127908Y-108850000D01*
X158143692Y-108834833D01*
X158150112Y-108826522D01*
X158214858Y-108826522D01*
X158216632Y-108830000D01*
X158238496Y-108816399D01*
X158278210Y-108780836D01*
X158324546Y-108733760D01*
X158382020Y-108668347D01*
X158423725Y-108613248D01*
X158447686Y-108572663D01*
X158451930Y-108550794D01*
X158434481Y-108551839D01*
X158398866Y-108575636D01*
X158370463Y-108604045D01*
X158332770Y-108649518D01*
X158292076Y-108703279D01*
X158254667Y-108756551D01*
X158226832Y-108800557D01*
X158214858Y-108826522D01*
X158150112Y-108826522D01*
X158173998Y-108795601D01*
X158202522Y-108755000D01*
X158230266Y-108710762D01*
X158238998Y-108689172D01*
X158228483Y-108693658D01*
X158199689Y-108724896D01*
X158168309Y-108767252D01*
X158141522Y-108809565D01*
X158126506Y-108840675D01*
X157633989Y-108840675D01*
X157644964Y-108830455D01*
X157660366Y-108813474D01*
X157684328Y-108788697D01*
X157924903Y-108788697D01*
X157927639Y-108790000D01*
X157945891Y-108775920D01*
X157950000Y-108770000D01*
X157955096Y-108751302D01*
X157952360Y-108750000D01*
X157934108Y-108764079D01*
X157930000Y-108770000D01*
X157924903Y-108788697D01*
X157684328Y-108788697D01*
X157703744Y-108768621D01*
X157730547Y-108758648D01*
X157735636Y-108763206D01*
X157757422Y-108770257D01*
X157797253Y-108745703D01*
X157805767Y-108738567D01*
X157827352Y-108720000D01*
X157960000Y-108720000D01*
X157970000Y-108730000D01*
X157980000Y-108720000D01*
X157970000Y-108710000D01*
X157960000Y-108720000D01*
X157827352Y-108720000D01*
X157861391Y-108690721D01*
X157795695Y-108703270D01*
X157701479Y-108733124D01*
X157597202Y-108784979D01*
X157498712Y-108850358D01*
X157458710Y-108883544D01*
X157410430Y-108930333D01*
X157360762Y-108983485D01*
X157316077Y-109035397D01*
X157282746Y-109078465D01*
X157267141Y-109105085D01*
X157228344Y-109105085D01*
X157259331Y-109052407D01*
X157268087Y-109040000D01*
X157301692Y-108993615D01*
X157325482Y-108958467D01*
X157327434Y-108955263D01*
X157322853Y-108949934D01*
X157294640Y-108963738D01*
X157250701Y-108991200D01*
X157198937Y-109026844D01*
X157147254Y-109065195D01*
X157103556Y-109100778D01*
X157075744Y-109128118D01*
X157073363Y-109131267D01*
X157048447Y-109156564D01*
X157033861Y-109156248D01*
X157031001Y-109138773D01*
X157043840Y-109115533D01*
X157075736Y-109083741D01*
X157130045Y-109040615D01*
X157210123Y-108983368D01*
X157319326Y-108909216D01*
X157381284Y-108867987D01*
X157546481Y-108757424D01*
X157665529Y-108675350D01*
X157746282Y-108675350D01*
X157746901Y-108682019D01*
X157750000Y-108680952D01*
X157801214Y-108663857D01*
X157843382Y-108652525D01*
X157887902Y-108628164D01*
X157942052Y-108579027D01*
X157996139Y-108515362D01*
X158032261Y-108460000D01*
X158071444Y-108460000D01*
X158141599Y-108400000D01*
X158184142Y-108360000D01*
X158700000Y-108360000D01*
X158710000Y-108370000D01*
X158720000Y-108360000D01*
X158710000Y-108350000D01*
X158700000Y-108360000D01*
X158184142Y-108360000D01*
X158198048Y-108346925D01*
X158223567Y-108320000D01*
X158740000Y-108320000D01*
X158750000Y-108330000D01*
X158760000Y-108320000D01*
X158750000Y-108310000D01*
X158740000Y-108320000D01*
X158223567Y-108320000D01*
X158253235Y-108288697D01*
X158804903Y-108288697D01*
X158807639Y-108290000D01*
X158825891Y-108275920D01*
X158830000Y-108270000D01*
X158835096Y-108251302D01*
X158832360Y-108250000D01*
X158814108Y-108264079D01*
X158810000Y-108270000D01*
X158804903Y-108288697D01*
X158253235Y-108288697D01*
X158258596Y-108283041D01*
X158280877Y-108257374D01*
X158312480Y-108220000D01*
X158880000Y-108220000D01*
X158890000Y-108230000D01*
X158900000Y-108220000D01*
X158890000Y-108210000D01*
X158880000Y-108220000D01*
X158312480Y-108220000D01*
X158328559Y-108200984D01*
X158363671Y-108159924D01*
X158850790Y-108159924D01*
X158862854Y-108156816D01*
X158895825Y-108135559D01*
X158952754Y-108094319D01*
X159036692Y-108031256D01*
X159089078Y-107991473D01*
X159197970Y-107905850D01*
X159302231Y-107818771D01*
X159355530Y-107771581D01*
X159423343Y-107771581D01*
X159443612Y-107763938D01*
X159493048Y-107733446D01*
X159573404Y-107680284D01*
X159598313Y-107663617D01*
X159668174Y-107615944D01*
X159709016Y-107584444D01*
X159725539Y-107563773D01*
X159722441Y-107548586D01*
X159709490Y-107537154D01*
X159676024Y-107516742D01*
X159661177Y-107512416D01*
X159643647Y-107527234D01*
X159605686Y-107565077D01*
X159553772Y-107619375D01*
X159520000Y-107655626D01*
X159463290Y-107717604D01*
X159430487Y-107756196D01*
X159423343Y-107771581D01*
X159355530Y-107771581D01*
X159397738Y-107734210D01*
X159480371Y-107656140D01*
X159546008Y-107588535D01*
X159590528Y-107535368D01*
X159609810Y-107500614D01*
X159608263Y-107490888D01*
X159589694Y-107489551D01*
X159554750Y-107510675D01*
X159500285Y-107556679D01*
X159423151Y-107629983D01*
X159408263Y-107644636D01*
X159321517Y-107728774D01*
X159232608Y-107812293D01*
X159146732Y-107890602D01*
X159069085Y-107959111D01*
X159004864Y-108013231D01*
X158959264Y-108048373D01*
X158938042Y-108060000D01*
X158917461Y-108074253D01*
X158884887Y-108109485D01*
X158877179Y-108119042D01*
X158856582Y-108146720D01*
X158850790Y-108159924D01*
X158363671Y-108159924D01*
X158390123Y-108128992D01*
X158449624Y-108060000D01*
X158520000Y-108060000D01*
X158530000Y-108070000D01*
X158540000Y-108060000D01*
X158530000Y-108050000D01*
X158520000Y-108060000D01*
X158449624Y-108060000D01*
X158453140Y-108055923D01*
X158460000Y-108048015D01*
X158476254Y-108028697D01*
X158564903Y-108028697D01*
X158567639Y-108030000D01*
X158585891Y-108015920D01*
X158590000Y-108010000D01*
X158595096Y-107991302D01*
X158592360Y-107990000D01*
X158574108Y-108004079D01*
X158570000Y-108010000D01*
X158564903Y-108028697D01*
X158476254Y-108028697D01*
X158509369Y-107989339D01*
X158531368Y-107958419D01*
X158526539Y-107954361D01*
X158510000Y-107965167D01*
X158385347Y-108066407D01*
X158287137Y-108170379D01*
X158256376Y-108210089D01*
X158204919Y-108279820D01*
X158151310Y-108352307D01*
X158130722Y-108380089D01*
X158071444Y-108460000D01*
X158032261Y-108460000D01*
X158040470Y-108447419D01*
X158044399Y-108440000D01*
X158047937Y-108423775D01*
X158026294Y-108436924D01*
X157997508Y-108462175D01*
X157945091Y-108508161D01*
X157877145Y-108564787D01*
X157820000Y-108610602D01*
X157772185Y-108650000D01*
X157746282Y-108675350D01*
X157665529Y-108675350D01*
X157683047Y-108663273D01*
X157796618Y-108581315D01*
X157892829Y-108507331D01*
X157977317Y-108437102D01*
X158040646Y-108380000D01*
X158080000Y-108380000D01*
X158090000Y-108390000D01*
X158100000Y-108380000D01*
X158090000Y-108370000D01*
X158080000Y-108380000D01*
X158040646Y-108380000D01*
X158055720Y-108366408D01*
X158072608Y-108350472D01*
X158146009Y-108279387D01*
X158189544Y-108233970D01*
X158203054Y-108214209D01*
X158186381Y-108220091D01*
X158139368Y-108251604D01*
X158061856Y-108308737D01*
X158012855Y-108345958D01*
X157933236Y-108406155D01*
X157865023Y-108456422D01*
X157814432Y-108492277D01*
X157787677Y-108509237D01*
X157785435Y-108510000D01*
X157784742Y-108498792D01*
X157811752Y-108467829D01*
X157861981Y-108421099D01*
X157930942Y-108362590D01*
X158014150Y-108296292D01*
X158092484Y-108236974D01*
X158240397Y-108118082D01*
X158359844Y-108000000D01*
X158410006Y-108000000D01*
X158497812Y-107930000D01*
X158506865Y-107922437D01*
X159031832Y-107922437D01*
X159039867Y-107924655D01*
X159069234Y-107907086D01*
X159111300Y-107876443D01*
X159157434Y-107839439D01*
X159199005Y-107802789D01*
X159227382Y-107773205D01*
X159232025Y-107766723D01*
X159223993Y-107766890D01*
X159191110Y-107786572D01*
X159144046Y-107819002D01*
X159088785Y-107862241D01*
X159047600Y-107901005D01*
X159031832Y-107922437D01*
X158506865Y-107922437D01*
X158532760Y-107900803D01*
X158682613Y-107900803D01*
X158687819Y-107909383D01*
X158696258Y-107910000D01*
X158718714Y-107896559D01*
X158755762Y-107862807D01*
X158771258Y-107846684D01*
X158830000Y-107783368D01*
X158755000Y-107839058D01*
X158703836Y-107878775D01*
X158682613Y-107900803D01*
X158532760Y-107900803D01*
X158562162Y-107876240D01*
X158635552Y-107811393D01*
X158680293Y-107770000D01*
X158773951Y-107770000D01*
X158803231Y-107756162D01*
X158811628Y-107748069D01*
X159163614Y-107748069D01*
X159171595Y-107754606D01*
X159202657Y-107738455D01*
X159224198Y-107723069D01*
X159271335Y-107690463D01*
X159306891Y-107671749D01*
X159314438Y-107670000D01*
X159342552Y-107656045D01*
X159362551Y-107636354D01*
X159364313Y-107624847D01*
X159334116Y-107634752D01*
X159281304Y-107661354D01*
X159222353Y-107696709D01*
X159179376Y-107729113D01*
X159163614Y-107748069D01*
X158811628Y-107748069D01*
X158820000Y-107740000D01*
X158851752Y-107714702D01*
X158868074Y-107710000D01*
X158891705Y-107696450D01*
X158933655Y-107661180D01*
X159140000Y-107661180D01*
X159149695Y-107681881D01*
X159160000Y-107680000D01*
X159179237Y-107654430D01*
X159180000Y-107648819D01*
X159164745Y-107630538D01*
X159160000Y-107630000D01*
X159142447Y-107646279D01*
X159140000Y-107661180D01*
X158933655Y-107661180D01*
X158934677Y-107660321D01*
X158973949Y-107622889D01*
X159206392Y-107622889D01*
X159209954Y-107629926D01*
X159236061Y-107636643D01*
X159278440Y-107620806D01*
X159339915Y-107595638D01*
X159392305Y-107581536D01*
X159437830Y-107563195D01*
X159483116Y-107529815D01*
X159517830Y-107491430D01*
X159519468Y-107487473D01*
X159698715Y-107487473D01*
X159730868Y-107510768D01*
X159780000Y-107535818D01*
X159853133Y-107569179D01*
X159896779Y-107585815D01*
X159916830Y-107587664D01*
X159920000Y-107581900D01*
X159903376Y-107563901D01*
X159861921Y-107538079D01*
X159829490Y-107521502D01*
X160053096Y-107521502D01*
X160084172Y-107538456D01*
X160153699Y-107564535D01*
X160165096Y-107568368D01*
X160276392Y-107601625D01*
X160383727Y-107626922D01*
X160479891Y-107643230D01*
X160557675Y-107649524D01*
X160609869Y-107644777D01*
X160627408Y-107634193D01*
X160613795Y-107624219D01*
X160569041Y-107611339D01*
X160501667Y-107597822D01*
X160473588Y-107593248D01*
X160375199Y-107576571D01*
X160272202Y-107556651D01*
X160186308Y-107537697D01*
X160183669Y-107537052D01*
X160103536Y-107519635D01*
X160059781Y-107514840D01*
X160053096Y-107521502D01*
X159829490Y-107521502D01*
X159808259Y-107510650D01*
X159755017Y-107487830D01*
X159728778Y-107480000D01*
X159960000Y-107480000D01*
X159970000Y-107490000D01*
X159980000Y-107480000D01*
X159970000Y-107470000D01*
X159960000Y-107480000D01*
X159728778Y-107480000D01*
X159714817Y-107475834D01*
X159704199Y-107475658D01*
X159698715Y-107487473D01*
X159519468Y-107487473D01*
X159530840Y-107460000D01*
X159620000Y-107460000D01*
X159630000Y-107470000D01*
X159640000Y-107460000D01*
X159630000Y-107450000D01*
X159620000Y-107460000D01*
X159530840Y-107460000D01*
X159531639Y-107458070D01*
X159529171Y-107448660D01*
X159497842Y-107420000D01*
X159640000Y-107420000D01*
X159650000Y-107430000D01*
X159660000Y-107420000D01*
X159650000Y-107410000D01*
X159640000Y-107420000D01*
X159497842Y-107420000D01*
X159489267Y-107412155D01*
X159442723Y-107408530D01*
X159410676Y-107429252D01*
X159388180Y-107456351D01*
X159395182Y-107461603D01*
X159418159Y-107456276D01*
X159451590Y-107456040D01*
X159460000Y-107467667D01*
X159445840Y-107488925D01*
X159439602Y-107490000D01*
X159412085Y-107500091D01*
X159364680Y-107525807D01*
X159334602Y-107544335D01*
X159283001Y-107576282D01*
X159245375Y-107597401D01*
X159235000Y-107601835D01*
X159208819Y-107607500D01*
X159206392Y-107622889D01*
X158973949Y-107622889D01*
X158989163Y-107608388D01*
X159010626Y-107586574D01*
X159051499Y-107544314D01*
X159215648Y-107544314D01*
X159231581Y-107543098D01*
X159271212Y-107514321D01*
X159318368Y-107471568D01*
X159371184Y-107415344D01*
X159397878Y-107374470D01*
X159396342Y-107352779D01*
X159385000Y-107350306D01*
X159360067Y-107358769D01*
X159327670Y-107387105D01*
X159281578Y-107441164D01*
X159262802Y-107465000D01*
X159225395Y-107518203D01*
X159215648Y-107544314D01*
X159051499Y-107544314D01*
X159095326Y-107499000D01*
X159140636Y-107499000D01*
X159147841Y-107506439D01*
X159155055Y-107499000D01*
X159176125Y-107473921D01*
X159213573Y-107430533D01*
X159240055Y-107400189D01*
X159277595Y-107356738D01*
X159285976Y-107345143D01*
X159491523Y-107345143D01*
X159499575Y-107359718D01*
X159532755Y-107381366D01*
X159578912Y-107402664D01*
X159595000Y-107408375D01*
X159599966Y-107395153D01*
X159600000Y-107393210D01*
X159583742Y-107372810D01*
X159547449Y-107352992D01*
X159509846Y-107342053D01*
X159491523Y-107345143D01*
X159285976Y-107345143D01*
X159289267Y-107340590D01*
X159275933Y-107349287D01*
X159250573Y-107370189D01*
X159179879Y-107435501D01*
X159144827Y-107483083D01*
X159140636Y-107499000D01*
X159095326Y-107499000D01*
X159130000Y-107463149D01*
X159028851Y-107541574D01*
X158935947Y-107615142D01*
X158860306Y-107678098D01*
X158805641Y-107727112D01*
X158775669Y-107758855D01*
X158773951Y-107770000D01*
X158680293Y-107770000D01*
X158682809Y-107767672D01*
X158743036Y-107705405D01*
X158775475Y-107660203D01*
X158778545Y-107634726D01*
X158764556Y-107630000D01*
X158732918Y-107644699D01*
X158683518Y-107684472D01*
X158623171Y-107742833D01*
X158558688Y-107813294D01*
X158510003Y-107872356D01*
X158410006Y-108000000D01*
X158359844Y-108000000D01*
X158360129Y-107999718D01*
X158418401Y-107930463D01*
X158505499Y-107825008D01*
X158588026Y-107734662D01*
X158661705Y-107663450D01*
X158722261Y-107615394D01*
X158765416Y-107594518D01*
X158775589Y-107594372D01*
X158802199Y-107616524D01*
X158803662Y-107637732D01*
X158806026Y-107662496D01*
X158823662Y-107657930D01*
X158851748Y-107637820D01*
X158901821Y-107599427D01*
X158964926Y-107549817D01*
X159032104Y-107496054D01*
X159094400Y-107445202D01*
X159113465Y-107429340D01*
X159163589Y-107390616D01*
X159210889Y-107357578D01*
X159245417Y-107332523D01*
X159248480Y-107318375D01*
X159227423Y-107307517D01*
X159177239Y-107295189D01*
X159139581Y-107291405D01*
X159105331Y-107283005D01*
X159368673Y-107283005D01*
X159388579Y-107307182D01*
X159422972Y-107325576D01*
X159447448Y-107329555D01*
X159474594Y-107327506D01*
X159472407Y-107317021D01*
X159440559Y-107291119D01*
X159401289Y-107267503D01*
X159374982Y-107263119D01*
X159374588Y-107263344D01*
X159368673Y-107283005D01*
X159105331Y-107283005D01*
X159077218Y-107276110D01*
X158993905Y-107235861D01*
X158895984Y-107174948D01*
X158789795Y-107097664D01*
X158681679Y-107008299D01*
X158578563Y-106911731D01*
X158441777Y-106762197D01*
X158340337Y-106623324D01*
X158274624Y-106495999D01*
X158245022Y-106381110D01*
X158250858Y-106295074D01*
X158283392Y-106295074D01*
X158286759Y-106380669D01*
X158307441Y-106476398D01*
X158343624Y-106570288D01*
X158353232Y-106589038D01*
X158381914Y-106632721D01*
X158428411Y-106693242D01*
X158486942Y-106764127D01*
X158551727Y-106838901D01*
X158616983Y-106911088D01*
X158676932Y-106974213D01*
X158725793Y-107021802D01*
X158757784Y-107047379D01*
X158764753Y-107050000D01*
X158761134Y-107035051D01*
X158739399Y-106995986D01*
X158706715Y-106945000D01*
X158684982Y-106915356D01*
X158740404Y-106915356D01*
X158745756Y-106932669D01*
X158770279Y-106969117D01*
X158812027Y-107020672D01*
X158845000Y-107057688D01*
X158930574Y-107139600D01*
X159016858Y-107196141D01*
X159070000Y-107220451D01*
X159134554Y-107245632D01*
X159184548Y-107263367D01*
X159207588Y-107269525D01*
X159199406Y-107259104D01*
X159164035Y-107230407D01*
X159107214Y-107187872D01*
X159037588Y-107137983D01*
X158956226Y-107079584D01*
X158881720Y-107024065D01*
X158823429Y-106978514D01*
X158795000Y-106954241D01*
X158756169Y-106921204D01*
X158740404Y-106915356D01*
X158684982Y-106915356D01*
X158652933Y-106871640D01*
X158587243Y-106791107D01*
X158539862Y-106738094D01*
X158460758Y-106632939D01*
X158439927Y-106584203D01*
X158480000Y-106584203D01*
X158490576Y-106609508D01*
X158515360Y-106648420D01*
X158543938Y-106686314D01*
X158565894Y-106708562D01*
X158569579Y-106710000D01*
X158570772Y-106693850D01*
X158566133Y-106671295D01*
X158550360Y-106638644D01*
X158524729Y-106605757D01*
X158498768Y-106582270D01*
X158482006Y-106577817D01*
X158480000Y-106584203D01*
X158439927Y-106584203D01*
X158413666Y-106522764D01*
X158398535Y-106413430D01*
X158415318Y-106310798D01*
X158463964Y-106220731D01*
X158544425Y-106149088D01*
X158544817Y-106148843D01*
X158610000Y-106108051D01*
X158530000Y-106121560D01*
X158420147Y-106148811D01*
X158341139Y-106187355D01*
X158299150Y-106231587D01*
X158283392Y-106295074D01*
X158250858Y-106295074D01*
X158251911Y-106279546D01*
X158279004Y-106216276D01*
X158303667Y-106179868D01*
X158331671Y-106151249D01*
X158369477Y-106127606D01*
X158423545Y-106106125D01*
X158500337Y-106083994D01*
X158606312Y-106058401D01*
X158643357Y-106050000D01*
X158860000Y-106050000D01*
X158866823Y-106069480D01*
X158868819Y-106070000D01*
X158885895Y-106055985D01*
X158890000Y-106050000D01*
X158889139Y-106040000D01*
X158920000Y-106040000D01*
X158930000Y-106050000D01*
X158939976Y-106040024D01*
X158968239Y-106040024D01*
X158970114Y-106047609D01*
X158990000Y-106048582D01*
X159037251Y-106038775D01*
X159080000Y-106020000D01*
X159111760Y-105999975D01*
X159109885Y-105992390D01*
X159090000Y-105991417D01*
X159042748Y-106001224D01*
X159000000Y-106020000D01*
X158968239Y-106040024D01*
X158939976Y-106040024D01*
X158940000Y-106040000D01*
X158930000Y-106030000D01*
X158920000Y-106040000D01*
X158889139Y-106040000D01*
X158888414Y-106031570D01*
X158881180Y-106030000D01*
X158860813Y-106044518D01*
X158860000Y-106050000D01*
X158643357Y-106050000D01*
X158680000Y-106041690D01*
X158744715Y-106024564D01*
X158779568Y-106006268D01*
X158780826Y-106004092D01*
X158828962Y-106004092D01*
X158849432Y-106005507D01*
X158888928Y-105991954D01*
X158915605Y-105979465D01*
X158905260Y-105971119D01*
X158892793Y-105967667D01*
X159268386Y-105967667D01*
X159292234Y-105964731D01*
X159303786Y-105958602D01*
X159370899Y-105958602D01*
X159392903Y-105941632D01*
X159405000Y-105931214D01*
X159441171Y-105895888D01*
X159449144Y-105885000D01*
X159500812Y-105885000D01*
X159503387Y-105906139D01*
X159515904Y-105901359D01*
X159542334Y-105867401D01*
X159567342Y-105830428D01*
X159598371Y-105780702D01*
X159617290Y-105744915D01*
X159620000Y-105736184D01*
X159610047Y-105737500D01*
X159585538Y-105761813D01*
X159554498Y-105799104D01*
X159524953Y-105839353D01*
X159504925Y-105872541D01*
X159500812Y-105885000D01*
X159449144Y-105885000D01*
X159459456Y-105870917D01*
X159460000Y-105868386D01*
X159443934Y-105860999D01*
X159418868Y-105864500D01*
X159390073Y-105882721D01*
X159387305Y-105900191D01*
X159383962Y-105935104D01*
X159373437Y-105952263D01*
X159370899Y-105958602D01*
X159303786Y-105958602D01*
X159320000Y-105950000D01*
X159338742Y-105934467D01*
X159320728Y-105930373D01*
X159316180Y-105930306D01*
X159280018Y-105940497D01*
X159270000Y-105950000D01*
X159268386Y-105967667D01*
X158892793Y-105967667D01*
X158885220Y-105965570D01*
X158845112Y-105967373D01*
X158831919Y-105982210D01*
X158828962Y-106004092D01*
X158780826Y-106004092D01*
X158794383Y-105980641D01*
X158796693Y-105968511D01*
X158811112Y-105917129D01*
X158832967Y-105894255D01*
X158856608Y-105905086D01*
X158860101Y-105910167D01*
X158896223Y-105933859D01*
X158959202Y-105943072D01*
X159039221Y-105939293D01*
X159126460Y-105924012D01*
X159211103Y-105898714D01*
X159283331Y-105864890D01*
X159316817Y-105840952D01*
X159328590Y-105828697D01*
X159484903Y-105828697D01*
X159487639Y-105830000D01*
X159505891Y-105815920D01*
X159510000Y-105810000D01*
X159515096Y-105791302D01*
X159512360Y-105790000D01*
X159494108Y-105804079D01*
X159490000Y-105810000D01*
X159484903Y-105828697D01*
X159328590Y-105828697D01*
X159347814Y-105808687D01*
X159349127Y-105807079D01*
X159425878Y-105807079D01*
X159427772Y-105815712D01*
X159432257Y-105813783D01*
X159471172Y-105785251D01*
X159519147Y-105739769D01*
X159537257Y-105720068D01*
X159574456Y-105673262D01*
X159596951Y-105636399D01*
X159600000Y-105625970D01*
X159595855Y-105610188D01*
X159593634Y-105611666D01*
X159577970Y-105629483D01*
X159542573Y-105668733D01*
X159494721Y-105721349D01*
X159488634Y-105728019D01*
X159447317Y-105776096D01*
X159425878Y-105807079D01*
X159349127Y-105807079D01*
X159385290Y-105762790D01*
X159422481Y-105712678D01*
X159452623Y-105667766D01*
X159460927Y-105652360D01*
X159500000Y-105652360D01*
X159512322Y-105663203D01*
X159520000Y-105660000D01*
X159539253Y-105633505D01*
X159540000Y-105627639D01*
X159527677Y-105616796D01*
X159520000Y-105620000D01*
X159500746Y-105646494D01*
X159500000Y-105652360D01*
X159460927Y-105652360D01*
X159468952Y-105637473D01*
X159468330Y-105630000D01*
X159445289Y-105638307D01*
X159402778Y-105658583D01*
X159397394Y-105661347D01*
X159328372Y-105692409D01*
X159247754Y-105721650D01*
X159163324Y-105747204D01*
X159082871Y-105767207D01*
X159014181Y-105779794D01*
X158965040Y-105783100D01*
X158943234Y-105775261D01*
X158943302Y-105770093D01*
X158966520Y-105753598D01*
X159014760Y-105741758D01*
X159033726Y-105739722D01*
X159093275Y-105730078D01*
X159169229Y-105710837D01*
X159249429Y-105685953D01*
X159321721Y-105659381D01*
X159373948Y-105635075D01*
X159390000Y-105623829D01*
X159397746Y-105612419D01*
X159385000Y-105618246D01*
X159359806Y-105627488D01*
X159358434Y-105616601D01*
X159363872Y-105609373D01*
X159430699Y-105609373D01*
X159432302Y-105609555D01*
X159459150Y-105597949D01*
X159499239Y-105570593D01*
X159500000Y-105570000D01*
X159529323Y-105543462D01*
X159531251Y-105538663D01*
X159566455Y-105538663D01*
X159575906Y-105542014D01*
X159598486Y-105530810D01*
X159631100Y-105502131D01*
X159640000Y-105479296D01*
X159653725Y-105453032D01*
X159665000Y-105449752D01*
X159694430Y-105431653D01*
X159730035Y-105383800D01*
X159767792Y-105315118D01*
X159803677Y-105234532D01*
X159833667Y-105150966D01*
X159853738Y-105073345D01*
X159860000Y-105017225D01*
X159856081Y-104984217D01*
X159836985Y-104984776D01*
X159820000Y-104994641D01*
X159787050Y-105036546D01*
X159780000Y-105074596D01*
X159769232Y-105143852D01*
X159740953Y-105230056D01*
X159701192Y-105317821D01*
X159655983Y-105391758D01*
X159655328Y-105392639D01*
X159616696Y-105447854D01*
X159585372Y-105498410D01*
X159580995Y-105506513D01*
X159566455Y-105538663D01*
X159531251Y-105538663D01*
X159534473Y-105530644D01*
X159533154Y-105530444D01*
X159507099Y-105541426D01*
X159467245Y-105568601D01*
X159465457Y-105570000D01*
X159435987Y-105596669D01*
X159430699Y-105609373D01*
X159363872Y-105609373D01*
X159375972Y-105593288D01*
X159407509Y-105565247D01*
X159427574Y-105551498D01*
X159510612Y-105488648D01*
X159586081Y-105410407D01*
X159650379Y-105323487D01*
X159699904Y-105234604D01*
X159731052Y-105150468D01*
X159740222Y-105077795D01*
X159723811Y-105023298D01*
X159715999Y-105013999D01*
X159702085Y-104994182D01*
X159715999Y-104990000D01*
X159733939Y-104973348D01*
X159738663Y-104930609D01*
X159732365Y-104872607D01*
X159717241Y-104810166D01*
X159695486Y-104754112D01*
X159669295Y-104715269D01*
X159658666Y-104707288D01*
X159622143Y-104689368D01*
X159568761Y-104664869D01*
X159568462Y-104664736D01*
X159693251Y-104664736D01*
X159699100Y-104699519D01*
X159723495Y-104759334D01*
X159729144Y-104771588D01*
X159756759Y-104838212D01*
X159775172Y-104896600D01*
X159779804Y-104925000D01*
X159787299Y-104962732D01*
X159805765Y-104964891D01*
X159829905Y-104932447D01*
X159838210Y-104914319D01*
X159850298Y-104867347D01*
X159844172Y-104815150D01*
X159830369Y-104771046D01*
X159798395Y-104691444D01*
X159769274Y-104647112D01*
X159738833Y-104633939D01*
X159704339Y-104646894D01*
X159693251Y-104664736D01*
X159568462Y-104664736D01*
X159557674Y-104659940D01*
X159483255Y-104613710D01*
X159397639Y-104539039D01*
X159307073Y-104443482D01*
X159217805Y-104334594D01*
X159136081Y-104219931D01*
X159068148Y-104107047D01*
X159024902Y-104015600D01*
X159005512Y-103964895D01*
X158991521Y-103920396D01*
X158982124Y-103874329D01*
X158976515Y-103818924D01*
X158973889Y-103746406D01*
X158973441Y-103649003D01*
X158974043Y-103562799D01*
X159003590Y-103562799D01*
X159006904Y-103660000D01*
X159017494Y-103807021D01*
X159035876Y-103920850D01*
X159064224Y-104007899D01*
X159104713Y-104074580D01*
X159159519Y-104127304D01*
X159167439Y-104133200D01*
X159213521Y-104167508D01*
X159229071Y-104183105D01*
X159216340Y-104184198D01*
X159191695Y-104178561D01*
X159133391Y-104164005D01*
X159191695Y-104241605D01*
X159278661Y-104355197D01*
X159349039Y-104441598D01*
X159408352Y-104506949D01*
X159462121Y-104557392D01*
X159508000Y-104593432D01*
X159577552Y-104633529D01*
X159637146Y-104648598D01*
X159679445Y-104637641D01*
X159693273Y-104618681D01*
X159687059Y-104587745D01*
X159659291Y-104543819D01*
X159619970Y-104498496D01*
X159579098Y-104463368D01*
X159547757Y-104450000D01*
X159522653Y-104435325D01*
X159484421Y-104397651D01*
X159457076Y-104365000D01*
X159408051Y-104304721D01*
X159370944Y-104262136D01*
X159509386Y-104262136D01*
X159522885Y-104295000D01*
X159545126Y-104339710D01*
X159557636Y-104348153D01*
X159560000Y-104333822D01*
X159548861Y-104307059D01*
X159529674Y-104278822D01*
X159510089Y-104255241D01*
X159509386Y-104262136D01*
X159370944Y-104262136D01*
X159359360Y-104248842D01*
X159340395Y-104228650D01*
X159270110Y-104154955D01*
X159219469Y-104093885D01*
X159217557Y-104090815D01*
X159319374Y-104090815D01*
X159325511Y-104121250D01*
X159351134Y-104165549D01*
X159384398Y-104201217D01*
X159409838Y-104207866D01*
X159419999Y-104183554D01*
X159420000Y-104183486D01*
X159406463Y-104152675D01*
X159373522Y-104113375D01*
X159370000Y-104110000D01*
X159334821Y-104085245D01*
X159319374Y-104090815D01*
X159217557Y-104090815D01*
X159185904Y-104040000D01*
X159200000Y-104040000D01*
X159210000Y-104050000D01*
X159220000Y-104040000D01*
X159210000Y-104030000D01*
X159200000Y-104040000D01*
X159185904Y-104040000D01*
X159182437Y-104034434D01*
X159152978Y-103965598D01*
X159125055Y-103876372D01*
X159103356Y-103796519D01*
X159078946Y-103702141D01*
X159073944Y-103681797D01*
X159146076Y-103681797D01*
X159150627Y-103700000D01*
X159165330Y-103746678D01*
X159170470Y-103762862D01*
X159183955Y-103785873D01*
X159191030Y-103785636D01*
X159192059Y-103761774D01*
X159181054Y-103722773D01*
X159163037Y-103685066D01*
X159149246Y-103669812D01*
X159146076Y-103681797D01*
X159073944Y-103681797D01*
X159058846Y-103620396D01*
X159054213Y-103600000D01*
X159180000Y-103600000D01*
X159190000Y-103610000D01*
X159200000Y-103600000D01*
X159190000Y-103590000D01*
X159180000Y-103600000D01*
X159054213Y-103600000D01*
X159045089Y-103559835D01*
X159039705Y-103529004D01*
X159039693Y-103528535D01*
X159031826Y-103500178D01*
X159150264Y-103500178D01*
X159154077Y-103529487D01*
X159154624Y-103531603D01*
X159166485Y-103558411D01*
X159175755Y-103552734D01*
X159171338Y-103516505D01*
X159163368Y-103505368D01*
X159150264Y-103500178D01*
X159031826Y-103500178D01*
X159028438Y-103487966D01*
X159018221Y-103470000D01*
X159008987Y-103468513D01*
X159004166Y-103498510D01*
X159003590Y-103562799D01*
X158974043Y-103562799D01*
X158974291Y-103527213D01*
X158975563Y-103458333D01*
X159081578Y-103458333D01*
X159085256Y-103484273D01*
X159092083Y-103484583D01*
X159096857Y-103457815D01*
X159093662Y-103446250D01*
X159084781Y-103438674D01*
X159081578Y-103458333D01*
X158975563Y-103458333D01*
X158976598Y-103402254D01*
X158980970Y-103281859D01*
X158986905Y-103175625D01*
X158990754Y-103130213D01*
X159041653Y-103130213D01*
X159046173Y-103144079D01*
X159058482Y-103140937D01*
X159058618Y-103140854D01*
X159084304Y-103143362D01*
X159089798Y-103149673D01*
X159089279Y-103168371D01*
X159082528Y-103170000D01*
X159058637Y-103187431D01*
X159048224Y-103233180D01*
X159052694Y-103297429D01*
X159059735Y-103329016D01*
X159080500Y-103384809D01*
X159100614Y-103408096D01*
X159114720Y-103397836D01*
X159117463Y-103352987D01*
X159116204Y-103340000D01*
X159115701Y-103330000D01*
X159165447Y-103330000D01*
X159167007Y-103373256D01*
X159170996Y-103385131D01*
X159174114Y-103375000D01*
X159177423Y-103316720D01*
X159174114Y-103285000D01*
X159169168Y-103275522D01*
X159166030Y-103300649D01*
X159165447Y-103330000D01*
X159115701Y-103330000D01*
X159113888Y-103293917D01*
X159118719Y-103270674D01*
X159120346Y-103270000D01*
X159130403Y-103251556D01*
X159143389Y-103201940D01*
X159157706Y-103129719D01*
X159171751Y-103043463D01*
X159183926Y-102951742D01*
X159189444Y-102900000D01*
X159201504Y-102809858D01*
X159219380Y-102714555D01*
X159229721Y-102670930D01*
X159244139Y-102610284D01*
X159251334Y-102567403D01*
X159250732Y-102554065D01*
X159234842Y-102561540D01*
X159209928Y-102599075D01*
X159179550Y-102658762D01*
X159147266Y-102732693D01*
X159116635Y-102812960D01*
X159091216Y-102891652D01*
X159080531Y-102932309D01*
X159058262Y-103029754D01*
X159045492Y-103093914D01*
X159041653Y-103130213D01*
X158990754Y-103130213D01*
X158993896Y-103093146D01*
X158999095Y-103054988D01*
X159019777Y-102967577D01*
X159053636Y-102854047D01*
X159096997Y-102724554D01*
X159146185Y-102589256D01*
X159157655Y-102560000D01*
X159195039Y-102560000D01*
X159226825Y-102520000D01*
X159340000Y-102520000D01*
X159350000Y-102530000D01*
X159360000Y-102520000D01*
X159350000Y-102510000D01*
X159340000Y-102520000D01*
X159226825Y-102520000D01*
X159234771Y-102510000D01*
X159256184Y-102478822D01*
X159360306Y-102478822D01*
X159369557Y-102479873D01*
X159388364Y-102458854D01*
X159406696Y-102425754D01*
X159407277Y-102410610D01*
X159391445Y-102416130D01*
X159372194Y-102442680D01*
X159360690Y-102474044D01*
X159360306Y-102478822D01*
X159256184Y-102478822D01*
X159268615Y-102460722D01*
X159306219Y-102396619D01*
X159318646Y-102373061D01*
X159341963Y-102320392D01*
X159352108Y-102283227D01*
X159350601Y-102273935D01*
X159337122Y-102280439D01*
X159326874Y-102305873D01*
X159311321Y-102340428D01*
X159298180Y-102350000D01*
X159277269Y-102367141D01*
X159250383Y-102410974D01*
X159223797Y-102470110D01*
X159210053Y-102510000D01*
X159195039Y-102560000D01*
X159157655Y-102560000D01*
X159197525Y-102458311D01*
X159247342Y-102341875D01*
X159286732Y-102260000D01*
X159309413Y-102215373D01*
X159338016Y-102157775D01*
X159342539Y-102148553D01*
X159411404Y-102041582D01*
X159507286Y-101938287D01*
X159618042Y-101850513D01*
X159692144Y-101807452D01*
X159772048Y-101771906D01*
X159822114Y-101758989D01*
X159842334Y-101764334D01*
X159843176Y-101781510D01*
X159806158Y-101795422D01*
X159792794Y-101798156D01*
X159725107Y-101823383D01*
X159643486Y-101872297D01*
X159558468Y-101936943D01*
X159480588Y-102009364D01*
X159423757Y-102076787D01*
X159390897Y-102126505D01*
X159373419Y-102160122D01*
X159373757Y-102169493D01*
X159397162Y-102158376D01*
X159442809Y-102129738D01*
X159500000Y-102090352D01*
X159563805Y-102046764D01*
X159637924Y-101999181D01*
X159659451Y-101985996D01*
X159750316Y-101985996D01*
X159776239Y-101981530D01*
X159826496Y-101965091D01*
X159840000Y-101960000D01*
X159877019Y-101943078D01*
X159885061Y-101933312D01*
X159880000Y-101932423D01*
X159841513Y-101939959D01*
X159790660Y-101958976D01*
X159790000Y-101959277D01*
X159753359Y-101978556D01*
X159750316Y-101985996D01*
X159659451Y-101985996D01*
X159713861Y-101952670D01*
X159761326Y-101925000D01*
X159993164Y-101925000D01*
X160006166Y-101933254D01*
X160049242Y-101939538D01*
X160101399Y-101942144D01*
X160161757Y-101940677D01*
X160200137Y-101934701D01*
X160208235Y-101927144D01*
X160183425Y-101917093D01*
X160134346Y-101911505D01*
X160076343Y-101910534D01*
X160024760Y-101914332D01*
X159994943Y-101923053D01*
X159993164Y-101925000D01*
X159761326Y-101925000D01*
X159783120Y-101912295D01*
X159837206Y-101883123D01*
X159844567Y-101880000D01*
X160020000Y-101880000D01*
X160030000Y-101890000D01*
X160040000Y-101880000D01*
X160030000Y-101870000D01*
X160020000Y-101880000D01*
X159844567Y-101880000D01*
X159867623Y-101870219D01*
X159869531Y-101869999D01*
X159893250Y-101862268D01*
X159941969Y-101842141D01*
X159979661Y-101825377D01*
X160065841Y-101825377D01*
X160083362Y-101825102D01*
X160100000Y-101821649D01*
X160146348Y-101815633D01*
X160216068Y-101811258D01*
X160280000Y-101809664D01*
X160347892Y-101807972D01*
X160380626Y-101803289D01*
X160383002Y-101794434D01*
X160372401Y-101786943D01*
X160329385Y-101776703D01*
X160263153Y-101775632D01*
X160189087Y-101782409D01*
X160122572Y-101795712D01*
X160082356Y-101811861D01*
X160065841Y-101825377D01*
X159979661Y-101825377D01*
X159996213Y-101818015D01*
X160118066Y-101771772D01*
X160230565Y-101747151D01*
X160326802Y-101744845D01*
X160399872Y-101765547D01*
G37*
D15*
%TO.C,J2*%
X189690000Y-127290000D02*
X191280000Y-127290000D01*
X195100000Y-127290000D02*
X193720000Y-127290000D01*
X189690000Y-118350000D02*
X191280000Y-118350000D01*
X195100000Y-118350000D02*
X195100000Y-127290000D01*
X195100000Y-118350000D02*
X193720000Y-118350000D01*
%TD*%
%LPC*%
%TO.C,J1*%
D17*
X188050000Y-111450000D02*
X186350000Y-111450000D01*
X186350000Y-111050000D01*
X188050000Y-111050000D01*
X188050000Y-111450000D01*
G36*
X188050000Y-111450000D02*
G01*
X186350000Y-111450000D01*
X186350000Y-111050000D01*
X188050000Y-111050000D01*
X188050000Y-111450000D01*
G37*
X191650000Y-111450000D02*
X189950000Y-111450000D01*
X189950000Y-111050000D01*
X191650000Y-111050000D01*
X191650000Y-111450000D01*
G36*
X191650000Y-111450000D02*
G01*
X189950000Y-111450000D01*
X189950000Y-111050000D01*
X191650000Y-111050000D01*
X191650000Y-111450000D01*
G37*
X188050000Y-110950000D02*
X186350000Y-110950000D01*
X186350000Y-110550000D01*
X188050000Y-110550000D01*
X188050000Y-110950000D01*
G36*
X188050000Y-110950000D02*
G01*
X186350000Y-110950000D01*
X186350000Y-110550000D01*
X188050000Y-110550000D01*
X188050000Y-110950000D01*
G37*
X191650000Y-110950000D02*
X189950000Y-110950000D01*
X189950000Y-110550000D01*
X191650000Y-110550000D01*
X191650000Y-110950000D01*
G36*
X191650000Y-110950000D02*
G01*
X189950000Y-110950000D01*
X189950000Y-110550000D01*
X191650000Y-110550000D01*
X191650000Y-110950000D01*
G37*
X188050000Y-110450000D02*
X186350000Y-110450000D01*
X186350000Y-110050000D01*
X188050000Y-110050000D01*
X188050000Y-110450000D01*
G36*
X188050000Y-110450000D02*
G01*
X186350000Y-110450000D01*
X186350000Y-110050000D01*
X188050000Y-110050000D01*
X188050000Y-110450000D01*
G37*
X191650000Y-110450000D02*
X189950000Y-110450000D01*
X189950000Y-110050000D01*
X191650000Y-110050000D01*
X191650000Y-110450000D01*
G36*
X191650000Y-110450000D02*
G01*
X189950000Y-110450000D01*
X189950000Y-110050000D01*
X191650000Y-110050000D01*
X191650000Y-110450000D01*
G37*
X188050000Y-109950000D02*
X186350000Y-109950000D01*
X186350000Y-109550000D01*
X188050000Y-109550000D01*
X188050000Y-109950000D01*
G36*
X188050000Y-109950000D02*
G01*
X186350000Y-109950000D01*
X186350000Y-109550000D01*
X188050000Y-109550000D01*
X188050000Y-109950000D01*
G37*
X191650000Y-109950000D02*
X189950000Y-109950000D01*
X189950000Y-109550000D01*
X191650000Y-109550000D01*
X191650000Y-109950000D01*
G36*
X191650000Y-109950000D02*
G01*
X189950000Y-109950000D01*
X189950000Y-109550000D01*
X191650000Y-109550000D01*
X191650000Y-109950000D01*
G37*
X188050000Y-109450000D02*
X186350000Y-109450000D01*
X186350000Y-109050000D01*
X188050000Y-109050000D01*
X188050000Y-109450000D01*
G36*
X188050000Y-109450000D02*
G01*
X186350000Y-109450000D01*
X186350000Y-109050000D01*
X188050000Y-109050000D01*
X188050000Y-109450000D01*
G37*
X191650000Y-109450000D02*
X189950000Y-109450000D01*
X189950000Y-109050000D01*
X191650000Y-109050000D01*
X191650000Y-109450000D01*
G36*
X191650000Y-109450000D02*
G01*
X189950000Y-109450000D01*
X189950000Y-109050000D01*
X191650000Y-109050000D01*
X191650000Y-109450000D01*
G37*
X188050000Y-108950000D02*
X186350000Y-108950000D01*
X186350000Y-108550000D01*
X188050000Y-108550000D01*
X188050000Y-108950000D01*
G36*
X188050000Y-108950000D02*
G01*
X186350000Y-108950000D01*
X186350000Y-108550000D01*
X188050000Y-108550000D01*
X188050000Y-108950000D01*
G37*
X191650000Y-108950000D02*
X189950000Y-108950000D01*
X189950000Y-108550000D01*
X191650000Y-108550000D01*
X191650000Y-108950000D01*
G36*
X191650000Y-108950000D02*
G01*
X189950000Y-108950000D01*
X189950000Y-108550000D01*
X191650000Y-108550000D01*
X191650000Y-108950000D01*
G37*
X188050000Y-108450000D02*
X186350000Y-108450000D01*
X186350000Y-108050000D01*
X188050000Y-108050000D01*
X188050000Y-108450000D01*
G36*
X188050000Y-108450000D02*
G01*
X186350000Y-108450000D01*
X186350000Y-108050000D01*
X188050000Y-108050000D01*
X188050000Y-108450000D01*
G37*
X191650000Y-108450000D02*
X189950000Y-108450000D01*
X189950000Y-108050000D01*
X191650000Y-108050000D01*
X191650000Y-108450000D01*
G36*
X191650000Y-108450000D02*
G01*
X189950000Y-108450000D01*
X189950000Y-108050000D01*
X191650000Y-108050000D01*
X191650000Y-108450000D01*
G37*
X188050000Y-107950000D02*
X186350000Y-107950000D01*
X186350000Y-107550000D01*
X188050000Y-107550000D01*
X188050000Y-107950000D01*
G36*
X188050000Y-107950000D02*
G01*
X186350000Y-107950000D01*
X186350000Y-107550000D01*
X188050000Y-107550000D01*
X188050000Y-107950000D01*
G37*
X191650000Y-107950000D02*
X189950000Y-107950000D01*
X189950000Y-107550000D01*
X191650000Y-107550000D01*
X191650000Y-107950000D01*
G36*
X191650000Y-107950000D02*
G01*
X189950000Y-107950000D01*
X189950000Y-107550000D01*
X191650000Y-107550000D01*
X191650000Y-107950000D01*
G37*
X188050000Y-107450000D02*
X186350000Y-107450000D01*
X186350000Y-107050000D01*
X188050000Y-107050000D01*
X188050000Y-107450000D01*
G36*
X188050000Y-107450000D02*
G01*
X186350000Y-107450000D01*
X186350000Y-107050000D01*
X188050000Y-107050000D01*
X188050000Y-107450000D01*
G37*
X191650000Y-107450000D02*
X189950000Y-107450000D01*
X189950000Y-107050000D01*
X191650000Y-107050000D01*
X191650000Y-107450000D01*
G36*
X191650000Y-107450000D02*
G01*
X189950000Y-107450000D01*
X189950000Y-107050000D01*
X191650000Y-107050000D01*
X191650000Y-107450000D01*
G37*
X188050000Y-106950000D02*
X186350000Y-106950000D01*
X186350000Y-106550000D01*
X188050000Y-106550000D01*
X188050000Y-106950000D01*
G36*
X188050000Y-106950000D02*
G01*
X186350000Y-106950000D01*
X186350000Y-106550000D01*
X188050000Y-106550000D01*
X188050000Y-106950000D01*
G37*
X191650000Y-106950000D02*
X189950000Y-106950000D01*
X189950000Y-106550000D01*
X191650000Y-106550000D01*
X191650000Y-106950000D01*
G36*
X191650000Y-106950000D02*
G01*
X189950000Y-106950000D01*
X189950000Y-106550000D01*
X191650000Y-106550000D01*
X191650000Y-106950000D01*
G37*
%TD*%
D18*
%TO.C,C2*%
X176632500Y-118250000D03*
X177767500Y-118250000D03*
%TD*%
D19*
%TO.C,J1*%
X189000000Y-105050000D03*
X189000000Y-112950000D03*
%TD*%
D20*
%TO.C,C1*%
X181800000Y-118500000D03*
X181800000Y-120225000D03*
%TD*%
D21*
%TO.C,*%
X162500000Y-114500000D03*
%TD*%
D22*
%TO.C,U1*%
X174975000Y-120250000D03*
X174975000Y-118350000D03*
X173100000Y-119300000D03*
%TD*%
D23*
%TO.C,R2*%
X185600000Y-121100000D03*
X184405000Y-121100000D03*
%TD*%
D24*
%TO.C,SW1*%
X158750000Y-120000000D03*
X164750000Y-120000000D03*
X158750000Y-123750000D03*
X164750000Y-123750000D03*
%TD*%
D23*
%TO.C,R1*%
X164847500Y-126750000D03*
X163652500Y-126750000D03*
%TD*%
D25*
%TO.C,F1*%
X185200000Y-118500000D03*
X183475000Y-118500000D03*
%TD*%
D26*
%TO.C,U2*%
X179950000Y-124650000D03*
X179950000Y-124150000D03*
X179950000Y-123650000D03*
X179950000Y-123150000D03*
X179950000Y-122650000D03*
X175550000Y-122650000D03*
X175550000Y-123150000D03*
X175550000Y-123650000D03*
X175550000Y-124150000D03*
X175550000Y-124650000D03*
%TD*%
D27*
%TO.C,C3*%
X173317500Y-123000000D03*
X172182500Y-123000000D03*
%TD*%
D18*
%TO.C,C4*%
X176632500Y-120250000D03*
X177767500Y-120250000D03*
%TD*%
D27*
%TO.C,C5*%
X173317500Y-124750000D03*
X172182500Y-124750000D03*
%TD*%
D23*
%TO.C,R3*%
X185597500Y-125700000D03*
X184402500Y-125700000D03*
%TD*%
D28*
%TO.C,D1*%
X158000000Y-126750000D03*
X159750000Y-126750000D03*
%TD*%
D29*
%TO.C,J2*%
X188820000Y-125710000D03*
X188820000Y-119930000D03*
D30*
X187750000Y-126020000D03*
X187750000Y-125220000D03*
D31*
X187750000Y-124070000D03*
X187750000Y-123070000D03*
X187750000Y-122570000D03*
X187750000Y-121570000D03*
D30*
X187750000Y-119620000D03*
X187750000Y-120420000D03*
D31*
X187750000Y-121070000D03*
X187750000Y-122070000D03*
X187750000Y-123570000D03*
X187750000Y-124570000D03*
D32*
X188320000Y-127140000D03*
X188320000Y-118500000D03*
D33*
X192500000Y-127140000D03*
X192500000Y-118500000D03*
%TD*%
%LPD*%
M02*
