%TF.GenerationSoftware,KiCad,Pcbnew,7.0.7*%
%TF.CreationDate,2024-04-13T16:38:44+09:00*%
%TF.ProjectId,Wi-SUN_Board,57692d53-554e-45f4-926f-6172642e6b69,0.1.2*%
%TF.SameCoordinates,Original*%
%TF.FileFunction,Copper,L1,Top*%
%TF.FilePolarity,Positive*%
%FSLAX46Y46*%
G04 Gerber Fmt 4.6, Leading zero omitted, Abs format (unit mm)*
G04 Created by KiCad (PCBNEW 7.0.7) date 2024-04-13 16:38:44*
%MOMM*%
%LPD*%
G01*
G04 APERTURE LIST*
G04 Aperture macros list*
%AMRoundRect*
0 Rectangle with rounded corners*
0 $1 Rounding radius*
0 $2 $3 $4 $5 $6 $7 $8 $9 X,Y pos of 4 corners*
0 Add a 4 corners polygon primitive as box body*
4,1,4,$2,$3,$4,$5,$6,$7,$8,$9,$2,$3,0*
0 Add four circle primitives for the rounded corners*
1,1,$1+$1,$2,$3*
1,1,$1+$1,$4,$5*
1,1,$1+$1,$6,$7*
1,1,$1+$1,$8,$9*
0 Add four rect primitives between the rounded corners*
20,1,$1+$1,$2,$3,$4,$5,0*
20,1,$1+$1,$4,$5,$6,$7,0*
20,1,$1+$1,$6,$7,$8,$9,0*
20,1,$1+$1,$8,$9,$2,$3,0*%
G04 Aperture macros list end*
%TA.AperFunction,SMDPad,CuDef*%
%ADD10RoundRect,0.155000X-0.212500X-0.155000X0.212500X-0.155000X0.212500X0.155000X-0.212500X0.155000X0*%
%TD*%
%TA.AperFunction,SMDPad,CuDef*%
%ADD11R,1.600000X0.300000*%
%TD*%
%TA.AperFunction,SMDPad,CuDef*%
%ADD12R,1.800000X0.800000*%
%TD*%
%TA.AperFunction,SMDPad,CuDef*%
%ADD13RoundRect,0.237500X-0.237500X0.300000X-0.237500X-0.300000X0.237500X-0.300000X0.237500X0.300000X0*%
%TD*%
%TA.AperFunction,SMDPad,CuDef*%
%ADD14RoundRect,0.150000X0.587500X0.150000X-0.587500X0.150000X-0.587500X-0.150000X0.587500X-0.150000X0*%
%TD*%
%TA.AperFunction,SMDPad,CuDef*%
%ADD15RoundRect,0.160000X0.197500X0.160000X-0.197500X0.160000X-0.197500X-0.160000X0.197500X-0.160000X0*%
%TD*%
%TA.AperFunction,SMDPad,CuDef*%
%ADD16R,1.000000X0.750000*%
%TD*%
%TA.AperFunction,SMDPad,CuDef*%
%ADD17RoundRect,0.237500X0.300000X0.237500X-0.300000X0.237500X-0.300000X-0.237500X0.300000X-0.237500X0*%
%TD*%
%TA.AperFunction,SMDPad,CuDef*%
%ADD18R,1.400000X0.300000*%
%TD*%
%TA.AperFunction,SMDPad,CuDef*%
%ADD19RoundRect,0.155000X0.212500X0.155000X-0.212500X0.155000X-0.212500X-0.155000X0.212500X-0.155000X0*%
%TD*%
%TA.AperFunction,SMDPad,CuDef*%
%ADD20RoundRect,0.237500X-0.287500X-0.237500X0.287500X-0.237500X0.287500X0.237500X-0.287500X0.237500X0*%
%TD*%
%TA.AperFunction,SMDPad,CuDef*%
%ADD21R,1.140000X0.600000*%
%TD*%
%TA.AperFunction,SMDPad,CuDef*%
%ADD22R,1.140000X0.300000*%
%TD*%
%TA.AperFunction,ComponentPad*%
%ADD23O,2.100000X1.050000*%
%TD*%
%TA.AperFunction,ComponentPad*%
%ADD24O,1.800000X0.900000*%
%TD*%
%TA.AperFunction,ViaPad*%
%ADD25C,0.800000*%
%TD*%
%TA.AperFunction,Conductor*%
%ADD26C,0.250000*%
%TD*%
%TA.AperFunction,Conductor*%
%ADD27C,0.300000*%
%TD*%
%TA.AperFunction,Conductor*%
%ADD28C,0.500000*%
%TD*%
G04 APERTURE END LIST*
D10*
%TO.P,C2,1*%
%TO.N,+3.3V*%
X176632500Y-118250000D03*
%TO.P,C2,2*%
%TO.N,GND*%
X177767500Y-118250000D03*
%TD*%
D11*
%TO.P,J1,1,1*%
%TO.N,+3.3V*%
X187200000Y-106750000D03*
%TO.P,J1,2,2*%
%TO.N,GND*%
X190800000Y-106750000D03*
%TO.P,J1,3,3*%
%TO.N,+3.3V*%
X187200000Y-107250000D03*
%TO.P,J1,4,4*%
%TO.N,GND*%
X190800000Y-107250000D03*
%TO.P,J1,5,5*%
%TO.N,unconnected-(J1-Pad5)*%
X187200000Y-107750000D03*
%TO.P,J1,6,6*%
%TO.N,unconnected-(J1-Pad6)*%
X190800000Y-107750000D03*
%TO.P,J1,7,7*%
%TO.N,Net-(J1-Pad7)*%
X187200000Y-108250000D03*
%TO.P,J1,8,8*%
%TO.N,unconnected-(J1-Pad8)*%
X190800000Y-108250000D03*
%TO.P,J1,9,9*%
%TO.N,unconnected-(J1-Pad9)*%
X187200000Y-108750000D03*
%TO.P,J1,10,10*%
%TO.N,UART_-*%
X190800000Y-108750000D03*
%TO.P,J1,11,11*%
%TO.N,UART_+*%
X187200000Y-109250000D03*
%TO.P,J1,12,12*%
%TO.N,unconnected-(J1-Pad12)*%
X190800000Y-109250000D03*
%TO.P,J1,13,13*%
%TO.N,unconnected-(J1-Pad13)*%
X187200000Y-109750000D03*
%TO.P,J1,14,14*%
%TO.N,unconnected-(J1-Pad14)*%
X190800000Y-109750000D03*
%TO.P,J1,15,15*%
%TO.N,unconnected-(J1-Pad15)*%
X187200000Y-110250000D03*
%TO.P,J1,16,16*%
%TO.N,unconnected-(J1-Pad16)*%
X190800000Y-110250000D03*
%TO.P,J1,17,17*%
%TO.N,unconnected-(J1-Pad17)*%
X187200000Y-110750000D03*
%TO.P,J1,18,18*%
%TO.N,unconnected-(J1-Pad18)*%
X190800000Y-110750000D03*
%TO.P,J1,19,19*%
%TO.N,unconnected-(J1-Pad19)*%
X187200000Y-111250000D03*
%TO.P,J1,20,20*%
%TO.N,unconnected-(J1-Pad20)*%
X190800000Y-111250000D03*
D12*
%TO.P,J1,S1*%
%TO.N,N/C*%
X189000000Y-105050000D03*
%TO.P,J1,S2*%
X189000000Y-112950000D03*
%TD*%
D13*
%TO.P,C1,1*%
%TO.N,+5V*%
X181800000Y-118500000D03*
%TO.P,C1,2*%
%TO.N,GND*%
X181800000Y-120225000D03*
%TD*%
D14*
%TO.P,U1,1,VI*%
%TO.N,+5V*%
X174975000Y-120250000D03*
%TO.P,U1,2,VO*%
%TO.N,+3.3V*%
X174975000Y-118350000D03*
%TO.P,U1,3,GND*%
%TO.N,GND*%
X173100000Y-119300000D03*
%TD*%
D15*
%TO.P,R2,1*%
%TO.N,Net-(J2-CC1_B)*%
X185600000Y-121100000D03*
%TO.P,R2,2*%
%TO.N,GND*%
X184405000Y-121100000D03*
%TD*%
D16*
%TO.P,SW1,1,1*%
%TO.N,GND*%
X158750000Y-119950000D03*
X164750000Y-119950000D03*
%TO.P,SW1,2,2*%
%TO.N,Net-(J1-Pad7)*%
X158750000Y-123700000D03*
X164750000Y-123700000D03*
%TD*%
D15*
%TO.P,R1,1*%
%TO.N,Net-(U2-TNOW)*%
X164847500Y-126750000D03*
%TO.P,R1,2*%
%TO.N,Net-(D1-A)*%
X163652500Y-126750000D03*
%TD*%
D17*
%TO.P,F1,1*%
%TO.N,+VBUS*%
X185200000Y-118500000D03*
%TO.P,F1,2*%
%TO.N,+5V*%
X183475000Y-118500000D03*
%TD*%
D18*
%TO.P,U2,1,UD+*%
%TO.N,USB_D+*%
X179950000Y-124650000D03*
%TO.P,U2,2,UD-*%
%TO.N,USB_D-*%
X179950000Y-124150000D03*
%TO.P,U2,3,GND*%
%TO.N,GND*%
X179950000Y-123650000D03*
%TO.P,U2,4,~{RTS}*%
%TO.N,unconnected-(U2-~{RTS}-Pad4)*%
X179950000Y-123150000D03*
%TO.P,U2,5,~{CTS}*%
%TO.N,unconnected-(U2-~{CTS}-Pad5)*%
X179950000Y-122650000D03*
%TO.P,U2,6,TNOW*%
%TO.N,Net-(U2-TNOW)*%
X175550000Y-122650000D03*
%TO.P,U2,7,VCC*%
%TO.N,+3.3V*%
X175550000Y-123150000D03*
%TO.P,U2,8,TXD*%
%TO.N,UART_+*%
X175550000Y-123650000D03*
%TO.P,U2,9,RXD*%
%TO.N,UART_-*%
X175550000Y-124150000D03*
%TO.P,U2,10,V3*%
%TO.N,Net-(U2-V3)*%
X175550000Y-124650000D03*
%TD*%
D19*
%TO.P,C3,1*%
%TO.N,+3.3V*%
X173317500Y-123000000D03*
%TO.P,C3,2*%
%TO.N,GND*%
X172182500Y-123000000D03*
%TD*%
D10*
%TO.P,C4,1*%
%TO.N,+5V*%
X176632500Y-120250000D03*
%TO.P,C4,2*%
%TO.N,GND*%
X177767500Y-120250000D03*
%TD*%
D19*
%TO.P,C5,1*%
%TO.N,Net-(U2-V3)*%
X173317500Y-124750000D03*
%TO.P,C5,2*%
%TO.N,GND*%
X172182500Y-124750000D03*
%TD*%
D15*
%TO.P,R3,1*%
%TO.N,Net-(J2-CC1_A)*%
X185597500Y-125700000D03*
%TO.P,R3,2*%
%TO.N,GND*%
X184402500Y-125700000D03*
%TD*%
D20*
%TO.P,D1,1,K*%
%TO.N,GND*%
X158000000Y-126750000D03*
%TO.P,D1,2,A*%
%TO.N,Net-(D1-A)*%
X159750000Y-126750000D03*
%TD*%
D21*
%TO.P,J2,A1_B12,GND*%
%TO.N,GND*%
X187750000Y-126020000D03*
%TO.P,J2,A4_B9,VBUS*%
%TO.N,+VBUS*%
X187750000Y-125220000D03*
D22*
%TO.P,J2,A5,CC1_A*%
%TO.N,Net-(J2-CC1_A)*%
X187750000Y-124070000D03*
%TO.P,J2,A6,D+_A*%
%TO.N,USB_D+*%
X187750000Y-123070000D03*
%TO.P,J2,A7,D-_A*%
%TO.N,USB_D-*%
X187750000Y-122570000D03*
%TO.P,J2,A8,SBU1*%
%TO.N,unconnected-(J2-SBU1-PadA8)*%
X187750000Y-121570000D03*
D21*
%TO.P,J2,B1_A12,GND__1*%
%TO.N,GND*%
X187750000Y-119620000D03*
%TO.P,J2,B4_A9,VBUS__1*%
%TO.N,+VBUS*%
X187750000Y-120420000D03*
D22*
%TO.P,J2,B5,CC1_B*%
%TO.N,Net-(J2-CC1_B)*%
X187750000Y-121070000D03*
%TO.P,J2,B6,D+_B*%
%TO.N,USB_D+*%
X187750000Y-122070000D03*
%TO.P,J2,B7,D-_B*%
%TO.N,USB_D-*%
X187750000Y-123570000D03*
%TO.P,J2,B8,SBU2*%
%TO.N,unconnected-(J2-SBU2-PadB8)*%
X187750000Y-124570000D03*
D23*
%TO.P,J2,SH1,SHIELD*%
%TO.N,GND*%
X188320000Y-127140000D03*
%TO.P,J2,SH2,SHIELD__1*%
X188320000Y-118500000D03*
D24*
%TO.P,J2,SH3,SHIELD__2*%
X192500000Y-127140000D03*
%TO.P,J2,SH4,SHIELD__3*%
X192500000Y-118500000D03*
%TD*%
D25*
%TO.N,GND*%
X184300000Y-119900000D03*
X183000000Y-120000000D03*
X175750000Y-113500000D03*
X181750000Y-123000000D03*
X179000000Y-106500000D03*
X193500000Y-99750000D03*
X167100000Y-99800000D03*
X183500000Y-106750000D03*
X166250000Y-107050000D03*
X194500000Y-127250000D03*
X172750000Y-128250000D03*
X155900000Y-125600000D03*
X179750000Y-114250000D03*
X194500000Y-124250000D03*
X174600000Y-106400000D03*
X153800000Y-123600000D03*
X166250000Y-114850000D03*
X190100000Y-128300000D03*
X192500000Y-105250000D03*
X182200000Y-117000000D03*
X154450000Y-118100000D03*
X178000000Y-115900000D03*
X153800000Y-118900000D03*
X184250000Y-123000000D03*
X162500000Y-128250000D03*
X166250000Y-103700000D03*
X172000000Y-103000000D03*
X194500000Y-103500000D03*
X166250000Y-110600000D03*
X158400000Y-128250000D03*
X170750000Y-118500000D03*
X184250000Y-115000000D03*
X166250000Y-100700000D03*
X192500000Y-116000000D03*
X166000000Y-125000000D03*
X194500000Y-106750000D03*
X181800000Y-125700000D03*
X159900000Y-118000000D03*
X171000000Y-99750000D03*
X180100000Y-99750000D03*
X157000000Y-118000000D03*
X169250000Y-116250000D03*
X185700000Y-105400000D03*
X189400000Y-102900000D03*
X165650000Y-117400000D03*
X162200000Y-122200000D03*
X194500000Y-117250000D03*
X156100000Y-120900000D03*
X162500000Y-118000000D03*
X176000000Y-125700000D03*
X175250000Y-99750000D03*
X189500000Y-99750000D03*
X177400000Y-103100000D03*
X167400000Y-119400000D03*
X192500000Y-122750000D03*
X158200000Y-122200000D03*
X178000000Y-117500000D03*
X159500000Y-125000000D03*
X192600000Y-107900000D03*
X153800000Y-127250000D03*
X181750000Y-121500000D03*
X190750000Y-125500000D03*
X194500000Y-110100000D03*
X190500000Y-120000000D03*
X194500000Y-113500000D03*
X174250000Y-125750000D03*
X169750000Y-106500000D03*
X167200000Y-122200000D03*
X167500000Y-128250000D03*
X184500000Y-128250000D03*
X171250000Y-123000000D03*
X194500000Y-120750000D03*
X178250000Y-111000000D03*
X185000000Y-99750000D03*
X180750000Y-108500000D03*
X181750000Y-112000000D03*
X172050000Y-109600000D03*
X169500000Y-113000000D03*
X178500000Y-125000000D03*
X175750000Y-109250000D03*
X178500000Y-128250000D03*
X183200000Y-103000000D03*
X188000000Y-116000000D03*
X173250000Y-116000000D03*
X170600000Y-125700000D03*
X154750000Y-128250000D03*
X173000000Y-112250000D03*
X193500000Y-128250000D03*
X178000000Y-119250000D03*
X194500000Y-100750000D03*
%TO.N,+3.3V*%
X185500000Y-107250000D03*
X176600000Y-119200000D03*
X173250000Y-123840500D03*
%TO.N,UART_-*%
X187421232Y-114521232D03*
X178171232Y-123771232D03*
%TO.N,UART_+*%
X186678768Y-113778768D03*
X177428768Y-123028768D03*
%TO.N,+5V*%
X176750000Y-121250000D03*
X180750000Y-118500000D03*
%TO.N,USB_D+*%
X188987701Y-122487701D03*
X186494053Y-123487974D03*
%TO.N,USB_D-*%
X190250000Y-122250000D03*
X186500000Y-122250000D03*
%TO.N,Net-(U2-TNOW)*%
X173094773Y-121645273D03*
X166000000Y-126750000D03*
%TO.N,+VBUS*%
X186500000Y-125200000D03*
X185800000Y-119700000D03*
%TO.N,Net-(J1-Pad7)*%
X167250000Y-123750000D03*
X182820023Y-108320023D03*
%TD*%
D26*
%TO.N,GND*%
X190800000Y-107250000D02*
X192500000Y-107250000D01*
X179950000Y-123650000D02*
X181050000Y-123650000D01*
X190800000Y-106750000D02*
X192500000Y-106750000D01*
X181050000Y-123650000D02*
X181550000Y-123150000D01*
X184250000Y-121055000D02*
X184265000Y-121070000D01*
X192500000Y-106750000D02*
X192500000Y-107250000D01*
D27*
%TO.N,+3.3V*%
X176600000Y-118432500D02*
X176632500Y-118400000D01*
X175000000Y-118300000D02*
X176582500Y-118300000D01*
X175550000Y-123150000D02*
X173635000Y-123150000D01*
X173250000Y-123840500D02*
X173250000Y-123135000D01*
X176600000Y-119200000D02*
X176600000Y-118432500D01*
X173250000Y-123135000D02*
X173385000Y-123000000D01*
X176600000Y-119400000D02*
X176600000Y-119200000D01*
X176582500Y-118300000D02*
X176632500Y-118250000D01*
X176545000Y-118487500D02*
X176632500Y-118400000D01*
X187200000Y-107250000D02*
X185500000Y-107250000D01*
X187200000Y-106750000D02*
X187200000Y-107250000D01*
D26*
%TO.N,Net-(U2-V3)*%
X173617500Y-124650000D02*
X173567500Y-124600000D01*
X175550000Y-124650000D02*
X173617500Y-124650000D01*
%TO.N,Net-(D1-A)*%
X163652500Y-126750000D02*
X159750000Y-126750000D01*
%TO.N,UART_-*%
X177746967Y-123771232D02*
X178171232Y-123771232D01*
X177393199Y-124125000D02*
X177746967Y-123771232D01*
X176600001Y-124150000D02*
X176625001Y-124125000D01*
X176625001Y-124125000D02*
X177393199Y-124125000D01*
X187421232Y-114521232D02*
X191728768Y-114521232D01*
X175550000Y-124150000D02*
X176600001Y-124150000D01*
X192500000Y-113750000D02*
X192500000Y-109350000D01*
X192500000Y-109350000D02*
X191900000Y-108750000D01*
X190750000Y-108800000D02*
X190800000Y-108750000D01*
X191728768Y-114521232D02*
X192500000Y-113750000D01*
X191900000Y-108750000D02*
X190800000Y-108750000D01*
%TO.N,UART_+*%
X187250000Y-109300000D02*
X187200000Y-109250000D01*
X183528768Y-113778768D02*
X186678768Y-113778768D01*
X183000000Y-113250000D02*
X183528768Y-113778768D01*
X187200000Y-109250000D02*
X183500000Y-109250000D01*
X177206801Y-123675000D02*
X177428768Y-123453033D01*
X176600001Y-123650000D02*
X176625001Y-123675000D01*
X183500000Y-109250000D02*
X183000000Y-109750000D01*
X175550000Y-123650000D02*
X176600001Y-123650000D01*
X176625001Y-123675000D02*
X177206801Y-123675000D01*
X177428768Y-123453033D02*
X177428768Y-123028768D01*
X183000000Y-109750000D02*
X183000000Y-113250000D01*
%TO.N,Net-(J2-CC1_A)*%
X185597500Y-124902500D02*
X185597500Y-125700000D01*
X187750000Y-124070000D02*
X186930000Y-124070000D01*
X186930000Y-124070000D02*
X186525000Y-124475000D01*
X186025000Y-124475000D02*
X185597500Y-124902500D01*
X187750000Y-124070000D02*
X187750000Y-124050000D01*
X187750000Y-124050000D02*
X187705000Y-124095000D01*
X186525000Y-124475000D02*
X186025000Y-124475000D01*
D28*
%TO.N,+5V*%
X180750000Y-118500000D02*
X181800000Y-118500000D01*
X183475000Y-118500000D02*
X181700000Y-118500000D01*
X176632500Y-120250000D02*
X174975000Y-120250000D01*
X176750000Y-121250000D02*
X176750000Y-120367500D01*
X176750000Y-120367500D02*
X176632500Y-120250000D01*
D26*
%TO.N,Net-(J2-CC1_B)*%
X187750000Y-121070000D02*
X185630000Y-121070000D01*
X185630000Y-121070000D02*
X185600000Y-121100000D01*
%TO.N,USB_D+*%
X184761397Y-124625000D02*
X185898423Y-123487974D01*
X181025001Y-124625000D02*
X184761397Y-124625000D01*
X188570000Y-122070000D02*
X188987701Y-122487701D01*
X185898423Y-123487974D02*
X186494053Y-123487974D01*
X186912027Y-123070000D02*
X186494053Y-123487974D01*
X179950000Y-124650000D02*
X181000001Y-124650000D01*
X181000001Y-124650000D02*
X181025001Y-124625000D01*
X187750000Y-123070000D02*
X186912027Y-123070000D01*
X187750000Y-122070000D02*
X188570000Y-122070000D01*
%TO.N,USB_D-*%
X187750000Y-122570000D02*
X187775000Y-122545000D01*
X179950000Y-124150000D02*
X181000001Y-124150000D01*
X184575000Y-124175000D02*
X186500000Y-122250000D01*
X181025001Y-124175000D02*
X184575000Y-124175000D01*
X190250000Y-122250000D02*
X188930000Y-123570000D01*
X186820000Y-122570000D02*
X186500000Y-122250000D01*
X181000001Y-124150000D02*
X181025001Y-124175000D01*
X188930000Y-123570000D02*
X187750000Y-123570000D01*
X187775000Y-122545000D02*
X188000000Y-122545000D01*
X187750000Y-122570000D02*
X186820000Y-122570000D01*
%TO.N,Net-(U2-TNOW)*%
X175550000Y-122650000D02*
X174099500Y-122650000D01*
X174099500Y-122650000D02*
X173094773Y-121645273D01*
X166000000Y-126750000D02*
X164847500Y-126750000D01*
D28*
%TO.N,+VBUS*%
X186520000Y-125220000D02*
X186500000Y-125200000D01*
X187750000Y-120420000D02*
X186520000Y-120420000D01*
X185200000Y-118500000D02*
X185200000Y-119100000D01*
X185200000Y-119100000D02*
X185800000Y-119700000D01*
X187750000Y-125220000D02*
X186520000Y-125220000D01*
X186520000Y-120420000D02*
X185800000Y-119700000D01*
D26*
%TO.N,Net-(J1-Pad7)*%
X182890046Y-108250000D02*
X182820023Y-108320023D01*
X164750000Y-123750000D02*
X167250000Y-123750000D01*
X164750000Y-123750000D02*
X158750000Y-123750000D01*
X187200000Y-108250000D02*
X182890046Y-108250000D01*
X167250000Y-123750000D02*
X167200000Y-123700000D01*
%TD*%
%TA.AperFunction,Conductor*%
%TO.N,GND*%
G36*
X193965677Y-99219685D02*
G01*
X193986319Y-99236319D01*
X194963681Y-100213681D01*
X194997166Y-100275004D01*
X195000000Y-100301362D01*
X195000000Y-127698638D01*
X194980315Y-127765677D01*
X194963681Y-127786319D01*
X194036319Y-128713681D01*
X193974996Y-128747166D01*
X193948638Y-128750000D01*
X154301362Y-128750000D01*
X154234323Y-128730315D01*
X154213681Y-128713681D01*
X153086319Y-127586319D01*
X153052834Y-127524996D01*
X153050000Y-127498638D01*
X153050000Y-127036669D01*
X158724500Y-127036669D01*
X158724501Y-127036687D01*
X158734825Y-127137752D01*
X158763247Y-127223521D01*
X158789092Y-127301516D01*
X158879660Y-127448350D01*
X159001650Y-127570340D01*
X159148484Y-127660908D01*
X159312247Y-127715174D01*
X159413323Y-127725500D01*
X160086676Y-127725499D01*
X160086684Y-127725498D01*
X160086687Y-127725498D01*
X160142030Y-127719844D01*
X160187753Y-127715174D01*
X160351516Y-127660908D01*
X160498350Y-127570340D01*
X160620340Y-127448350D01*
X160628941Y-127434404D01*
X160680890Y-127387679D01*
X160734481Y-127375500D01*
X162935050Y-127375500D01*
X163002089Y-127395185D01*
X163022731Y-127411819D01*
X163044665Y-127433753D01*
X163044670Y-127433757D01*
X163181929Y-127516732D01*
X163181933Y-127516734D01*
X163236100Y-127533612D01*
X163335067Y-127564452D01*
X163401619Y-127570500D01*
X163903380Y-127570499D01*
X163903388Y-127570499D01*
X163969926Y-127564453D01*
X163969927Y-127564452D01*
X163969933Y-127564452D01*
X164123069Y-127516733D01*
X164185850Y-127478779D01*
X164253405Y-127460944D01*
X164314149Y-127478779D01*
X164376931Y-127516733D01*
X164376934Y-127516734D01*
X164376933Y-127516734D01*
X164431100Y-127533612D01*
X164530067Y-127564452D01*
X164596619Y-127570500D01*
X165098380Y-127570499D01*
X165098388Y-127570499D01*
X165164926Y-127564453D01*
X165164927Y-127564452D01*
X165164933Y-127564452D01*
X165318069Y-127516733D01*
X165359649Y-127491596D01*
X165427198Y-127473761D01*
X165493672Y-127495277D01*
X165496652Y-127497375D01*
X165523298Y-127516734D01*
X165547270Y-127534151D01*
X165720192Y-127611142D01*
X165720197Y-127611144D01*
X165905354Y-127650500D01*
X165905355Y-127650500D01*
X166094644Y-127650500D01*
X166094646Y-127650500D01*
X166279803Y-127611144D01*
X166452730Y-127534151D01*
X166605871Y-127422888D01*
X166732533Y-127282216D01*
X166827179Y-127118284D01*
X166885674Y-126938256D01*
X166905460Y-126750000D01*
X166885674Y-126561744D01*
X166827179Y-126381716D01*
X166732533Y-126217784D01*
X166605871Y-126077112D01*
X166590917Y-126066247D01*
X166452734Y-125965851D01*
X166452729Y-125965848D01*
X166279807Y-125888857D01*
X166279802Y-125888855D01*
X166134001Y-125857865D01*
X166094646Y-125849500D01*
X165905354Y-125849500D01*
X165872897Y-125856398D01*
X165720197Y-125888855D01*
X165720192Y-125888857D01*
X165547270Y-125965848D01*
X165547266Y-125965851D01*
X165496680Y-126002603D01*
X165430873Y-126026082D01*
X165362819Y-126010255D01*
X165359647Y-126008401D01*
X165318070Y-125983267D01*
X165318066Y-125983265D01*
X165164933Y-125935548D01*
X165164935Y-125935548D01*
X165138312Y-125933128D01*
X165098381Y-125929500D01*
X165098378Y-125929500D01*
X164596611Y-125929500D01*
X164530073Y-125935546D01*
X164530066Y-125935548D01*
X164376933Y-125983265D01*
X164376929Y-125983267D01*
X164314149Y-126021219D01*
X164246594Y-126039055D01*
X164185851Y-126021219D01*
X164123070Y-125983267D01*
X164123066Y-125983265D01*
X163969933Y-125935548D01*
X163969935Y-125935548D01*
X163943312Y-125933128D01*
X163903381Y-125929500D01*
X163903378Y-125929500D01*
X163401611Y-125929500D01*
X163335073Y-125935546D01*
X163335066Y-125935548D01*
X163181933Y-125983265D01*
X163181929Y-125983267D01*
X163044670Y-126066242D01*
X163044665Y-126066246D01*
X163022731Y-126088181D01*
X162961408Y-126121666D01*
X162935050Y-126124500D01*
X160734481Y-126124500D01*
X160667442Y-126104815D01*
X160628942Y-126065596D01*
X160626195Y-126061142D01*
X160620340Y-126051650D01*
X160498350Y-125929660D01*
X160351516Y-125839092D01*
X160187753Y-125784826D01*
X160187751Y-125784825D01*
X160086678Y-125774500D01*
X159413330Y-125774500D01*
X159413312Y-125774501D01*
X159312247Y-125784825D01*
X159148484Y-125839092D01*
X159148481Y-125839093D01*
X159001648Y-125929661D01*
X158879661Y-126051648D01*
X158789093Y-126198481D01*
X158789091Y-126198486D01*
X158782696Y-126217785D01*
X158734826Y-126362247D01*
X158734826Y-126362248D01*
X158734825Y-126362248D01*
X158724500Y-126463315D01*
X158724500Y-127036669D01*
X153050000Y-127036669D01*
X153050000Y-124122870D01*
X157749500Y-124122870D01*
X157749501Y-124122876D01*
X157755908Y-124182483D01*
X157806202Y-124317328D01*
X157806206Y-124317335D01*
X157892452Y-124432544D01*
X157892455Y-124432547D01*
X158007664Y-124518793D01*
X158007671Y-124518797D01*
X158142517Y-124569091D01*
X158142516Y-124569091D01*
X158149444Y-124569835D01*
X158202127Y-124575500D01*
X159297872Y-124575499D01*
X159357483Y-124569091D01*
X159492331Y-124518796D01*
X159607546Y-124432546D01*
X159613051Y-124425191D01*
X159668985Y-124383319D01*
X159712320Y-124375500D01*
X163787680Y-124375500D01*
X163854719Y-124395185D01*
X163886948Y-124425191D01*
X163892454Y-124432546D01*
X163892457Y-124432548D01*
X164007664Y-124518793D01*
X164007671Y-124518797D01*
X164142517Y-124569091D01*
X164142516Y-124569091D01*
X164149444Y-124569835D01*
X164202127Y-124575500D01*
X165297872Y-124575499D01*
X165357483Y-124569091D01*
X165492331Y-124518796D01*
X165607546Y-124432546D01*
X165613051Y-124425191D01*
X165668985Y-124383319D01*
X165712320Y-124375500D01*
X166546252Y-124375500D01*
X166613291Y-124395185D01*
X166638400Y-124416526D01*
X166644126Y-124422885D01*
X166644130Y-124422889D01*
X166797265Y-124534148D01*
X166797270Y-124534151D01*
X166970192Y-124611142D01*
X166970197Y-124611144D01*
X167155354Y-124650500D01*
X167155355Y-124650500D01*
X167344644Y-124650500D01*
X167344646Y-124650500D01*
X167529803Y-124611144D01*
X167702730Y-124534151D01*
X167855871Y-124422888D01*
X167982533Y-124282216D01*
X168077179Y-124118284D01*
X168135674Y-123938256D01*
X168155460Y-123750000D01*
X168135674Y-123561744D01*
X168077179Y-123381716D01*
X167982533Y-123217784D01*
X167855871Y-123077112D01*
X167855870Y-123077111D01*
X167702734Y-122965851D01*
X167702729Y-122965848D01*
X167529807Y-122888857D01*
X167529802Y-122888855D01*
X167384000Y-122857865D01*
X167344646Y-122849500D01*
X167155354Y-122849500D01*
X167122897Y-122856398D01*
X166970197Y-122888855D01*
X166970192Y-122888857D01*
X166797270Y-122965848D01*
X166797265Y-122965851D01*
X166644130Y-123077110D01*
X166644126Y-123077114D01*
X166638400Y-123083474D01*
X166578913Y-123120121D01*
X166546252Y-123124500D01*
X165787180Y-123124500D01*
X165720141Y-123104815D01*
X165687913Y-123074811D01*
X165657475Y-123034151D01*
X165607546Y-122967454D01*
X165548014Y-122922888D01*
X165492335Y-122881206D01*
X165492328Y-122881202D01*
X165357482Y-122830908D01*
X165357483Y-122830908D01*
X165297883Y-122824501D01*
X165297881Y-122824500D01*
X165297873Y-122824500D01*
X165297864Y-122824500D01*
X164202129Y-122824500D01*
X164202123Y-122824501D01*
X164142516Y-122830908D01*
X164007671Y-122881202D01*
X164007664Y-122881206D01*
X163892456Y-122967452D01*
X163892455Y-122967453D01*
X163892454Y-122967454D01*
X163842527Y-123034148D01*
X163812087Y-123074811D01*
X163756153Y-123116682D01*
X163712820Y-123124500D01*
X159787180Y-123124500D01*
X159720141Y-123104815D01*
X159687913Y-123074811D01*
X159657475Y-123034151D01*
X159607546Y-122967454D01*
X159548014Y-122922888D01*
X159492335Y-122881206D01*
X159492328Y-122881202D01*
X159357482Y-122830908D01*
X159357483Y-122830908D01*
X159297883Y-122824501D01*
X159297881Y-122824500D01*
X159297873Y-122824500D01*
X159297864Y-122824500D01*
X158202129Y-122824500D01*
X158202123Y-122824501D01*
X158142516Y-122830908D01*
X158007671Y-122881202D01*
X158007664Y-122881206D01*
X157892455Y-122967452D01*
X157892452Y-122967455D01*
X157806206Y-123082664D01*
X157806202Y-123082671D01*
X157755908Y-123217517D01*
X157749501Y-123277116D01*
X157749500Y-123277135D01*
X157749500Y-124122870D01*
X153050000Y-124122870D01*
X153050000Y-121645273D01*
X172189313Y-121645273D01*
X172209099Y-121833529D01*
X172209100Y-121833532D01*
X172267591Y-122013550D01*
X172267594Y-122013557D01*
X172362240Y-122177489D01*
X172488901Y-122318161D01*
X172488902Y-122318161D01*
X172488906Y-122318165D01*
X172513810Y-122336258D01*
X172556477Y-122391587D01*
X172562457Y-122461201D01*
X172547658Y-122499698D01*
X172498629Y-122582601D01*
X172498628Y-122582604D01*
X172452424Y-122741637D01*
X172452423Y-122741643D01*
X172449500Y-122778795D01*
X172449501Y-123221202D01*
X172452423Y-123258357D01*
X172452424Y-123258358D01*
X172469090Y-123315727D01*
X172468889Y-123385596D01*
X172457402Y-123412316D01*
X172422821Y-123472215D01*
X172393731Y-123561744D01*
X172364326Y-123652244D01*
X172344540Y-123840500D01*
X172364326Y-124028756D01*
X172364327Y-124028759D01*
X172422821Y-124208785D01*
X172470736Y-124291777D01*
X172487209Y-124359678D01*
X172482426Y-124388370D01*
X172452425Y-124491639D01*
X172452423Y-124491648D01*
X172449500Y-124528795D01*
X172449501Y-124971202D01*
X172452423Y-125008354D01*
X172452423Y-125008357D01*
X172452424Y-125008358D01*
X172462293Y-125042328D01*
X172498630Y-125167400D01*
X172582934Y-125309950D01*
X172582941Y-125309959D01*
X172700040Y-125427058D01*
X172700044Y-125427061D01*
X172700046Y-125427063D01*
X172842600Y-125511370D01*
X172884541Y-125523555D01*
X173001637Y-125557575D01*
X173001640Y-125557575D01*
X173001642Y-125557576D01*
X173014026Y-125558550D01*
X173038795Y-125560500D01*
X173038796Y-125560499D01*
X173038797Y-125560500D01*
X173596202Y-125560499D01*
X173633358Y-125557576D01*
X173792400Y-125511370D01*
X173934954Y-125427063D01*
X173969870Y-125392147D01*
X174050199Y-125311819D01*
X174111522Y-125278334D01*
X174137880Y-125275500D01*
X174670300Y-125275500D01*
X174713632Y-125283317D01*
X174742517Y-125294091D01*
X174802127Y-125300500D01*
X176297872Y-125300499D01*
X176357483Y-125294091D01*
X176492331Y-125243796D01*
X176607546Y-125157546D01*
X176693796Y-125042331D01*
X176744091Y-124907483D01*
X176749063Y-124861243D01*
X176775801Y-124796693D01*
X176833194Y-124756845D01*
X176872352Y-124750500D01*
X177310456Y-124750500D01*
X177326076Y-124752224D01*
X177326103Y-124751939D01*
X177333859Y-124752671D01*
X177333866Y-124752673D01*
X177403013Y-124750500D01*
X177432549Y-124750500D01*
X177439427Y-124749630D01*
X177445240Y-124749172D01*
X177491826Y-124747709D01*
X177511068Y-124742117D01*
X177530111Y-124738174D01*
X177549991Y-124735664D01*
X177593321Y-124718507D01*
X177598845Y-124716617D01*
X177602595Y-124715527D01*
X177643589Y-124703618D01*
X177660828Y-124693422D01*
X177678302Y-124684862D01*
X177696927Y-124677488D01*
X177696928Y-124677487D01*
X177696931Y-124677486D01*
X177734633Y-124650092D01*
X177739494Y-124646898D01*
X177763676Y-124632598D01*
X177831398Y-124615418D01*
X177877227Y-124626053D01*
X177891429Y-124632376D01*
X178076586Y-124671732D01*
X178076587Y-124671732D01*
X178265876Y-124671732D01*
X178265878Y-124671732D01*
X178451035Y-124632376D01*
X178575067Y-124577152D01*
X178644313Y-124567867D01*
X178707590Y-124597495D01*
X178744804Y-124656630D01*
X178749500Y-124690431D01*
X178749500Y-124847869D01*
X178749501Y-124847876D01*
X178755908Y-124907483D01*
X178806202Y-125042328D01*
X178806206Y-125042335D01*
X178892452Y-125157544D01*
X178892455Y-125157547D01*
X179007664Y-125243793D01*
X179007671Y-125243797D01*
X179142517Y-125294091D01*
X179142516Y-125294091D01*
X179149444Y-125294835D01*
X179202127Y-125300500D01*
X180697872Y-125300499D01*
X180757483Y-125294091D01*
X180786367Y-125283317D01*
X180829700Y-125275500D01*
X180917258Y-125275500D01*
X180932878Y-125277224D01*
X180932905Y-125276939D01*
X180940661Y-125277671D01*
X180940668Y-125277673D01*
X181009815Y-125275500D01*
X181039351Y-125275500D01*
X181046229Y-125274630D01*
X181052042Y-125274172D01*
X181098628Y-125272709D01*
X181117870Y-125267117D01*
X181136913Y-125263174D01*
X181156793Y-125260664D01*
X181157956Y-125260203D01*
X181160469Y-125259209D01*
X181206119Y-125250500D01*
X184629867Y-125250500D01*
X184696906Y-125270185D01*
X184742661Y-125322989D01*
X184752605Y-125392147D01*
X184748254Y-125411383D01*
X184745641Y-125419770D01*
X184745548Y-125420068D01*
X184739500Y-125486621D01*
X184739500Y-125913388D01*
X184745546Y-125979926D01*
X184745548Y-125979933D01*
X184793265Y-126133066D01*
X184793267Y-126133070D01*
X184876242Y-126270329D01*
X184876246Y-126270334D01*
X184989665Y-126383753D01*
X184989670Y-126383757D01*
X185126929Y-126466732D01*
X185126933Y-126466734D01*
X185176268Y-126482107D01*
X185280067Y-126514452D01*
X185346619Y-126520500D01*
X185848380Y-126520499D01*
X185848388Y-126520499D01*
X185914926Y-126514453D01*
X185914927Y-126514452D01*
X185914933Y-126514452D01*
X186068069Y-126466733D01*
X186152877Y-126415465D01*
X186205329Y-126383757D01*
X186205330Y-126383755D01*
X186205335Y-126383753D01*
X186318753Y-126270335D01*
X186328715Y-126253856D01*
X186385241Y-126160351D01*
X186436768Y-126113163D01*
X186491358Y-126100500D01*
X186594644Y-126100500D01*
X186594646Y-126100500D01*
X186779803Y-126061144D01*
X186924450Y-125996741D01*
X186993700Y-125987457D01*
X187018220Y-125993840D01*
X187072508Y-126014088D01*
X187072511Y-126014088D01*
X187072517Y-126014091D01*
X187132127Y-126020500D01*
X187220012Y-126020499D01*
X187287048Y-126040183D01*
X187332804Y-126092986D01*
X187342748Y-126162145D01*
X187313724Y-126225701D01*
X187278465Y-126253856D01*
X187222791Y-126283615D01*
X187222784Y-126283620D01*
X187066707Y-126411707D01*
X186938620Y-126567784D01*
X186938615Y-126567790D01*
X186843442Y-126745846D01*
X186799715Y-126890000D01*
X187365021Y-126890000D01*
X187432060Y-126909685D01*
X187477815Y-126962489D01*
X187487759Y-127031647D01*
X187484287Y-127047934D01*
X187466105Y-127111837D01*
X187466104Y-127111837D01*
X187476453Y-127223517D01*
X187478885Y-127232063D01*
X187478299Y-127301930D01*
X187440034Y-127360390D01*
X187376237Y-127388881D01*
X187359619Y-127390000D01*
X186799715Y-127390000D01*
X186843442Y-127534153D01*
X186938615Y-127712209D01*
X186938620Y-127712215D01*
X187066707Y-127868292D01*
X187222784Y-127996379D01*
X187222790Y-127996384D01*
X187400845Y-128091556D01*
X187594067Y-128150170D01*
X187744642Y-128165000D01*
X188070000Y-128165000D01*
X188070000Y-127564000D01*
X188089685Y-127496961D01*
X188142489Y-127451206D01*
X188194000Y-127440000D01*
X188446000Y-127440000D01*
X188513039Y-127459685D01*
X188558794Y-127512489D01*
X188570000Y-127564000D01*
X188570000Y-128165000D01*
X188895358Y-128165000D01*
X189045932Y-128150170D01*
X189239154Y-128091556D01*
X189417209Y-127996384D01*
X189417215Y-127996379D01*
X189573292Y-127868292D01*
X189701379Y-127712215D01*
X189701384Y-127712209D01*
X189796557Y-127534153D01*
X189840285Y-127390000D01*
X191129529Y-127390000D01*
X191192685Y-127560527D01*
X191192687Y-127560531D01*
X191294892Y-127724503D01*
X191428002Y-127864534D01*
X191428003Y-127864535D01*
X191586586Y-127974913D01*
X191764137Y-128051106D01*
X191953394Y-128090000D01*
X192250000Y-128090000D01*
X192250000Y-127564000D01*
X192269685Y-127496961D01*
X192322489Y-127451206D01*
X192374000Y-127440000D01*
X192626000Y-127440000D01*
X192693039Y-127459685D01*
X192738794Y-127512489D01*
X192750000Y-127564000D01*
X192750000Y-128090000D01*
X192998176Y-128090000D01*
X193142221Y-128075352D01*
X193326561Y-128017515D01*
X193326571Y-128017510D01*
X193495498Y-127923748D01*
X193495505Y-127923743D01*
X193642105Y-127797892D01*
X193760368Y-127645109D01*
X193760370Y-127645105D01*
X193845457Y-127471643D01*
X193866596Y-127390000D01*
X193304979Y-127390000D01*
X193237940Y-127370315D01*
X193192185Y-127317511D01*
X193182241Y-127248353D01*
X193185713Y-127232066D01*
X193203894Y-127168162D01*
X193203895Y-127168160D01*
X193199273Y-127118284D01*
X193193546Y-127056479D01*
X193193544Y-127056475D01*
X193191115Y-127047937D01*
X193191701Y-126978070D01*
X193229966Y-126919610D01*
X193293763Y-126891119D01*
X193310381Y-126890000D01*
X193870471Y-126890000D01*
X193807314Y-126719472D01*
X193807312Y-126719468D01*
X193705107Y-126555496D01*
X193571997Y-126415465D01*
X193571996Y-126415464D01*
X193413413Y-126305086D01*
X193235862Y-126228893D01*
X193046606Y-126190000D01*
X192750000Y-126190000D01*
X192750000Y-126716000D01*
X192730315Y-126783039D01*
X192677511Y-126828794D01*
X192626000Y-126840000D01*
X192374000Y-126840000D01*
X192306961Y-126820315D01*
X192261206Y-126767511D01*
X192250000Y-126716000D01*
X192250000Y-126190000D01*
X192001824Y-126190000D01*
X191857778Y-126204647D01*
X191673438Y-126262484D01*
X191673428Y-126262489D01*
X191504501Y-126356251D01*
X191504494Y-126356256D01*
X191357894Y-126482107D01*
X191239631Y-126634890D01*
X191239629Y-126634894D01*
X191154542Y-126808356D01*
X191133404Y-126890000D01*
X191695021Y-126890000D01*
X191762060Y-126909685D01*
X191807815Y-126962489D01*
X191817759Y-127031647D01*
X191814287Y-127047934D01*
X191796105Y-127111837D01*
X191796104Y-127111837D01*
X191806453Y-127223517D01*
X191808885Y-127232063D01*
X191808299Y-127301930D01*
X191770034Y-127360390D01*
X191706237Y-127388881D01*
X191689619Y-127390000D01*
X191129529Y-127390000D01*
X189840285Y-127390000D01*
X189274979Y-127390000D01*
X189207940Y-127370315D01*
X189162185Y-127317511D01*
X189152241Y-127248353D01*
X189155713Y-127232066D01*
X189173894Y-127168162D01*
X189173895Y-127168160D01*
X189169273Y-127118284D01*
X189163546Y-127056479D01*
X189163544Y-127056475D01*
X189161115Y-127047937D01*
X189161701Y-126978070D01*
X189199966Y-126919610D01*
X189263763Y-126891119D01*
X189280381Y-126890000D01*
X189840285Y-126890000D01*
X189796557Y-126745846D01*
X189701384Y-126567790D01*
X189701379Y-126567784D01*
X189573292Y-126411707D01*
X189417215Y-126283620D01*
X189417212Y-126283618D01*
X189324877Y-126234263D01*
X189275033Y-126185300D01*
X189259573Y-126117162D01*
X189283405Y-126051483D01*
X189284884Y-126049512D01*
X189322698Y-126000233D01*
X189380687Y-125860236D01*
X189400466Y-125710000D01*
X189380687Y-125559764D01*
X189322698Y-125419767D01*
X189230451Y-125299549D01*
X189110233Y-125207302D01*
X189110229Y-125207300D01*
X188970236Y-125149313D01*
X188928311Y-125143793D01*
X188864415Y-125115525D01*
X188825945Y-125057200D01*
X188820499Y-125020854D01*
X188820499Y-124872128D01*
X188820498Y-124872111D01*
X188816320Y-124833253D01*
X188816320Y-124806747D01*
X188820500Y-124767873D01*
X188820499Y-124372128D01*
X188820498Y-124372111D01*
X188816320Y-124333253D01*
X188816339Y-124306561D01*
X188816387Y-124306123D01*
X188843223Y-124241613D01*
X188900676Y-124201852D01*
X188935771Y-124195627D01*
X188936290Y-124195610D01*
X188939819Y-124195500D01*
X188969347Y-124195500D01*
X188969350Y-124195500D01*
X188976228Y-124194630D01*
X188982041Y-124194172D01*
X189028627Y-124192709D01*
X189047869Y-124187117D01*
X189066912Y-124183174D01*
X189086792Y-124180664D01*
X189130122Y-124163507D01*
X189135646Y-124161617D01*
X189139396Y-124160527D01*
X189180390Y-124148618D01*
X189197629Y-124138422D01*
X189215103Y-124129862D01*
X189233727Y-124122488D01*
X189233727Y-124122487D01*
X189233732Y-124122486D01*
X189271449Y-124095082D01*
X189276305Y-124091892D01*
X189316420Y-124068170D01*
X189330589Y-124053999D01*
X189345379Y-124041368D01*
X189361587Y-124029594D01*
X189391299Y-123993676D01*
X189395212Y-123989376D01*
X190197771Y-123186819D01*
X190259095Y-123153334D01*
X190285453Y-123150500D01*
X190344644Y-123150500D01*
X190344646Y-123150500D01*
X190529803Y-123111144D01*
X190702730Y-123034151D01*
X190855871Y-122922888D01*
X190982533Y-122782216D01*
X191077179Y-122618284D01*
X191135674Y-122438256D01*
X191155460Y-122250000D01*
X191135674Y-122061744D01*
X191077179Y-121881716D01*
X190982533Y-121717784D01*
X190855871Y-121577112D01*
X190855867Y-121577109D01*
X190702734Y-121465851D01*
X190702729Y-121465848D01*
X190529807Y-121388857D01*
X190529802Y-121388855D01*
X190384000Y-121357865D01*
X190344646Y-121349500D01*
X190155354Y-121349500D01*
X190122897Y-121356398D01*
X189970197Y-121388855D01*
X189970192Y-121388857D01*
X189797270Y-121465848D01*
X189797265Y-121465851D01*
X189644132Y-121577109D01*
X189644129Y-121577111D01*
X189644129Y-121577112D01*
X189582757Y-121645273D01*
X189564853Y-121665157D01*
X189505366Y-121701805D01*
X189435509Y-121700474D01*
X189422270Y-121695464D01*
X189354200Y-121665157D01*
X189267507Y-121626558D01*
X189267503Y-121626556D01*
X189121701Y-121595566D01*
X189082347Y-121587201D01*
X189082346Y-121587201D01*
X189018396Y-121587201D01*
X188951357Y-121567516D01*
X188945507Y-121563516D01*
X188940581Y-121559937D01*
X188923029Y-121550288D01*
X188906763Y-121539604D01*
X188898338Y-121533069D01*
X188890936Y-121527327D01*
X188890935Y-121527326D01*
X188890932Y-121527324D01*
X188884219Y-121523354D01*
X188885542Y-121521116D01*
X188841539Y-121484496D01*
X188820524Y-121417861D01*
X188820499Y-121415393D01*
X188820499Y-121372128D01*
X188820498Y-121372111D01*
X188816320Y-121333253D01*
X188816320Y-121306747D01*
X188820500Y-121267873D01*
X188820499Y-120872128D01*
X188820498Y-120872111D01*
X188816320Y-120833253D01*
X188816320Y-120806747D01*
X188820500Y-120767873D01*
X188820500Y-120619145D01*
X188840185Y-120552106D01*
X188892989Y-120506351D01*
X188928313Y-120496206D01*
X188970236Y-120490687D01*
X189110233Y-120432698D01*
X189230451Y-120340451D01*
X189322698Y-120220233D01*
X189380687Y-120080236D01*
X189400466Y-119930000D01*
X189380687Y-119779764D01*
X189322698Y-119639767D01*
X189322697Y-119639765D01*
X189284956Y-119590581D01*
X189259761Y-119525412D01*
X189273799Y-119456967D01*
X189322613Y-119406977D01*
X189324878Y-119405736D01*
X189417209Y-119356383D01*
X189417215Y-119356379D01*
X189573292Y-119228292D01*
X189701379Y-119072215D01*
X189701384Y-119072209D01*
X189796557Y-118894153D01*
X189840285Y-118750000D01*
X191129529Y-118750000D01*
X191192685Y-118920527D01*
X191192687Y-118920531D01*
X191294892Y-119084503D01*
X191428002Y-119224534D01*
X191428003Y-119224535D01*
X191586586Y-119334913D01*
X191764137Y-119411106D01*
X191953394Y-119450000D01*
X192250000Y-119450000D01*
X192250000Y-118924000D01*
X192269685Y-118856961D01*
X192322489Y-118811206D01*
X192374000Y-118800000D01*
X192626000Y-118800000D01*
X192693039Y-118819685D01*
X192738794Y-118872489D01*
X192750000Y-118924000D01*
X192750000Y-119450000D01*
X192998176Y-119450000D01*
X193142221Y-119435352D01*
X193326561Y-119377515D01*
X193326571Y-119377510D01*
X193495498Y-119283748D01*
X193495505Y-119283743D01*
X193642105Y-119157892D01*
X193760368Y-119005109D01*
X193760370Y-119005105D01*
X193845457Y-118831643D01*
X193866596Y-118750000D01*
X193304979Y-118750000D01*
X193237940Y-118730315D01*
X193192185Y-118677511D01*
X193182241Y-118608353D01*
X193185713Y-118592066D01*
X193203894Y-118528162D01*
X193203895Y-118528160D01*
X193201412Y-118501362D01*
X193193546Y-118416479D01*
X193193544Y-118416475D01*
X193191115Y-118407937D01*
X193191701Y-118338070D01*
X193229966Y-118279610D01*
X193293763Y-118251119D01*
X193310381Y-118250000D01*
X193870471Y-118250000D01*
X193807314Y-118079472D01*
X193807312Y-118079468D01*
X193705107Y-117915496D01*
X193571997Y-117775465D01*
X193571996Y-117775464D01*
X193413413Y-117665086D01*
X193235862Y-117588893D01*
X193046606Y-117550000D01*
X192750000Y-117550000D01*
X192750000Y-118076000D01*
X192730315Y-118143039D01*
X192677511Y-118188794D01*
X192626000Y-118200000D01*
X192374000Y-118200000D01*
X192306961Y-118180315D01*
X192261206Y-118127511D01*
X192250000Y-118076000D01*
X192250000Y-117550000D01*
X192001824Y-117550000D01*
X191857778Y-117564647D01*
X191673438Y-117622484D01*
X191673428Y-117622489D01*
X191504501Y-117716251D01*
X191504494Y-117716256D01*
X191357894Y-117842107D01*
X191239631Y-117994890D01*
X191239629Y-117994894D01*
X191154542Y-118168356D01*
X191133404Y-118250000D01*
X191695021Y-118250000D01*
X191762060Y-118269685D01*
X191807815Y-118322489D01*
X191817759Y-118391647D01*
X191814287Y-118407934D01*
X191796105Y-118471837D01*
X191796104Y-118471837D01*
X191806453Y-118583517D01*
X191808885Y-118592063D01*
X191808299Y-118661930D01*
X191770034Y-118720390D01*
X191706237Y-118748881D01*
X191689619Y-118750000D01*
X191129529Y-118750000D01*
X189840285Y-118750000D01*
X189274979Y-118750000D01*
X189207940Y-118730315D01*
X189162185Y-118677511D01*
X189152241Y-118608353D01*
X189155713Y-118592066D01*
X189173894Y-118528162D01*
X189173895Y-118528160D01*
X189171412Y-118501362D01*
X189163546Y-118416479D01*
X189163544Y-118416475D01*
X189161115Y-118407937D01*
X189161701Y-118338070D01*
X189199966Y-118279610D01*
X189263763Y-118251119D01*
X189280381Y-118250000D01*
X189840285Y-118250000D01*
X189796557Y-118105846D01*
X189701384Y-117927790D01*
X189701379Y-117927784D01*
X189573292Y-117771707D01*
X189417215Y-117643620D01*
X189417209Y-117643615D01*
X189239154Y-117548443D01*
X189045932Y-117489829D01*
X188895358Y-117475000D01*
X188570000Y-117475000D01*
X188570000Y-118076000D01*
X188550315Y-118143039D01*
X188497511Y-118188794D01*
X188446000Y-118200000D01*
X188194000Y-118200000D01*
X188126961Y-118180315D01*
X188081206Y-118127511D01*
X188070000Y-118076000D01*
X188070000Y-117475000D01*
X187744642Y-117475000D01*
X187594067Y-117489829D01*
X187400845Y-117548443D01*
X187222790Y-117643615D01*
X187222784Y-117643620D01*
X187066707Y-117771707D01*
X186938620Y-117927784D01*
X186938615Y-117927790D01*
X186843442Y-118105846D01*
X186799715Y-118250000D01*
X187365021Y-118250000D01*
X187432060Y-118269685D01*
X187477815Y-118322489D01*
X187487759Y-118391647D01*
X187484287Y-118407934D01*
X187466105Y-118471837D01*
X187466104Y-118471837D01*
X187476453Y-118583517D01*
X187478885Y-118592063D01*
X187478299Y-118661930D01*
X187440034Y-118720390D01*
X187376237Y-118748881D01*
X187359619Y-118750000D01*
X186799715Y-118750000D01*
X186843442Y-118894153D01*
X186938615Y-119072209D01*
X186938620Y-119072215D01*
X187066707Y-119228292D01*
X187222784Y-119356379D01*
X187222786Y-119356381D01*
X187278464Y-119386141D01*
X187328309Y-119435103D01*
X187343770Y-119503241D01*
X187319939Y-119568921D01*
X187264381Y-119611290D01*
X187220013Y-119619500D01*
X187132130Y-119619500D01*
X187132123Y-119619501D01*
X187072516Y-119625908D01*
X186976604Y-119661682D01*
X186933271Y-119669500D01*
X186882230Y-119669500D01*
X186815191Y-119649815D01*
X186794548Y-119633181D01*
X186712769Y-119551401D01*
X186682520Y-119502038D01*
X186673897Y-119475500D01*
X186651230Y-119405736D01*
X186627181Y-119331721D01*
X186627178Y-119331715D01*
X186626580Y-119330679D01*
X186532533Y-119167784D01*
X186405871Y-119027112D01*
X186375586Y-119005109D01*
X186284457Y-118938900D01*
X186241791Y-118883571D01*
X186233984Y-118825981D01*
X186238000Y-118786677D01*
X186237999Y-118213324D01*
X186227674Y-118112247D01*
X186173408Y-117948484D01*
X186082840Y-117801650D01*
X185960850Y-117679660D01*
X185859523Y-117617161D01*
X185814018Y-117589093D01*
X185814013Y-117589091D01*
X185812569Y-117588612D01*
X185650253Y-117534826D01*
X185650251Y-117534825D01*
X185549178Y-117524500D01*
X184850830Y-117524500D01*
X184850812Y-117524501D01*
X184749747Y-117534825D01*
X184585984Y-117589092D01*
X184585981Y-117589093D01*
X184439150Y-117679660D01*
X184425179Y-117693631D01*
X184363855Y-117727114D01*
X184294163Y-117722128D01*
X184249819Y-117693628D01*
X184235853Y-117679662D01*
X184089018Y-117589093D01*
X184089013Y-117589091D01*
X184087569Y-117588612D01*
X183925253Y-117534826D01*
X183925251Y-117534825D01*
X183824178Y-117524500D01*
X183125830Y-117524500D01*
X183125812Y-117524501D01*
X183024747Y-117534825D01*
X182860984Y-117589092D01*
X182860981Y-117589093D01*
X182780305Y-117638855D01*
X182714150Y-117679660D01*
X182714148Y-117679661D01*
X182708003Y-117683452D01*
X182707173Y-117682107D01*
X182650300Y-117705047D01*
X182581659Y-117692003D01*
X182550511Y-117669321D01*
X182498351Y-117617161D01*
X182498350Y-117617160D01*
X182393359Y-117552401D01*
X182351518Y-117526593D01*
X182351513Y-117526591D01*
X182345203Y-117524500D01*
X182187753Y-117472326D01*
X182187751Y-117472325D01*
X182086678Y-117462000D01*
X181513330Y-117462000D01*
X181513312Y-117462001D01*
X181412247Y-117472325D01*
X181248484Y-117526592D01*
X181248481Y-117526593D01*
X181155652Y-117583851D01*
X181101650Y-117617160D01*
X181101648Y-117617161D01*
X181099360Y-117618573D01*
X181031967Y-117637013D01*
X181008482Y-117634324D01*
X180927730Y-117617160D01*
X180844646Y-117599500D01*
X180655354Y-117599500D01*
X180622897Y-117606398D01*
X180470197Y-117638855D01*
X180470192Y-117638857D01*
X180297270Y-117715848D01*
X180297265Y-117715851D01*
X180144129Y-117827111D01*
X180017466Y-117967785D01*
X179922821Y-118131715D01*
X179922818Y-118131722D01*
X179876441Y-118274457D01*
X179864326Y-118311744D01*
X179844540Y-118500000D01*
X179864326Y-118688256D01*
X179864327Y-118688259D01*
X179922818Y-118868277D01*
X179922821Y-118868284D01*
X180017467Y-119032216D01*
X180064547Y-119084503D01*
X180144129Y-119172888D01*
X180297265Y-119284148D01*
X180297270Y-119284151D01*
X180470192Y-119361142D01*
X180470197Y-119361144D01*
X180655354Y-119400500D01*
X180655355Y-119400500D01*
X180844644Y-119400500D01*
X180844646Y-119400500D01*
X180972377Y-119373349D01*
X181008482Y-119365676D01*
X181078150Y-119370992D01*
X181099360Y-119381427D01*
X181101648Y-119382838D01*
X181101650Y-119382840D01*
X181248484Y-119473408D01*
X181412247Y-119527674D01*
X181513323Y-119538000D01*
X182086676Y-119537999D01*
X182086684Y-119537998D01*
X182086687Y-119537998D01*
X182142030Y-119532344D01*
X182187753Y-119527674D01*
X182351516Y-119473408D01*
X182498350Y-119382840D01*
X182550512Y-119330677D01*
X182611833Y-119297193D01*
X182681525Y-119302177D01*
X182707752Y-119316953D01*
X182708003Y-119316548D01*
X182714148Y-119320338D01*
X182714150Y-119320340D01*
X182860984Y-119410908D01*
X183024747Y-119465174D01*
X183125823Y-119475500D01*
X183824176Y-119475499D01*
X183824184Y-119475498D01*
X183824187Y-119475498D01*
X183879530Y-119469844D01*
X183925253Y-119465174D01*
X184089016Y-119410908D01*
X184235850Y-119320340D01*
X184249820Y-119306369D01*
X184311139Y-119272885D01*
X184380831Y-119277868D01*
X184425178Y-119306368D01*
X184439150Y-119320340D01*
X184439152Y-119320341D01*
X184439153Y-119320342D01*
X184455074Y-119330162D01*
X184501799Y-119382110D01*
X184507683Y-119396695D01*
X184515182Y-119419326D01*
X184518236Y-119425874D01*
X184518182Y-119425898D01*
X184521470Y-119432688D01*
X184521521Y-119432663D01*
X184524761Y-119439113D01*
X184524762Y-119439114D01*
X184524763Y-119439117D01*
X184548692Y-119475500D01*
X184566965Y-119503283D01*
X184607287Y-119568655D01*
X184611766Y-119574319D01*
X184611719Y-119574356D01*
X184616482Y-119580202D01*
X184616528Y-119580164D01*
X184621173Y-119585700D01*
X184657000Y-119619500D01*
X184677019Y-119638387D01*
X184863682Y-119825049D01*
X184897166Y-119886370D01*
X184900000Y-119912729D01*
X184899999Y-120459940D01*
X184882116Y-120524089D01*
X184795767Y-120666929D01*
X184795765Y-120666933D01*
X184748048Y-120820065D01*
X184748047Y-120820067D01*
X184748048Y-120820067D01*
X184742446Y-120881717D01*
X184742000Y-120886621D01*
X184742000Y-121313388D01*
X184748046Y-121379926D01*
X184748048Y-121379933D01*
X184795765Y-121533066D01*
X184795767Y-121533070D01*
X184882117Y-121675911D01*
X184900000Y-121740060D01*
X184900000Y-122914046D01*
X184880315Y-122981085D01*
X184863681Y-123001727D01*
X184352228Y-123513181D01*
X184290905Y-123546666D01*
X184264547Y-123549500D01*
X181266868Y-123549500D01*
X181199829Y-123529815D01*
X181154074Y-123477011D01*
X181143579Y-123412244D01*
X181146861Y-123381715D01*
X181150500Y-123347873D01*
X181150499Y-122952128D01*
X181150498Y-122952111D01*
X181146320Y-122913253D01*
X181146320Y-122886747D01*
X181150500Y-122847873D01*
X181150499Y-122452128D01*
X181144091Y-122392517D01*
X181143744Y-122391587D01*
X181093797Y-122257671D01*
X181093793Y-122257664D01*
X181007547Y-122142455D01*
X181007544Y-122142452D01*
X180892335Y-122056206D01*
X180892328Y-122056202D01*
X180757482Y-122005908D01*
X180757483Y-122005908D01*
X180697883Y-121999501D01*
X180697881Y-121999500D01*
X180697873Y-121999500D01*
X180697864Y-121999500D01*
X179202129Y-121999500D01*
X179202116Y-121999501D01*
X179200793Y-121999644D01*
X179194159Y-122000000D01*
X178051362Y-122000000D01*
X177984323Y-121980315D01*
X177963681Y-121963681D01*
X177640990Y-121640990D01*
X177607505Y-121579667D01*
X177610740Y-121514992D01*
X177635674Y-121438256D01*
X177655460Y-121250000D01*
X177635674Y-121061744D01*
X177577179Y-120881716D01*
X177517111Y-120777674D01*
X177500500Y-120715680D01*
X177500500Y-120431204D01*
X177501809Y-120413235D01*
X177505289Y-120389474D01*
X177501000Y-120340451D01*
X177500735Y-120337433D01*
X177500500Y-120332032D01*
X177500500Y-120313802D01*
X177500499Y-120313788D01*
X177500499Y-120028798D01*
X177497576Y-119991645D01*
X177497576Y-119991642D01*
X177451370Y-119832600D01*
X177398795Y-119743701D01*
X177381612Y-119675977D01*
X177398139Y-119618581D01*
X177427179Y-119568284D01*
X177485674Y-119388256D01*
X177505460Y-119200000D01*
X177485674Y-119011744D01*
X177427179Y-118831716D01*
X177427178Y-118831715D01*
X177427178Y-118831713D01*
X177424537Y-118825781D01*
X177425716Y-118825255D01*
X177410881Y-118764133D01*
X177428010Y-118706897D01*
X177451370Y-118667400D01*
X177480918Y-118565694D01*
X177497575Y-118508362D01*
X177497576Y-118508356D01*
X177498127Y-118501362D01*
X177500500Y-118471203D01*
X177500499Y-118028798D01*
X177497576Y-117991642D01*
X177451370Y-117832600D01*
X177388985Y-117727114D01*
X177367065Y-117690049D01*
X177367058Y-117690040D01*
X177249959Y-117572941D01*
X177249950Y-117572934D01*
X177107398Y-117488629D01*
X177107395Y-117488628D01*
X176948362Y-117442424D01*
X176948356Y-117442423D01*
X176911205Y-117439500D01*
X176911203Y-117439500D01*
X176353280Y-117439501D01*
X176353798Y-117439501D01*
X176316645Y-117442423D01*
X176157599Y-117488630D01*
X176015049Y-117572934D01*
X176015039Y-117572942D01*
X175995739Y-117592242D01*
X175934416Y-117625726D01*
X175864724Y-117620740D01*
X175844940Y-117611291D01*
X175822900Y-117598257D01*
X175822893Y-117598254D01*
X175665073Y-117552402D01*
X175665067Y-117552401D01*
X175628196Y-117549500D01*
X175628194Y-117549500D01*
X174321806Y-117549500D01*
X174321804Y-117549500D01*
X174284932Y-117552401D01*
X174284926Y-117552402D01*
X174127106Y-117598254D01*
X174127103Y-117598255D01*
X173985637Y-117681917D01*
X173985629Y-117681923D01*
X173869423Y-117798129D01*
X173869417Y-117798137D01*
X173785755Y-117939603D01*
X173785754Y-117939606D01*
X173739902Y-118097426D01*
X173739901Y-118097432D01*
X173737000Y-118134304D01*
X173737000Y-118565696D01*
X173739901Y-118602567D01*
X173739902Y-118602569D01*
X173745076Y-118620379D01*
X173750000Y-118654973D01*
X173750000Y-119945024D01*
X173745072Y-119979633D01*
X173743592Y-119984725D01*
X173712201Y-120037797D01*
X173032575Y-120717424D01*
X172971252Y-120750909D01*
X172970675Y-120751033D01*
X172814970Y-120784128D01*
X172814965Y-120784130D01*
X172642043Y-120861121D01*
X172642038Y-120861124D01*
X172488902Y-120972384D01*
X172362239Y-121113058D01*
X172267594Y-121276988D01*
X172267591Y-121276995D01*
X172209100Y-121457013D01*
X172209099Y-121457017D01*
X172189313Y-121645273D01*
X153050000Y-121645273D01*
X153050000Y-118501362D01*
X153069685Y-118434323D01*
X153086319Y-118413681D01*
X153963681Y-117536319D01*
X154025004Y-117502834D01*
X154051362Y-117500000D01*
X164500000Y-117500000D01*
X165500000Y-116500000D01*
X165500000Y-108320023D01*
X181914563Y-108320023D01*
X181934349Y-108508279D01*
X181934350Y-108508282D01*
X181992841Y-108688300D01*
X181992844Y-108688307D01*
X182087490Y-108852239D01*
X182168772Y-108942511D01*
X182214152Y-108992911D01*
X182367288Y-109104171D01*
X182367293Y-109104174D01*
X182476644Y-109152861D01*
X182529881Y-109198111D01*
X182550202Y-109264960D01*
X182531156Y-109332184D01*
X182516603Y-109351021D01*
X182489937Y-109379418D01*
X182489936Y-109379420D01*
X182480284Y-109396976D01*
X182469610Y-109413226D01*
X182457329Y-109429061D01*
X182457324Y-109429068D01*
X182438815Y-109471838D01*
X182436245Y-109477084D01*
X182413803Y-109517906D01*
X182408822Y-109537307D01*
X182402521Y-109555710D01*
X182394562Y-109574102D01*
X182394561Y-109574105D01*
X182387271Y-109620127D01*
X182386087Y-109625846D01*
X182374501Y-109670972D01*
X182374499Y-109670984D01*
X182374499Y-109691020D01*
X182372973Y-109710411D01*
X182369840Y-109730194D01*
X182369840Y-109730195D01*
X182374225Y-109776583D01*
X182374500Y-109782421D01*
X182374500Y-113167255D01*
X182372775Y-113182872D01*
X182373061Y-113182899D01*
X182372326Y-113190665D01*
X182374500Y-113259814D01*
X182374500Y-113289343D01*
X182374501Y-113289360D01*
X182375368Y-113296231D01*
X182375826Y-113302050D01*
X182377290Y-113348624D01*
X182377291Y-113348627D01*
X182382880Y-113367867D01*
X182386824Y-113386911D01*
X182388211Y-113397883D01*
X182389336Y-113406791D01*
X182406490Y-113450119D01*
X182408382Y-113455647D01*
X182421381Y-113500388D01*
X182431580Y-113517634D01*
X182440138Y-113535103D01*
X182447514Y-113553732D01*
X182474898Y-113591423D01*
X182478106Y-113596307D01*
X182501827Y-113636416D01*
X182501833Y-113636424D01*
X182515990Y-113650580D01*
X182528627Y-113665375D01*
X182540406Y-113681587D01*
X182571785Y-113707546D01*
X182576309Y-113711288D01*
X182580620Y-113715210D01*
X182809684Y-113944274D01*
X183027962Y-114162552D01*
X183037785Y-114174813D01*
X183038007Y-114174631D01*
X183042980Y-114180643D01*
X183093404Y-114227995D01*
X183114291Y-114248883D01*
X183114295Y-114248886D01*
X183114297Y-114248888D01*
X183119779Y-114253141D01*
X183124211Y-114256925D01*
X183158186Y-114288830D01*
X183175744Y-114298482D01*
X183192001Y-114309161D01*
X183207832Y-114321441D01*
X183227505Y-114329954D01*
X183250601Y-114339950D01*
X183255845Y-114342518D01*
X183296676Y-114364965D01*
X183309291Y-114368203D01*
X183316073Y-114369945D01*
X183334487Y-114376249D01*
X183352872Y-114384206D01*
X183398925Y-114391500D01*
X183404594Y-114392674D01*
X183449749Y-114404268D01*
X183469784Y-114404268D01*
X183489181Y-114405794D01*
X183508964Y-114408928D01*
X183555351Y-114404543D01*
X183561190Y-114404268D01*
X185975020Y-114404268D01*
X186042059Y-114423953D01*
X186067168Y-114445294D01*
X186072894Y-114451653D01*
X186072898Y-114451657D01*
X186226033Y-114562916D01*
X186226038Y-114562919D01*
X186398960Y-114639910D01*
X186398961Y-114639910D01*
X186398965Y-114639912D01*
X186438298Y-114648272D01*
X186451379Y-114651053D01*
X186512861Y-114684245D01*
X186543530Y-114734025D01*
X186594050Y-114889509D01*
X186594053Y-114889516D01*
X186688699Y-115053448D01*
X186800693Y-115177830D01*
X186815361Y-115194120D01*
X186968497Y-115305380D01*
X186968502Y-115305383D01*
X187141424Y-115382374D01*
X187141429Y-115382376D01*
X187326586Y-115421732D01*
X187326587Y-115421732D01*
X187515876Y-115421732D01*
X187515878Y-115421732D01*
X187701035Y-115382376D01*
X187873962Y-115305383D01*
X188027103Y-115194120D01*
X188030020Y-115190879D01*
X188032832Y-115187758D01*
X188092319Y-115151111D01*
X188124980Y-115146732D01*
X191646025Y-115146732D01*
X191661645Y-115148456D01*
X191661672Y-115148171D01*
X191669428Y-115148903D01*
X191669435Y-115148905D01*
X191738582Y-115146732D01*
X191768118Y-115146732D01*
X191774996Y-115145862D01*
X191780809Y-115145404D01*
X191827395Y-115143941D01*
X191846637Y-115138349D01*
X191865680Y-115134406D01*
X191885560Y-115131896D01*
X191928890Y-115114739D01*
X191934414Y-115112849D01*
X191938164Y-115111759D01*
X191979158Y-115099850D01*
X191996397Y-115089654D01*
X192013871Y-115081094D01*
X192032495Y-115073720D01*
X192032495Y-115073719D01*
X192032500Y-115073718D01*
X192070217Y-115046314D01*
X192075073Y-115043124D01*
X192115188Y-115019402D01*
X192129357Y-115005231D01*
X192144147Y-114992600D01*
X192160355Y-114980826D01*
X192190067Y-114944908D01*
X192193980Y-114940608D01*
X192883786Y-114250802D01*
X192896048Y-114240980D01*
X192895865Y-114240759D01*
X192901867Y-114235792D01*
X192901877Y-114235786D01*
X192949241Y-114185348D01*
X192970120Y-114164470D01*
X192974373Y-114158986D01*
X192978150Y-114154563D01*
X193010062Y-114120582D01*
X193019714Y-114103023D01*
X193030389Y-114086772D01*
X193042674Y-114070936D01*
X193061186Y-114028152D01*
X193063742Y-114022935D01*
X193086197Y-113982092D01*
X193091180Y-113962680D01*
X193097477Y-113944291D01*
X193105438Y-113925895D01*
X193112729Y-113879853D01*
X193113906Y-113874166D01*
X193125500Y-113829019D01*
X193125499Y-113808986D01*
X193127027Y-113789583D01*
X193130159Y-113769808D01*
X193130160Y-113769806D01*
X193125775Y-113723415D01*
X193125500Y-113717577D01*
X193125500Y-109432738D01*
X193127224Y-109417124D01*
X193126938Y-109417097D01*
X193127672Y-109409334D01*
X193125500Y-109340203D01*
X193125500Y-109310651D01*
X193125500Y-109310650D01*
X193124629Y-109303759D01*
X193124172Y-109297945D01*
X193122709Y-109251372D01*
X193117122Y-109232144D01*
X193113174Y-109213084D01*
X193110664Y-109193208D01*
X193093507Y-109149875D01*
X193091619Y-109144359D01*
X193078619Y-109099612D01*
X193068418Y-109082363D01*
X193059860Y-109064894D01*
X193052486Y-109046268D01*
X193052483Y-109046264D01*
X193052483Y-109046263D01*
X193025098Y-109008571D01*
X193021890Y-109003687D01*
X192998172Y-108963582D01*
X192998163Y-108963571D01*
X192984005Y-108949413D01*
X192971370Y-108934620D01*
X192959593Y-108918412D01*
X192923693Y-108888713D01*
X192919381Y-108884790D01*
X192400803Y-108366212D01*
X192390980Y-108353950D01*
X192390759Y-108354134D01*
X192385786Y-108348123D01*
X192335364Y-108300773D01*
X192324919Y-108290328D01*
X192314475Y-108279883D01*
X192308986Y-108275625D01*
X192304561Y-108271847D01*
X192270582Y-108239938D01*
X192270580Y-108239936D01*
X192270577Y-108239935D01*
X192253029Y-108230288D01*
X192236763Y-108219604D01*
X192220933Y-108207325D01*
X192178168Y-108188818D01*
X192172922Y-108186248D01*
X192164763Y-108181763D01*
X192115498Y-108132217D01*
X192100499Y-108073100D01*
X192100499Y-108052128D01*
X192100498Y-108052111D01*
X192096320Y-108013253D01*
X192096320Y-107986747D01*
X192100500Y-107947873D01*
X192100499Y-107552128D01*
X192094091Y-107492517D01*
X192081545Y-107458880D01*
X192043797Y-107357671D01*
X192043793Y-107357664D01*
X191957547Y-107242455D01*
X191957544Y-107242452D01*
X191842335Y-107156206D01*
X191842328Y-107156202D01*
X191707482Y-107105908D01*
X191707483Y-107105908D01*
X191647883Y-107099501D01*
X191647881Y-107099500D01*
X191647873Y-107099500D01*
X191647865Y-107099500D01*
X190124000Y-107099500D01*
X190056961Y-107079815D01*
X190011206Y-107027011D01*
X190000000Y-106975500D01*
X190000000Y-106032977D01*
X190019685Y-105965938D01*
X190072489Y-105920183D01*
X190080668Y-105916795D01*
X190142326Y-105893798D01*
X190142326Y-105893797D01*
X190142331Y-105893796D01*
X190257546Y-105807546D01*
X190343796Y-105692331D01*
X190394091Y-105557483D01*
X190400500Y-105497873D01*
X190400499Y-104602128D01*
X190394091Y-104542517D01*
X190343796Y-104407669D01*
X190343795Y-104407668D01*
X190343793Y-104407664D01*
X190257547Y-104292455D01*
X190257544Y-104292452D01*
X190142335Y-104206206D01*
X190142328Y-104206202D01*
X190007482Y-104155908D01*
X190007483Y-104155908D01*
X189947883Y-104149501D01*
X189947881Y-104149500D01*
X189947873Y-104149500D01*
X189947864Y-104149500D01*
X188052129Y-104149500D01*
X188052123Y-104149501D01*
X187992516Y-104155908D01*
X187857671Y-104206202D01*
X187857664Y-104206206D01*
X187742455Y-104292452D01*
X187742452Y-104292455D01*
X187656206Y-104407664D01*
X187656202Y-104407671D01*
X187605908Y-104542517D01*
X187599501Y-104602116D01*
X187599501Y-104602123D01*
X187599500Y-104602135D01*
X187599500Y-105497870D01*
X187599501Y-105497876D01*
X187605908Y-105557483D01*
X187656202Y-105692328D01*
X187656206Y-105692335D01*
X187742452Y-105807544D01*
X187742455Y-105807547D01*
X187834208Y-105876234D01*
X187876079Y-105932168D01*
X187881063Y-106001859D01*
X187847577Y-106063182D01*
X187786254Y-106096666D01*
X187759897Y-106099500D01*
X187273212Y-106099500D01*
X187249978Y-106097304D01*
X187241172Y-106095624D01*
X187241166Y-106095624D01*
X187225889Y-106096585D01*
X187181482Y-106099378D01*
X187177612Y-106099500D01*
X186352129Y-106099500D01*
X186352123Y-106099501D01*
X186292516Y-106105908D01*
X186157671Y-106156202D01*
X186157664Y-106156206D01*
X186042455Y-106242452D01*
X186042452Y-106242455D01*
X185953898Y-106360748D01*
X185897964Y-106402619D01*
X185828273Y-106407603D01*
X185804196Y-106399716D01*
X185779807Y-106388857D01*
X185779802Y-106388855D01*
X185633078Y-106357669D01*
X185594646Y-106349500D01*
X185405354Y-106349500D01*
X185372897Y-106356398D01*
X185220197Y-106388855D01*
X185220192Y-106388857D01*
X185047270Y-106465848D01*
X185047265Y-106465851D01*
X184894129Y-106577111D01*
X184767466Y-106717785D01*
X184672821Y-106881715D01*
X184672818Y-106881722D01*
X184614327Y-107061740D01*
X184614326Y-107061744D01*
X184594540Y-107250000D01*
X184614326Y-107438256D01*
X184614327Y-107438259D01*
X184622100Y-107462182D01*
X184624095Y-107532023D01*
X184588015Y-107591856D01*
X184525314Y-107622684D01*
X184504169Y-107624500D01*
X183435029Y-107624500D01*
X183367990Y-107604815D01*
X183362151Y-107600823D01*
X183295129Y-107552129D01*
X183272752Y-107535871D01*
X183099830Y-107458880D01*
X183099825Y-107458878D01*
X182954023Y-107427888D01*
X182914669Y-107419523D01*
X182725377Y-107419523D01*
X182692920Y-107426421D01*
X182540220Y-107458878D01*
X182540215Y-107458880D01*
X182367293Y-107535871D01*
X182367288Y-107535874D01*
X182214152Y-107647134D01*
X182087489Y-107787808D01*
X181992844Y-107951738D01*
X181992841Y-107951745D01*
X181960225Y-108052128D01*
X181934349Y-108131767D01*
X181914563Y-108320023D01*
X165500000Y-108320023D01*
X165500000Y-100208137D01*
X165519685Y-100141098D01*
X165539890Y-100117024D01*
X166204783Y-99503276D01*
X166497709Y-99232884D01*
X166560322Y-99201877D01*
X166581816Y-99200000D01*
X193898638Y-99200000D01*
X193965677Y-99219685D01*
G37*
%TD.AperFunction*%
%TD*%
M02*
